<svg id="building_bold" data-name="building/bold" xmlns="http://www.w3.org/2000/svg" width="21" height="23" viewBox="0 0 21 23">
  <g id="vuesax_bold_building" data-name="vuesax/bold/building">
    <g id="building">
      <path id="Vector" d="M8.78,2.508,4.35.428C1.96-.684,0,.447,0,2.936v14.1A2.047,2.047,0,0,0,2.11,19H9.53a.979.979,0,0,0,1-.95V5.14A3.22,3.22,0,0,0,8.78,2.508ZM7,11.163H3.53a.713.713,0,1,1,0-1.425H7a.713.713,0,1,1,0,1.425Zm0-3.8H3.53a.713.713,0,1,1,0-1.425H7A.713.713,0,1,1,7,7.363Z" transform="translate(1.97 2)" fill="#07b541"/>
      <path id="Vector-2" data-name="Vector" d="M8,0V1.46a2.5,2.5,0,0,1-2.5,2.5H.97A.965.965,0,0,1,0,2.99V.83A4.111,4.111,0,0,0,3.01,0a3.961,3.961,0,0,0,2.5.88A4,4,0,0,0,8,0Z" transform="translate(11 17.04)" fill="#07b541"/>
      <path id="Vector-3" data-name="Vector" d="M8,4.054v.01a2.5,2.5,0,0,1-4.99-.14A2.517,2.517,0,0,1,0,6.374V1A1,1,0,0,1,1.22.024l1.79.4.48.11,2.04.46a3.891,3.891,0,0,1,1.33.52.01.01,0,0,0,.01.01,2.172,2.172,0,0,1,.29.24,3.164,3.164,0,0,1,.83,2.11C7.99,3.934,8,3.994,8,4.054Z" transform="translate(11 10.37)" fill="#07b541"/>
      <path id="Vector-4" data-name="Vector" d="M0,0H21V23H0Z" transform="translate(21 23) rotate(180)" fill="none" opacity="0"/>
    </g>
  </g>
</svg>
