<svg xmlns="http://www.w3.org/2000/svg" width="380.101" height="283.221" viewBox="0 0 380.101 283.221">
  <g id="Delivery_address-rafiki" data-name="Delivery address-rafiki" transform="translate(0 -55)">
    <g id="freepik--background-complete--inject-28" transform="translate(0 55)" opacity="0.78">
      <rect id="Rectangle_12862" data-name="Rectangle 12862" width="380.101" height="0.19" transform="translate(0 248.89)" fill="#ebebeb"/>
      <rect id="Rectangle_12863" data-name="Rectangle 12863" width="25.178" height="0.19" transform="translate(316.837 261.122)" fill="#ebebeb"/>
      <rect id="Rectangle_12864" data-name="Rectangle 12864" width="6.606" height="0.19" transform="translate(245.188 263.19)" fill="#ebebeb"/>
      <rect id="Rectangle_12865" data-name="Rectangle 12865" width="14.588" height="0.19" transform="translate(301.489 254.067)" fill="#ebebeb"/>
      <rect id="Rectangle_12866" data-name="Rectangle 12866" width="32.833" height="0.19" transform="translate(39.88 255.344)" fill="#ebebeb"/>
      <rect id="Rectangle_12867" data-name="Rectangle 12867" width="4.812" height="0.19" transform="translate(79.487 255.344)" fill="#ebebeb"/>
      <rect id="Rectangle_12868" data-name="Rectangle 12868" width="71.216" height="0.19" transform="translate(99.944 258.552)" fill="#ebebeb"/>
      <path id="Path_97948" data-name="Path 97948" d="M189.331,269.985H42.543a4.341,4.341,0,0,1-4.333-4.341V59.3A4.341,4.341,0,0,1,42.543,55H189.331a4.341,4.341,0,0,1,4.341,4.341v206.3A4.341,4.341,0,0,1,189.331,269.985ZM42.543,55.152A4.151,4.151,0,0,0,38.4,59.3V265.644a4.151,4.151,0,0,0,4.143,4.151H189.331a4.158,4.158,0,0,0,4.151-4.151V59.3a4.158,4.158,0,0,0-4.151-4.151Z" transform="translate(-9.163 -55)" fill="#ebebeb"/>
      <path id="Path_97949" data-name="Path 97949" d="M405.636,269.985h-146.8a4.348,4.348,0,0,1-4.341-4.341V59.3a4.348,4.348,0,0,1,4.341-4.3h146.8a4.341,4.341,0,0,1,4.326,4.3V265.644A4.341,4.341,0,0,1,405.636,269.985ZM258.841,55.152A4.158,4.158,0,0,0,254.69,59.3V265.644a4.158,4.158,0,0,0,4.151,4.151h146.8a4.158,4.158,0,0,0,4.151-4.151V59.3a4.158,4.158,0,0,0-4.151-4.151Z" transform="translate(-61.029 -55)" fill="#ebebeb"/>
      <path id="Path_97950" data-name="Path 97950" d="M383,114.88a2.82,2.82,0,0,1,2.82-2.82,2.638,2.638,0,0,1,.813.122,5.569,5.569,0,0,1-.068-.874,5.983,5.983,0,0,1,5.983-5.975,5.892,5.892,0,0,1,1.1.106,5.223,5.223,0,0,1,9.685,2.638h.091a4.82,4.82,0,0,1,0,9.639H385.752A2.82,2.82,0,0,1,383,114.88Z" transform="translate(-91.843 -66.493)" fill="#f5f5f5"/>
      <path id="Path_97951" data-name="Path 97951" d="M193.26,226.868a1.406,1.406,0,0,1,1.406-1.406,1.445,1.445,0,0,1,.411.053,2.619,2.619,0,0,1-.038-.433,3,3,0,0,1,3-2.988,3.258,3.258,0,0,1,.547.053,2.615,2.615,0,0,1,4.842,1.323h.046a2.41,2.41,0,1,1,0,4.82h-8.841a1.414,1.414,0,0,1-1.368-1.422Z" transform="translate(-46.343 -94.783)" fill="#f5f5f5"/>
      <path id="Path_97952" data-name="Path 97952" d="M76.58,108.758a1.414,1.414,0,0,1,1.414-1.414,1.437,1.437,0,0,1,.4.061,2.646,2.646,0,0,1,0-.433,2.988,2.988,0,0,1,2.988-2.988,2.691,2.691,0,0,1,.555.053,2.615,2.615,0,0,1,4.842,1.315h0a2.41,2.41,0,0,1,0,4.82H77.948a1.4,1.4,0,0,1-1.368-1.414Z" transform="translate(-18.364 -66.46)" fill="#f5f5f5"/>
      <path id="Path_97953" data-name="Path 97953" d="M58.38,218.118a1.406,1.406,0,0,1,1.414-1.406,1.429,1.429,0,0,1,.4.053,2.647,2.647,0,0,1,0-.433,2.988,2.988,0,0,1,2.988-2.988,3.345,3.345,0,0,1,.555.053,2.615,2.615,0,0,1,4.842,1.323h.046a2.41,2.41,0,1,1,0,4.82H59.756a1.422,1.422,0,0,1-1.376-1.422Z" transform="translate(-13.999 -92.685)" fill="#f5f5f5"/>
      <path id="Path_97954" data-name="Path 97954" d="M249.94,105.605a1.855,1.855,0,0,1,1.855-1.855,1.717,1.717,0,0,1,.525.084,4.789,4.789,0,0,1,0-.57,3.923,3.923,0,0,1,3.923-3.923,3.8,3.8,0,0,1,.722.068,3.421,3.421,0,0,1,6.348,1.733h.061a3.162,3.162,0,0,1,0,6.317H251.742A1.847,1.847,0,0,1,249.94,105.605Z" transform="translate(-59.935 -65.253)" fill="#f5f5f5"/>
      <path id="Path_97955" data-name="Path 97955" d="M68.448,226.6a4.464,4.464,0,0,1-.129-.851c-.106-1.756-1.779-1.475-3.208-1.718-1.117-.182,1.84-3.041-.411-3.915a1.969,1.969,0,0,1-1.087-.76,1.277,1.277,0,0,1,.487-1.52,3.041,3.041,0,0,1,1.71-.433c.365-.441.068-1.118-.289-1.566a2.059,2.059,0,0,1-.654-1.52c.205-.851,1.391-.882,2.281-.715a6.082,6.082,0,0,0,.464-1.741c.16-.578.616-1.194,1.216-1.117s.9.707,1.46.836,1.194-.418,1.7-.844,1.384-.692,1.726-.129c.205.334.084.806.3,1.133.38.57,1.262.22,1.817-.19s1.422-.76,1.809-.205a2.152,2.152,0,0,1,.213.585c.258.76,1.072,1.125,1.7,1.6s1.14,1.444.6,2.03c-.266.289-.76.411-.859.76s.312.874.684,1.194c.616.532.76,2.113-.091,2.547-.342.182-.851.236-.935.616s.274.608.5.867a1.634,1.634,0,0,1-.5,2.433c-.2.091-.441.167-.509.38a.76.76,0,0,0,.046.456,2.471,2.471,0,0,1,.076.882.388.388,0,0,1-.106.274.433.433,0,0,1-.258.076c-1.186.053-1.764-.365-2.486.661a.912.912,0,0,1-.243.266.988.988,0,0,1-.327.084c-.821.061-1.353-.441-2.1-.54-1.034-.129-1.254.4-2.167.829C69.406,227.995,68.707,227.554,68.448,226.6Z" transform="translate(-15.234 -92.238)" fill="#f5f5f5"/>
      <path id="Path_97956" data-name="Path 97956" d="M86.448,224.664a4.007,4.007,0,0,1-.129-.851c-.106-1.756-1.786-1.482-3.216-1.718-1.11-.19,1.84-3.041-.411-3.915a1.954,1.954,0,0,1-1.079-.76,1.27,1.27,0,0,1,.487-1.52,3.041,3.041,0,0,1,1.71-.433c.365-.441.068-1.117-.289-1.574a2.059,2.059,0,0,1-.654-1.52c.2-.844,1.384-.874,2.243-.715a5.952,5.952,0,0,0,.464-1.733c.152-.578.616-1.193,1.216-1.117s.9.7,1.46.836,1.194-.418,1.7-.844,1.384-.692,1.733-.129c.205.335.084.76.3,1.133.372.57,1.262.213,1.809-.19s1.429-.76,1.817-.213a2.622,2.622,0,0,1,.213.593c.258.76,1.072,1.125,1.7,1.6s1.133,1.437.6,2.03c-.266.289-.76.4-.859.76s.3.874.677,1.194c.623.525.76,2.106-.084,2.539-.35.182-.851.243-.935.623s.266.6.494.867a1.634,1.634,0,0,1-.494,2.433c-.2.091-.441.167-.517.373a.813.813,0,0,0,.046.464,2.456,2.456,0,0,1,.084.882.4.4,0,0,1-.106.274.441.441,0,0,1-.266.076c-1.186.053-1.756-.373-2.478.661a.836.836,0,0,1-.251.266.76.76,0,0,1-.327.076c-.813.068-1.346-.441-2.091-.532-1.034-.137-1.254.4-2.167.829C87.383,226.055,86.691,225.637,86.448,224.664Z" transform="translate(-19.55 -91.773)" fill="#f5f5f5"/>
      <path id="Path_97957" data-name="Path 97957" d="M88.144,213.2a4.007,4.007,0,0,1-.129-.851c-.106-1.756-1.786-1.475-3.208-1.718-1.117-.182,1.832-3-.411-3.915a1.969,1.969,0,0,1-1.087-.76A1.277,1.277,0,0,1,83.8,204.4a3.041,3.041,0,0,1,1.71-.433c.365-.441.068-1.118-.289-1.574a2.059,2.059,0,0,1-.654-1.52c.205-.844,1.391-.874,2.281-.707a6.082,6.082,0,0,0,.464-1.741c.152-.578.616-1.194,1.216-1.117s.9.707,1.46.836,1.193-.418,1.7-.844,1.384-.692,1.726-.129c.205.334.084.8.3,1.133.38.57,1.262.213,1.817-.19s1.422-.76,1.809-.213a2.281,2.281,0,0,1,.213.593c.258.76,1.072,1.125,1.7,1.6s1.133,1.444.6,2.03c-.266.289-.76.4-.859.76s.3.874.684,1.194c.616.532.76,2.113-.091,2.547-.342.175-.851.236-.935.616s.266.6.5.867a1.634,1.634,0,0,1-.5,2.433c-.2.091-.441.167-.517.38a.8.8,0,0,0,.053.456,2.455,2.455,0,0,1,.076.882.4.4,0,0,1-.106.274.433.433,0,0,1-.258.076c-1.186.053-1.764-.373-2.486.661a.912.912,0,0,1-.243.266.981.981,0,0,1-.334.084c-.813.061-1.346-.449-2.091-.54-1.034-.129-1.254.4-2.167.829C89.133,214.593,88.411,214.175,88.144,213.2Z" transform="translate(-19.954 -89.015)" fill="#f5f5f5"/>
      <path id="Path_97958" data-name="Path 97958" d="M99.988,218.916a4.463,4.463,0,0,1-.129-.851c-.106-1.756-1.779-1.475-3.208-1.718-1.118-.182,1.84-3.041-.411-3.907a2.022,2.022,0,0,1-1.087-.76,1.277,1.277,0,0,1,.487-1.52,3.041,3.041,0,0,1,1.71-.426c.365-.449.068-1.117-.289-1.574a2.059,2.059,0,0,1-.654-1.52c.205-.851,1.391-.882,2.281-.715a6.082,6.082,0,0,0,.464-1.733c.16-.585.623-1.194,1.216-1.125s.912.707,1.46.836,1.2-.418,1.7-.844,1.384-.692,1.726-.129c.213.334.084.806.3,1.133.372.57,1.254.22,1.809-.19s1.422-.76,1.809-.205a2.151,2.151,0,0,1,.213.585c.266.76,1.072,1.125,1.71,1.6s1.133,1.444.593,2.03c-.258.289-.76.411-.859.76s.312.874.684,1.194c.623.532.76,2.113-.091,2.547-.342.182-.851.236-.935.616s.274.608.5.867a1.634,1.634,0,0,1-.5,2.433c-.2.091-.441.175-.509.38a.76.76,0,0,0,.046.456,2.471,2.471,0,0,1,.076.882.388.388,0,0,1-.106.274.433.433,0,0,1-.258.076c-1.186.053-1.756-.365-2.486.669a.882.882,0,0,1-.243.258.7.7,0,0,1-.327.084c-.821.068-1.353-.441-2.1-.54-1.034-.129-1.254.4-2.167.829C100.954,220.307,100.254,219.889,99.988,218.916Z" transform="translate(-22.797 -90.396)" fill="#f5f5f5"/>
      <path id="Path_97959" data-name="Path 97959" d="M111.958,216.284a4.007,4.007,0,0,1-.129-.851c-.106-1.756-1.779-1.482-3.208-1.718-1.118-.19,1.832-3.041-.411-3.915a1.969,1.969,0,0,1-1.087-.76,1.277,1.277,0,0,1,.487-1.52,3.041,3.041,0,0,1,1.71-.433c.365-.441.068-1.117-.289-1.574a2.059,2.059,0,0,1-.654-1.52c.205-.844,1.391-.874,2.281-.715a5.952,5.952,0,0,0,.464-1.733c.152-.578.616-1.194,1.216-1.117s.9.7,1.46.836,1.194-.418,1.7-.844,1.384-.692,1.726-.129c.205.334.084.76.3,1.133.38.57,1.262.213,1.817-.19s1.422-.76,1.809-.213a2.281,2.281,0,0,1,.213.593c.258.76,1.072,1.125,1.7,1.6s1.133,1.437.6,2.03c-.266.289-.76.4-.859.76s.312.874.684,1.194c.616.525.76,2.113-.091,2.539-.342.182-.851.243-.935.623s.274.6.5.867a1.634,1.634,0,0,1-.5,2.433c-.2.091-.441.167-.517.372a.821.821,0,0,0,.053.464,2.455,2.455,0,0,1,.076.882.4.4,0,0,1-.106.274.434.434,0,0,1-.258.076c-1.186.053-1.764-.373-2.486.661a.912.912,0,0,1-.243.266.829.829,0,0,1-.334.076c-.813.068-1.346-.441-2.091-.532-1.034-.137-1.254.4-2.167.829C112.924,217.675,112.224,217.257,111.958,216.284Z" transform="translate(-25.668 -89.763)" fill="#f5f5f5"/>
      <path id="Path_97960" data-name="Path 97960" d="M112.436,230.178a3.446,3.446,0,0,1-.1-.669c-.084-1.384-1.4-1.163-2.524-1.353-.882-.144,1.444-2.364-.327-3.041a1.581,1.581,0,0,1-.851-.6,1,1,0,0,1,.38-1.224,2.44,2.44,0,0,1,1.346-.342c.289-.35.053-.874-.22-1.239s-.623-.76-.517-1.209c.16-.661,1.095-.692,1.764-.555a4.918,4.918,0,0,0,.365-1.368c.122-.464.487-.943.958-.882s.715.555,1.148.654.943-.327,1.338-.661,1.095-.547,1.361-.106c.167.266.068.639.236.9.3.449,1,.167,1.429-.152s1.125-.608,1.429-.16a1.817,1.817,0,0,1,.167.456c.205.593.844.889,1.338,1.27s.9,1.133.471,1.6c-.205.228-.57.319-.677.608s.243.692.54.943c.487.418.578,1.665-.068,2-.274.144-.669.19-.76.487s.213.479.4.684a1.292,1.292,0,0,1-.4,1.916c-.16.076-.35.137-.4.3a.563.563,0,0,0,0,.365,1.915,1.915,0,0,1,.061.692.243.243,0,0,1-.289.274c-.935.046-1.391-.289-1.961.525a.616.616,0,0,1-.19.205.593.593,0,0,1-.258.068c-.646.053-1.064-.35-1.65-.426-.813-.1-.988.319-1.7.654C113.2,231.273,112.649,230.946,112.436,230.178Z" transform="translate(-26.032 -93.927)" fill="#f5f5f5"/>
      <path id="Path_97961" data-name="Path 97961" d="M118.818,224.664a4.561,4.561,0,0,1-.129-.851c-.1-1.756-1.779-1.482-3.208-1.718-1.117-.19,1.84-3.041-.411-3.915a1.969,1.969,0,0,1-1.087-.76,1.277,1.277,0,0,1,.487-1.52,3.041,3.041,0,0,1,1.71-.433c.365-.441.068-1.117-.289-1.574a2.059,2.059,0,0,1-.654-1.52c.205-.844,1.391-.874,2.281-.715a6.476,6.476,0,0,0,.464-1.733c.152-.578.616-1.194,1.209-1.117s.912.7,1.46.836,1.2-.418,1.7-.844,1.384-.692,1.726-.129c.213.335.084.76.3,1.133.372.57,1.254.213,1.809-.19s1.422-.76,1.809-.213a2.281,2.281,0,0,1,.213.593c.266.76,1.072,1.125,1.71,1.6s1.133,1.437.593,2.03c-.258.289-.76.4-.859.76s.312.874.684,1.194c.623.525.76,2.106-.091,2.539-.342.182-.851.243-.935.623s.274.6.5.867a1.634,1.634,0,0,1-.5,2.433c-.2.091-.441.167-.509.373a.76.76,0,0,0,.046.464,2.455,2.455,0,0,1,.076.882.4.4,0,0,1-.106.274.433.433,0,0,1-.258.076c-1.186.053-1.756-.372-2.486.661a.813.813,0,0,1-.243.266.76.76,0,0,1-.327.076c-.821.068-1.353-.441-2.1-.532-1.034-.137-1.254.4-2.167.829C119.784,226.055,119.092,225.637,118.818,224.664Z" transform="translate(-27.313 -91.773)" fill="#f5f5f5"/>
      <path id="Path_97962" data-name="Path 97962" d="M99.984,204.839a4.561,4.561,0,0,1-.129-.851c-.106-1.756-1.779-1.475-3.208-1.718-1.117-.182,1.84-3-.411-3.915a1.969,1.969,0,0,1-1.087-.76,1.277,1.277,0,0,1,.487-1.558,3.041,3.041,0,0,1,1.71-.433c.365-.441.068-1.117-.289-1.574a2.059,2.059,0,0,1-.654-1.52c.205-.851,1.391-.882,2.281-.715a6.081,6.081,0,0,0,.464-1.741c.16-.578.623-1.194,1.216-1.118s.912.707,1.46.836,1.2-.418,1.7-.844,1.384-.692,1.726-.129c.213.334.084.8.3,1.133.372.57,1.254.22,1.809-.19s1.422-.76,1.809-.213a2.28,2.28,0,0,1,.213.593c.266.76,1.072,1.125,1.71,1.6s1.133,1.444.593,2.03c-.258.289-.76.4-.859.76s.312.874.684,1.194c.623.532.76,2.113-.091,2.547-.342.175-.851.236-.935.616s.274.6.5.867a1.634,1.634,0,0,1-.5,2.433c-.2.091-.441.167-.509.38a.76.76,0,0,0,.046.456,2.455,2.455,0,0,1,.076.882.4.4,0,0,1-.106.274.433.433,0,0,1-.258.076c-1.186.053-1.756-.373-2.486.661a.912.912,0,0,1-.243.266.943.943,0,0,1-.327.084c-.821.061-1.353-.449-2.1-.54-1.034-.129-1.254.4-2.167.829C100.95,206.215,100.251,205.8,99.984,204.839Z" transform="translate(-22.794 -87.008)" fill="#f5f5f5"/>
      <path id="Path_97963" data-name="Path 97963" d="M84.613,205.606a3.862,3.862,0,0,1-.129-.844c-.106-1.756-1.786-1.52-3.216-1.718-1.11-.19,1.84-3-.411-3.915a1.969,1.969,0,0,1-1.087-.76,1.285,1.285,0,0,1,.494-1.558,3.041,3.041,0,0,1,1.71-.426c.365-.449.068-1.118-.289-1.574a2.059,2.059,0,0,1-.654-1.52c.2-.844,1.384-.874,2.281-.715a5.953,5.953,0,0,0,.464-1.733c.152-.585.616-1.194,1.216-1.117s.9.7,1.46.829,1.194-.41,1.7-.836,1.384-.692,1.733-.137c.205.342.084.806.3,1.14.372.57,1.262.213,1.809-.19s1.429-.76,1.817-.213a2.562,2.562,0,0,1,.213.585c.258.76,1.072,1.125,1.7,1.612s1.133,1.437.6,2.03c-.266.289-.76.4-.859.76s.3.874.677,1.194c.623.525.76,2.106-.084,2.539-.35.182-.851.236-.935.616s.266.608.494.874a1.627,1.627,0,0,1-.494,2.425c-.2.1-.441.175-.517.38a.813.813,0,0,0,.046.464,2.433,2.433,0,0,1,.084.874.441.441,0,0,1-.106.281.41.41,0,0,1-.266.068c-1.186.053-1.756-.365-2.478.669a.813.813,0,0,1-.251.258.7.7,0,0,1-.327.084c-.813.068-1.346-.441-2.091-.532-1.034-.137-1.254.4-2.167.829C85.571,207,84.879,206.587,84.613,205.606Z" transform="translate(-19.107 -87.197)" fill="#f5f5f5"/>
      <path id="Path_97964" data-name="Path 97964" d="M75.278,211.914a4.007,4.007,0,0,1-.129-.851c-.106-1.756-1.786-1.482-3.216-1.718-1.11-.19,1.84-3.041-.411-3.915a1.954,1.954,0,0,1-1.079-.76,1.27,1.27,0,0,1,.487-1.52,3.041,3.041,0,0,1,1.71-.433c.365-.441.068-1.117-.289-1.574a2.059,2.059,0,0,1-.654-1.52c.205-.844,1.384-.874,2.243-.715a5.952,5.952,0,0,0,.464-1.733c.152-.578.616-1.194,1.216-1.117s.9.7,1.46.836,1.194-.418,1.7-.844,1.384-.692,1.733-.129c.205.334.084.76.3,1.133.372.57,1.262.213,1.809-.19s1.429-.76,1.817-.213a2.623,2.623,0,0,1,.213.593c.258.76,1.072,1.125,1.7,1.6s1.133,1.437.6,2.03c-.266.289-.76.4-.859.76s.3.874.677,1.194c.623.525.76,2.113-.084,2.539-.342.182-.851.243-.935.623s.266.6.494.867a1.634,1.634,0,0,1-.494,2.433c-.2.091-.441.167-.517.372a.813.813,0,0,0,.046.464,2.281,2.281,0,0,1,.084.882.4.4,0,0,1-.106.274.441.441,0,0,1-.266.076c-1.186.053-1.756-.372-2.478.661a.836.836,0,0,1-.251.266.76.76,0,0,1-.327.076c-.813.068-1.346-.441-2.091-.532-1.034-.137-1.254.4-2.167.829C76.236,213.3,75.544,212.887,75.278,211.914Z" transform="translate(-16.871 -88.715)" fill="#f5f5f5"/>
      <path id="Path_97965" data-name="Path 97965" d="M79.66,221.724s2.965,4.2,3.991,5.527,6.142,9.624,6.842,15.113c.076.585.144,1.087.22,1.52-2.2,14.535-1.863,70.015-1.779,74.568h9.031c-1.718-34.1-1.4-80.954-1.186-82.383s3.147-7.29,7.655-9.662S112.8,216.19,112.8,216.19H111.36a25.742,25.742,0,0,1-6.454,7.473,14.335,14.335,0,0,1-1.7,1.011,24.136,24.136,0,0,0-1.52-8.484l-.76.715a20.044,20.044,0,0,1,.593,8.605,15.592,15.592,0,0,0-3.915,2.623c-3.93-5.109-6.142-16.793-6.142-16.793l-1,.547a59.617,59.617,0,0,0,1.3,7.169,117.069,117.069,0,0,0,3.907,11.3,26.31,26.31,0,0,0-2.965,5.572,2.281,2.281,0,0,0-.38-.456c-2.562-2.319-7.374-13.25-7.374-13.25-1.163-2.539.616-9.214.616-9.214H84.252l-.6,5.838-3.375-3.687-.616.509,3.581,4.607,1.847,5.838L80.276,220.8Z" transform="translate(-19.102 -92.49)" fill="#f5f5f5"/>
      <path id="Path_97966" data-name="Path 97966" d="M427.976,237.191a3.393,3.393,0,0,0,.122-.76c.1-1.642,1.665-1.384,3-1.6,1.041-.175-1.718-2.805.38-3.657a1.862,1.862,0,0,0,1.019-.707,1.2,1.2,0,0,0-.464-1.46,2.858,2.858,0,0,0-1.6-.4c-.342-.411-.061-1.041.274-1.467s.76-.912.608-1.437c-.19-.76-1.292-.821-2.1-.661a5.771,5.771,0,0,1-.433-1.627c-.144-.54-.578-1.117-1.133-1.049s-.851.661-1.368.76-1.117-.388-1.589-.76-1.292-.646-1.612-.129c-.2.319-.076.76-.281,1.064-.35.532-1.178.205-1.688-.175s-1.338-.76-1.7-.2a2.28,2.28,0,0,0-.205.547c-.243.7-1,1.049-1.589,1.52s-1.064,1.346-.563,1.893c.251.274.684.38.806.722s-.289.821-.639,1.117c-.578.494-.684,1.977.084,2.379.319.167.76.22.874.578s-.251.563-.464.806a1.52,1.52,0,0,0,.464,2.281c.182.091.41.167.479.357a.76.76,0,0,1-.046.426,2.166,2.166,0,0,0-.068.829.365.365,0,0,0,.1.258.418.418,0,0,0,.243.068c1.11.046,1.642-.35,2.319.616a.912.912,0,0,0,.228.251.76.76,0,0,0,.312.076c.76.061,1.262-.418,1.954-.5.965-.129,1.171.373,2.022.76C427.079,238.491,427.725,238.1,427.976,237.191Z" transform="translate(-99.941 -95.033)" fill="#f5f5f5"/>
      <path id="Path_97967" data-name="Path 97967" d="M411.175,235.371a4.674,4.674,0,0,0,.122-.76c.091-1.642,1.665-1.384,3-1.612,1.049-.167-1.718-2.805.388-3.657a1.809,1.809,0,0,0,1.011-.707,1.186,1.186,0,0,0-.456-1.452,2.767,2.767,0,0,0-1.6-.4c-.342-.418-.061-1.041.266-1.475s.76-.9.616-1.429c-.19-.8-1.3-.821-2.1-.669a5.8,5.8,0,0,1-.433-1.619c-.144-.547-.578-1.117-1.133-1.049s-.851.654-1.368.76-1.118-.388-1.589-.76-1.292-.646-1.612-.122c-.2.312-.084.76-.281,1.057-.35.54-1.178.205-1.7-.175s-1.33-.76-1.7-.2a2.523,2.523,0,0,0-.2.555c-.243.7-1,1.049-1.589,1.52s-1.064,1.346-.563,1.893c.243.274.684.38.806.76s-.289.821-.639,1.118c-.585.494-.684,1.969.084,2.372.319.175.76.22.874.578s-.251.57-.471.813a1.52,1.52,0,0,0,.471,2.281c.182.084.411.16.479.35a.761.761,0,0,1-.046.433,2.28,2.28,0,0,0-.076.821.388.388,0,0,0,.1.258.4.4,0,0,0,.251.068c1.1.053,1.642-.342,2.319.623a.7.7,0,0,0,.228.243.76.76,0,0,0,.3.076c.76.061,1.262-.41,1.961-.5.965-.122,1.171.372,2.022.76C410.27,236.671,410.924,236.284,411.175,235.371Z" transform="translate(-95.911 -94.597)" fill="#f5f5f5"/>
      <path id="Path_97968" data-name="Path 97968" d="M409.556,224.671a4.667,4.667,0,0,0,.122-.76c.1-1.65,1.665-1.384,3-1.612,1.049-.175-1.718-2.805.388-3.657a1.84,1.84,0,0,0,1.011-.707,1.194,1.194,0,0,0-.456-1.46,2.8,2.8,0,0,0-1.6-.4c-.342-.418-.061-1.049.266-1.475s.76-.9.616-1.429c-.19-.76-1.3-.821-2.1-.669a5.792,5.792,0,0,1-.433-1.619c-.144-.547-.578-1.118-1.133-1.049s-.851.654-1.368.76-1.117-.388-1.589-.76-1.292-.646-1.612-.122c-.2.312-.084.76-.281,1.057-.35.54-1.178.205-1.7-.175s-1.33-.722-1.7-.2a2.6,2.6,0,0,0-.2.547c-.243.707-1,1.057-1.589,1.52s-1.064,1.346-.563,1.893c.251.274.684.38.806.76s-.289.821-.639,1.117c-.578.494-.684,1.969.084,2.372.319.175.76.22.874.578s-.251.57-.471.813a1.52,1.52,0,0,0,.471,2.281c.182.084.411.16.479.35a.76.76,0,0,1-.046.433,2.281,2.281,0,0,0-.076.821.4.4,0,0,0,.106.258.418.418,0,0,0,.243.068c1.1.046,1.642-.342,2.319.623a.7.7,0,0,0,.228.243.76.76,0,0,0,.312.076c.76.061,1.254-.411,1.954-.5.965-.122,1.171.372,2.022.76C408.651,225.971,409.3,225.584,409.556,224.671Z" transform="translate(-95.524 -92.031)" fill="#f5f5f5"/>
      <path id="Path_97969" data-name="Path 97969" d="M398.466,230a3.517,3.517,0,0,0,.122-.76c.1-1.65,1.665-1.384,3-1.612,1.041-.175-1.718-2.805.38-3.657a1.863,1.863,0,0,0,1.019-.707,1.209,1.209,0,0,0-.464-1.46,2.79,2.79,0,0,0-1.6-.4c-.342-.418-.061-1.049.274-1.475s.76-.9.608-1.429c-.19-.8-1.292-.821-2.1-.669a5.8,5.8,0,0,1-.433-1.619c-.144-.547-.578-1.118-1.133-1.049s-.851.654-1.368.76-1.118-.388-1.589-.76-1.292-.646-1.612-.122c-.2.312-.076.76-.281,1.057-.35.54-1.178.205-1.688-.175s-1.338-.722-1.7-.2a2.282,2.282,0,0,0-.205.547c-.243.707-1,1.057-1.589,1.52s-1.064,1.346-.563,1.893c.251.274.684.38.806.76s-.289.813-.639,1.117c-.578.494-.684,1.969.084,2.372.319.175.8.22.874.578s-.251.57-.464.813a1.52,1.52,0,0,0,.464,2.281c.182.084.411.16.479.35a.76.76,0,0,1-.046.433,2.144,2.144,0,0,0-.068.821.357.357,0,0,0,.1.258.418.418,0,0,0,.243.068c1.11.046,1.642-.342,2.319.623a.873.873,0,0,0,.228.243.76.76,0,0,0,.312.076c.76.061,1.262-.411,1.954-.5.965-.122,1.171.372,2.022.76C397.584,231.3,398.23,230.906,398.466,230Z" transform="translate(-92.864 -93.309)" fill="#f5f5f5"/>
      <path id="Path_97970" data-name="Path 97970" d="M387.3,227.544a3.519,3.519,0,0,0,.122-.76c.1-1.642,1.665-1.376,3-1.6,1.041-.175-1.718-2.805.388-3.657a1.84,1.84,0,0,0,1.011-.707,1.193,1.193,0,0,0-.456-1.46,2.82,2.82,0,0,0-1.6-.4c-.342-.418-.068-1.049.266-1.475s.76-.9.616-1.437c-.19-.76-1.3-.821-2.1-.661a5.525,5.525,0,0,1-.433-1.627c-.144-.54-.578-1.11-1.14-1.041s-.844.654-1.361.76-1.118-.388-1.589-.76-1.292-.646-1.619-.122c-.19.312-.076.76-.281,1.057-.342.532-1.171.205-1.688-.175s-1.33-.722-1.7-.2a1.961,1.961,0,0,0-.2.547c-.243.707-1,1.057-1.6,1.52s-1.057,1.346-.555,1.893c.243.274.677.38.8.76s-.289.813-.631,1.11c-.585.494-.692,1.977.076,2.379.327.167.8.22.874.578s-.251.563-.464.813a1.52,1.52,0,0,0,.464,2.281c.19.084.411.16.479.35a.715.715,0,0,1,0,.433,2.144,2.144,0,0,0-.076.821.388.388,0,0,0,.1.258.448.448,0,0,0,.243.068c1.11.046,1.642-.342,2.319.623a.9.9,0,0,0,.236.243.692.692,0,0,0,.3.076c.76.061,1.262-.411,1.961-.5.965-.122,1.171.372,2.022.76C386.4,228.844,387.045,228.456,387.3,227.544Z" transform="translate(-90.186 -92.722)" fill="#f5f5f5"/>
      <path id="Path_97971" data-name="Path 97971" d="M387.906,240.513a2.917,2.917,0,0,0,.091-.623c.076-1.292,1.315-1.087,2.364-1.262.821-.137-1.353-2.212.3-2.881a1.475,1.475,0,0,0,.8-.555.943.943,0,0,0-.357-1.148,2.2,2.2,0,0,0-1.262-.319c-.266-.327-.046-.821.213-1.155s.578-.715.479-1.133c-.144-.623-1.019-.646-1.65-.525a4.393,4.393,0,0,1-.342-1.277c-.114-.426-.449-.874-.889-.821s-.669.517-1.079.616-.882-.312-1.247-.623-1.019-.509-1.277-.1c-.152.251-.061.593-.22.836-.274.426-.927.16-1.33-.137s-1.049-.57-1.33-.152a1.52,1.52,0,0,0-.16.433c-.19.547-.76.821-1.254,1.178s-.836,1.057-.441,1.52c.2.213.54.3.631.578s-.228.639-.5.874a1.3,1.3,0,0,0,.068,1.87c.251.137.623.175.684.456s-.2.449-.365.639a1.2,1.2,0,0,0,.365,1.786c.152.076.327.129.38.281a.593.593,0,0,1,0,.342,1.673,1.673,0,0,0-.061.646.327.327,0,0,0,.076.205.418.418,0,0,0,.19.053c.874.038,1.3-.274,1.832.487a.654.654,0,0,0,.182.2.623.623,0,0,0,.236.053c.6.053,1-.319,1.52-.4.76-.091.927.3,1.6.616C387.2,241.539,387.708,241.235,387.906,240.513Z" transform="translate(-90.903 -96.599)" fill="#f5f5f5"/>
      <path id="Path_97972" data-name="Path 97972" d="M380.886,235.371a3.519,3.519,0,0,0,.122-.76c.1-1.642,1.665-1.384,3-1.612,1.041-.167-1.718-2.805.38-3.657a1.825,1.825,0,0,0,1.019-.707,1.194,1.194,0,0,0-.464-1.452,2.737,2.737,0,0,0-1.6-.4c-.342-.418-.061-1.041.274-1.475s.76-.9.608-1.429c-.19-.8-1.3-.821-2.1-.669a5.793,5.793,0,0,1-.433-1.619c-.144-.547-.578-1.117-1.133-1.049s-.851.654-1.368.76-1.117-.388-1.589-.76-1.292-.646-1.612-.122c-.2.312-.076.76-.281,1.057-.35.54-1.178.205-1.688-.175s-1.338-.76-1.7-.2a2.2,2.2,0,0,0-.205.555c-.243.7-1,1.049-1.589,1.52s-1.064,1.346-.563,1.893c.251.274.684.38.806.76s-.289.821-.639,1.118c-.578.494-.684,1.969.084,2.372.319.175.76.22.874.578s-.251.57-.464.813a1.52,1.52,0,0,0,.464,2.281c.182.084.411.16.479.35a.76.76,0,0,1-.046.433,2.143,2.143,0,0,0-.091.7.357.357,0,0,0,.1.258.365.365,0,0,0,.243.068c1.11.053,1.642-.342,2.281.623a.874.874,0,0,0,.228.243.761.761,0,0,0,.312.076c.76.061,1.262-.411,1.954-.5.965-.122,1.171.372,2.022.76C379.989,236.671,380.635,236.284,380.886,235.371Z" transform="translate(-88.649 -94.597)" fill="#f5f5f5"/>
      <path id="Path_97973" data-name="Path 97973" d="M398.466,216.832a3.519,3.519,0,0,0,.122-.8c.1-1.642,1.665-1.384,3-1.6,1.041-.175-1.718-2.805.38-3.657a1.863,1.863,0,0,0,1.019-.707,1.209,1.209,0,0,0-.464-1.46,2.79,2.79,0,0,0-1.6-.4c-.342-.418-.061-1.049.274-1.475s.76-.912.608-1.437c-.19-.76-1.292-.821-2.1-.661a5.771,5.771,0,0,1-.433-1.627c-.144-.54-.578-1.11-1.133-1.041s-.851.654-1.368.76-1.118-.388-1.589-.76-1.292-.646-1.612-.122c-.2.312-.076.76-.281,1.057-.35.532-1.178.205-1.688-.175s-1.338-.76-1.7-.2a2.282,2.282,0,0,0-.205.547c-.243.707-1,1.057-1.589,1.52s-1.064,1.346-.563,1.893c.251.274.684.38.806.76s-.289.813-.639,1.11c-.578.494-.684,1.977.084,2.379.319.167.8.22.874.578s-.251.563-.464.813a1.52,1.52,0,0,0,.464,2.281c.182.084.411.16.479.35a.692.692,0,0,1-.046.426,2.182,2.182,0,0,0-.068.829.357.357,0,0,0,.1.258.418.418,0,0,0,.243.068c1.11.046,1.642-.342,2.319.623a1,1,0,0,0,.228.243.76.76,0,0,0,.312.076c.76.061,1.262-.411,1.954-.5.965-.122,1.171.373,2.022.76C397.584,218.132,398.23,217.744,398.466,216.832Z" transform="translate(-92.864 -90.144)" fill="#f5f5f5"/>
      <path id="Path_97974" data-name="Path 97974" d="M412.856,217.572a3.451,3.451,0,0,0,.122-.76c.1-1.642,1.665-1.384,3-1.6,1.041-.175-1.718-2.813.38-3.664a1.824,1.824,0,0,0,1.019-.707,1.194,1.194,0,0,0-.464-1.452,2.737,2.737,0,0,0-1.6-.4c-.342-.418-.061-1.041.274-1.467s.76-.912.608-1.437c-.19-.76-1.292-.821-2.1-.669a5.794,5.794,0,0,1-.433-1.619c-.144-.547-.578-1.117-1.133-1.049s-.851.661-1.361.76-1.125-.4-1.589-.76-1.3-.646-1.619-.122c-.2.312-.076.76-.281,1.057-.35.54-1.178.205-1.688-.175s-1.338-.722-1.7-.2a2.28,2.28,0,0,0-.205.555c-.243.7-1,1.049-1.589,1.52s-1.057,1.346-.563,1.9c.251.266.684.38.806.76s-.289.821-.639,1.118c-.578.494-.684,1.969.084,2.372.319.175.8.228.874.578s-.251.57-.464.813a1.52,1.52,0,0,0,.464,2.281c.182.091.41.16.479.357a.646.646,0,0,1-.046.426,2.144,2.144,0,0,0-.068.821.3.3,0,0,0,.342.327c1.11.053,1.642-.342,2.319.623a.8.8,0,0,0,.236.243.692.692,0,0,0,.3.076c.76.068,1.262-.411,1.954-.5.965-.122,1.171.38,2.022.76C411.959,218.872,412.6,218.484,412.856,217.572Z" transform="translate(-96.315 -90.329)" fill="#f5f5f5"/>
      <path id="Path_97975" data-name="Path 97975" d="M421.6,223.451a3.837,3.837,0,0,0,.122-.76c.1-1.642,1.665-1.384,3.041-1.6,1.041-.175-1.718-2.813.38-3.657a1.931,1.931,0,0,0,1.019-.707,1.2,1.2,0,0,0-.464-1.46,2.813,2.813,0,0,0-1.6-.4c-.342-.418-.061-1.041.274-1.467s.76-.912.608-1.437c-.19-.76-1.3-.821-2.1-.669a5.792,5.792,0,0,1-.433-1.619c-.144-.547-.578-1.118-1.133-1.049s-.851.661-1.368.76-1.117-.388-1.589-.76-1.292-.646-1.612-.122c-.2.312-.076.76-.281,1.064-.35.532-1.178.2-1.7-.182s-1.33-.722-1.688-.19a2.282,2.282,0,0,0-.205.547c-.243.7-1,1.049-1.589,1.52s-1.064,1.346-.563,1.9c.251.266.684.38.806.76s-.289.821-.639,1.117c-.578.494-.684,1.969.084,2.379.319.167.76.22.874.578s-.251.563-.464.806a1.52,1.52,0,0,0,.464,2.281c.182.091.41.16.479.357a.76.76,0,0,1-.046.426,2.143,2.143,0,0,0-.068.821.342.342,0,0,0,.1.258.334.334,0,0,0,.243.068c1.11.053,1.642-.342,2.319.623a.874.874,0,0,0,.228.243.76.76,0,0,0,.312.076c.76.068,1.262-.411,1.954-.5.965-.122,1.171.38,2.022.76C420.7,224.774,421.347,224.364,421.6,223.451Z" transform="translate(-98.421 -91.739)" fill="#f5f5f5"/>
      <path id="Path_97976" data-name="Path 97976" d="M412.7,232.64s-2.775,3.923-3.733,5.162-5.74,9-6.386,14.125c-.076.547-.144,1.019-.205,1.429,2.053,13.585,1.733,65.446,1.657,69.7h-8.415c1.6-31.868,1.308-75.663,1.1-77s-2.942-6.842-7.153-9.031-7.845-9.548-7.845-9.548h1.338a24.057,24.057,0,0,0,6.028,6.986,14.165,14.165,0,0,0,1.6.943,22.563,22.563,0,0,1,1.406-7.929l.722.669a19.023,19.023,0,0,0-.555,8.043,14.444,14.444,0,0,1,3.664,2.448c3.672-4.774,5.74-15.691,5.74-15.691l.943.509a56.938,56.938,0,0,1-1.216,6.7c-.692,2.828-2.714,8.149-3.657,10.567a25.251,25.251,0,0,1,2.775,5.207,1.931,1.931,0,0,1,.357-.426c2.387-2.159,6.887-12.384,6.887-12.384,1.087-2.372-.578-8.605-.578-8.605h1.254l.563,5.451,3.162-3.444.57.479-3.345,4.3-1.726,5.458,4.5-4.979Z" transform="translate(-91.536 -95.272)" fill="#f5f5f5"/>
      <path id="Path_97977" data-name="Path 97977" d="M294.026,203.708a5.031,5.031,0,0,0,.152-1.034c.129-2.144,2.174-1.8,3.915-2.091,1.361-.228-2.243-3.664.5-4.774a2.394,2.394,0,0,0,1.323-.927,1.52,1.52,0,0,0-.593-1.9,3.657,3.657,0,0,0-2.083-.517c-.448-.547-.084-1.368.35-1.923s.965-1.186.8-1.87c-.251-1.034-1.7-1.072-2.737-.874a7.548,7.548,0,0,1-.57-2.113c-.182-.707-.76-1.452-1.475-1.368s-1.11.859-1.779,1.019-1.46-.509-2.075-1.026-1.688-.844-2.113-.16c-.251.411-.1.981-.365,1.384-.456.7-1.52.266-2.2-.228s-1.741-.943-2.212-.258a2.97,2.97,0,0,0-.258.715c-.319.92-1.308,1.376-2.083,1.961s-1.376,1.756-.722,2.471c.319.357.882.5,1.042.95.205.563-.372,1.072-.829,1.452-.76.646-.9,2.577.106,3.1.418.228,1.042.3,1.14.76s-.327.76-.608,1.057a1.992,1.992,0,0,0,.608,2.965c.243.114.54.205.631.456a.965.965,0,0,1-.061.563,3.04,3.04,0,0,0-.1,1.072.388.388,0,0,0,.449.426c1.452.068,2.151-.441,3.041.813a1,1,0,0,0,.3.319.927.927,0,0,0,.4.1c1,.084,1.642-.532,2.554-.654,1.262-.16,1.52.494,2.638,1.011C292.848,205.41,293.7,204.9,294.026,203.708Z" transform="translate(-66.999 -85.876)" fill="#f5f5f5"/>
      <path id="Path_97978" data-name="Path 97978" d="M272.077,201.337a5.011,5.011,0,0,0,.16-1.034c.129-2.144,2.174-1.8,3.915-2.091,1.361-.228-2.243-3.664.5-4.774a2.417,2.417,0,0,0,1.323-.92,1.558,1.558,0,0,0-.6-1.908,3.626,3.626,0,0,0-2.075-.517c-.449-.547-.084-1.368.35-1.923s.958-1.186.76-1.87c-.251-1.034-1.7-1.072-2.737-.867a7.6,7.6,0,0,1-.57-2.121c-.19-.707-.76-1.452-1.482-1.368s-1.1.859-1.779,1.019-1.46-.5-2.075-1.026-1.68-.844-2.106-.16c-.251.411-.1.981-.365,1.384-.456.7-1.52.266-2.2-.228s-1.741-.943-2.212-.258a2.97,2.97,0,0,0-.258.715c-.319.92-1.308,1.376-2.083,1.961s-1.384,1.756-.76,2.478c.327.35.889.494,1.049.943.2.563-.372,1.072-.829,1.46-.76.639-.9,2.569.106,3.1.418.22,1.034.289,1.14.76s-.327.76-.608,1.057a1.992,1.992,0,0,0,.608,2.965c.243.114.54.205.623.464a.882.882,0,0,1-.053.555,3.041,3.041,0,0,0-.1,1.072.525.525,0,0,0,.129.342.563.563,0,0,0,.319.091c1.444.061,2.144-.449,3.041.806a1.018,1.018,0,0,0,.3.319.814.814,0,0,0,.4.1c.988.084,1.642-.532,2.554-.654,1.254-.16,1.52.494,2.638,1.011C270.906,203.04,271.75,202.53,272.077,201.337Z" transform="translate(-61.722 -85.307)" fill="#f5f5f5"/>
      <path id="Path_97979" data-name="Path 97979" d="M269.978,187.387a5.011,5.011,0,0,0,.16-1.034c.122-2.144,2.174-1.8,3.915-2.091,1.361-.228-2.243-3.664.5-4.774a2.4,2.4,0,0,0,1.323-.927,1.558,1.558,0,0,0-.6-1.9,3.7,3.7,0,0,0-2.083-.525c-.449-.54-.084-1.361.35-1.916s.965-1.186.76-1.87c-.243-1.034-1.688-1.072-2.737-.874a7.29,7.29,0,0,1-.525-2.083c-.19-.707-.76-1.46-1.482-1.368s-1.11.859-1.779,1.019-1.46-.509-2.075-1.026-1.688-.844-2.106-.16c-.258.41-.106.981-.365,1.384-.456.7-1.52.266-2.212-.228s-1.733-.943-2.2-.258a2.7,2.7,0,0,0-.266.715c-.312.92-1.308,1.376-2.075,1.961s-1.384,1.756-.76,2.471c.319.357.889.5,1.049.95.2.563-.38,1.064-.836,1.452-.76.646-.889,2.577.114,3.1.418.22,1.034.289,1.14.76s-.334.76-.608,1.064a1.984,1.984,0,0,0,.608,2.965c.236.114.532.205.623.456a.966.966,0,0,1-.061.563,3.04,3.04,0,0,0-.091,1.072.38.38,0,0,0,.448.426c1.444.068,2.144-.449,3.041.813a1.019,1.019,0,0,0,.3.319.866.866,0,0,0,.4.1c1,.084,1.65-.54,2.554-.654,1.262-.16,1.52.494,2.646,1.011C268.8,189.082,269.651,188.581,269.978,187.387Z" transform="translate(-61.226 -81.97)" fill="#f5f5f5"/>
      <path id="Path_97980" data-name="Path 97980" d="M255.526,194.336a5.109,5.109,0,0,0,.152-1.034c.129-2.144,2.174-1.809,3.923-2.1,1.361-.228-2.243-3.664.494-4.774a2.44,2.44,0,0,0,1.33-.92,1.558,1.558,0,0,0-.6-1.9,3.641,3.641,0,0,0-2.083-.525c-.448-.547-.084-1.361.35-1.916s.965-1.194.76-1.878c-.243-1.034-1.7-1.072-2.737-.867a7.274,7.274,0,0,1-.563-2.121c-.19-.707-.76-1.452-1.482-1.361s-1.11.859-1.779,1.011-1.46-.5-2.075-1.026-1.688-.836-2.106-.152c-.258.4-.106.973-.365,1.376-.456.7-1.52.266-2.212-.228s-1.741-.943-2.212-.258a2.919,2.919,0,0,0-.258.76c-.319.912-1.308,1.368-2.075,1.961s-1.384,1.748-.76,2.471c.319.35.889.494,1.049.943.2.563-.38,1.072-.836,1.46-.76.646-.889,2.569.106,3.1.426.22,1.041.289,1.14.76s-.327.76-.608,1.057a1.992,1.992,0,0,0,.616,2.965c.236.114.532.213.623.464a.943.943,0,0,1-.061.555,2.865,2.865,0,0,0-.091,1.079.456.456,0,0,0,.129.335.509.509,0,0,0,.319.091c1.444.061,2.144-.449,3.041.813a1.1,1.1,0,0,0,.3.319.981.981,0,0,0,.4.1c1,.084,1.65-.54,2.554-.654,1.262-.167,1.52.487,2.638,1.011C254.347,196.031,255.2,195.522,255.526,194.336Z" transform="translate(-57.751 -83.628)" fill="#f5f5f5"/>
      <path id="Path_97981" data-name="Path 97981" d="M240.927,191.117a4.926,4.926,0,0,0,.16-1.034c.129-2.144,2.174-1.8,3.915-2.091,1.361-.228-2.243-3.664.5-4.774a2.417,2.417,0,0,0,1.323-.92,1.558,1.558,0,0,0-.6-1.908,3.626,3.626,0,0,0-2.075-.517c-.449-.547-.084-1.368.342-1.923s.965-1.186.806-1.87c-.251-1.034-1.7-1.072-2.744-.867a7.861,7.861,0,0,1-.563-2.121c-.19-.707-.76-1.452-1.52-1.368s-1.1.859-1.779,1.019-1.46-.5-2.075-1.026-1.68-.844-2.106-.16c-.251.411-.1.981-.365,1.384-.456.7-1.52.266-2.2-.228s-1.741-.943-2.212-.258a2.919,2.919,0,0,0-.258.722c-.319.912-1.308,1.368-2.083,1.954s-1.384,1.756-.76,2.478c.319.35.889.494,1.049.943.2.563-.372,1.072-.829,1.46-.76.639-.9,2.569.106,3.1.418.22,1.034.289,1.14.76s-.327.76-.608,1.057a1.992,1.992,0,0,0,.608,2.965c.243.114.54.213.623.464a.943.943,0,0,1-.053.555,2.843,2.843,0,0,0-.1,1.072.525.525,0,0,0,.129.342.563.563,0,0,0,.319.091c1.444.061,2.144-.449,3.041.806a1.019,1.019,0,0,0,.3.319.9.9,0,0,0,.4.106c.988.076,1.642-.54,2.547-.661,1.262-.16,1.52.494,2.646,1.019C239.741,192.82,240.6,192.326,240.927,191.117Z" transform="translate(-54.252 -82.856)" fill="#f5f5f5"/>
      <path id="Path_97982" data-name="Path 97982" d="M241.739,208.023a3.733,3.733,0,0,0,.122-.813c.106-1.688,1.718-1.422,3.086-1.65,1.072-.182-1.764-2.889.4-3.763a1.878,1.878,0,0,0,1.041-.76,1.216,1.216,0,0,0-.471-1.52,2.836,2.836,0,0,0-1.642-.411c-.35-.433-.061-1.079.281-1.52s.76-.935.623-1.475c-.19-.813-1.33-.844-2.151-.684a6.126,6.126,0,0,1-.449-1.665c-.144-.563-.593-1.148-1.163-1.079s-.874.677-1.4.8-1.156-.4-1.634-.806-1.33-.661-1.665-.122c-.2.319-.076.76-.281,1.087-.365.547-1.209.205-1.741-.182s-1.368-.76-1.741-.205a2.425,2.425,0,0,0-.205.57c-.251.722-1.026,1.079-1.634,1.52s-1.087,1.384-.578,1.946c.251.274.7.388.829.76s-.3.844-.654,1.148c-.6.5-.707,2.022.084,2.44.327.175.813.228.9.593s-.258.578-.479.836a1.566,1.566,0,0,0,.479,2.334c.19.091.426.16.494.357a.806.806,0,0,1-.046.441,2.281,2.281,0,0,0-.076.851.426.426,0,0,0,.1.266.479.479,0,0,0,.251.068c1.14.053,1.688-.357,2.387.639a.928.928,0,0,0,.236.251.76.76,0,0,0,.319.076c.76.068,1.292-.418,2.007-.509,1-.129,1.2.38,2.075.76C240.819,209.376,241.458,208.981,241.739,208.023Z" transform="translate(-55.208 -87.911)" fill="#f5f5f5"/>
      <path id="Path_97983" data-name="Path 97983" d="M232.569,201.33a5.011,5.011,0,0,0,.16-1.034c.129-2.144,2.174-1.8,3.915-2.091,1.361-.228-2.281-3.664.5-4.774a2.417,2.417,0,0,0,1.361-.943,1.566,1.566,0,0,0-.593-1.908,3.657,3.657,0,0,0-2.083-.517c-.449-.547-.084-1.368.35-1.923s.958-1.186.8-1.87c-.251-1.034-1.7-1.072-2.737-.867a7.6,7.6,0,0,1-.57-2.121c-.182-.707-.76-1.452-1.52-1.368s-1.1.859-1.779,1.019-1.46-.5-2.068-1.026-1.688-.844-2.113-.16c-.251.41-.1.981-.365,1.384-.456.7-1.52.266-2.2-.228s-1.741-.943-2.212-.258a2.971,2.971,0,0,0-.258.715c-.319.92-1.308,1.376-2.083,1.961s-1.384,1.756-.76,2.478c.327.35.889.494,1.049.943.2.563-.373,1.072-.829,1.46-.76.639-.9,2.569.106,3.1.418.22,1.034.289,1.14.76s-.327.76-.608,1.057a1.992,1.992,0,0,0,.608,2.965c.243.114.54.205.623.464a.882.882,0,0,1-.053.555,3.041,3.041,0,0,0-.1,1.072.525.525,0,0,0,.129.342.562.562,0,0,0,.319.091c1.444.061,2.144-.449,3.041.806a1.019,1.019,0,0,0,.3.319.829.829,0,0,0,.4.1c1,.084,1.642-.532,2.554-.654,1.262-.16,1.52.494,2.638,1.011C231.4,203.032,232.242,202.523,232.569,201.33Z" transform="translate(-52.257 -85.3)" fill="#f5f5f5"/>
      <path id="Path_97984" data-name="Path 97984" d="M255.526,177.158a5.033,5.033,0,0,0,.152-1.034c.129-2.144,2.174-1.8,3.923-2.091,1.361-.228-2.243-3.664.494-4.774a2.41,2.41,0,0,0,1.33-.927,1.558,1.558,0,0,0-.6-1.9,3.641,3.641,0,0,0-2.083-.517c-.449-.547-.084-1.368.35-1.923s.965-1.186.76-1.87c-.243-1.034-1.7-1.072-2.737-.874a7.291,7.291,0,0,1-.563-2.113c-.19-.707-.76-1.452-1.482-1.368s-1.11.859-1.779,1.019-1.46-.509-2.075-1.026-1.688-.844-2.106-.16c-.258.411-.106.981-.365,1.384-.456.7-1.52.266-2.212-.228s-1.741-.943-2.212-.258a2.973,2.973,0,0,0-.258.715c-.319.92-1.308,1.376-2.075,1.961s-1.384,1.756-.76,2.471c.319.357.889.5,1.049.95.2.563-.38,1.064-.836,1.452-.76.646-.889,2.577.106,3.1.426.228,1.041.289,1.14.76s-.327.76-.608,1.057a1.992,1.992,0,0,0,.616,2.965c.236.114.532.205.623.456a.966.966,0,0,1-.061.563,2.843,2.843,0,0,0-.015,1.11.456.456,0,0,0,.129.342.5.5,0,0,0,.319.084c1.444.068,2.144-.441,3.041.813a1.018,1.018,0,0,0,.3.319.866.866,0,0,0,.4.1c1,.084,1.65-.54,2.554-.654,1.262-.16,1.52.494,2.638,1.011C254.347,178.853,255.2,178.336,255.526,177.158Z" transform="translate(-57.751 -79.51)" fill="#f5f5f5"/>
      <path id="Path_97985" data-name="Path 97985" d="M274.283,178.118a5.092,5.092,0,0,0,.16-1.034c.122-2.144,2.174-1.8,3.915-2.1,1.361-.22-2.243-3.657.5-4.766a2.417,2.417,0,0,0,1.323-.927,1.558,1.558,0,0,0-.6-1.9,3.7,3.7,0,0,0-2.083-.525c-.448-.54-.084-1.361.35-1.916s.965-1.186.76-1.87c-.243-1.034-1.688-1.072-2.737-.874a7.29,7.29,0,0,1-.563-2.113c-.19-.715-.76-1.46-1.482-1.368s-1.072.836-1.756,1.019-1.46-.509-2.075-1.026-1.688-.844-2.106-.16c-.258.411-.106.981-.365,1.384-.456.7-1.52.266-2.212-.228s-1.741-.95-2.212-.258a2.869,2.869,0,0,0-.258.715c-.319.92-1.308,1.376-2.075,1.961s-1.384,1.756-.76,2.471c.319.357.889.5,1.049.95.2.563-.38,1.064-.836,1.452-.76.646-.889,2.577.106,3.1.426.22,1.042.289,1.14.76s-.327.76-.608,1.064a1.992,1.992,0,0,0,.616,2.965c.236.114.532.205.623.456a.965.965,0,0,1-.061.563,2.843,2.843,0,0,0-.091,1.072.472.472,0,0,0,.129.342.5.5,0,0,0,.319.084c1.444.068,2.144-.449,3.041.813a1.019,1.019,0,0,0,.3.319.867.867,0,0,0,.4.1c1,.084,1.65-.54,2.554-.654,1.262-.16,1.52.494,2.638,1.011C273.1,179.813,273.956,179.326,274.283,178.118Z" transform="translate(-62.255 -79.74)" fill="#f5f5f5"/>
      <path id="Path_97986" data-name="Path 97986" d="M285.678,185.787a4.954,4.954,0,0,0,.152-1.034c.129-2.144,2.174-1.8,3.923-2.091,1.361-.228-2.281-3.664.494-4.774a2.44,2.44,0,0,0,1.33-.92,1.574,1.574,0,0,0-.6-1.908,3.7,3.7,0,0,0-2.083-.517c-.448-.547-.084-1.361.35-1.923s.965-1.186.8-1.87c-.243-1.034-1.7-1.072-2.737-.867a7.344,7.344,0,0,1-.563-2.121c-.19-.707-.76-1.452-1.482-1.368s-1.11.859-1.779,1.019c-.76.19-1.46-.5-2.075-1.026s-1.688-.844-2.106-.16c-.258.411-.106.981-.365,1.384-.456.7-1.52.266-2.212-.228s-1.741-.943-2.212-.258a2.92,2.92,0,0,0-.258.722c-.319.912-1.308,1.368-2.075,1.954s-1.384,1.756-.76,2.478c.319.35.889.494,1.049.943s-.38,1.072-.836,1.46c-.76.639-.889,2.569.106,3.1.426.22,1.041.289,1.14.76s-.327.76-.608,1.057a1.992,1.992,0,0,0,.616,2.965c.236.114.532.213.623.464a.942.942,0,0,1-.061.555,2.867,2.867,0,0,0-.091,1.079.456.456,0,0,0,.129.335.563.563,0,0,0,.319.091c1.444.061,2.144-.449,3.041.806a1.041,1.041,0,0,0,.3.327.98.98,0,0,0,.4.1c1,.076,1.642-.54,2.554-.661,1.262-.16,1.52.494,2.638,1.019C284.5,187.49,285.351,186.98,285.678,185.787Z" transform="translate(-64.991 -81.578)" fill="#f5f5f5"/>
      <path id="Path_97987" data-name="Path 97987" d="M274.081,197.778s-3.626,5.124-4.873,6.743-7.488,11.738-8.362,18.427c-.091.715-.182,1.33-.266,1.863,2.684,17.728,2.281,89.316,2.167,94.873H250.735c1.315-54.841,2.706-102.627,2.433-104.4s-3.8-8.887-9.328-11.783-10.24-12.467-10.24-12.467h1.748s3.246,5.869,7.868,9.122a16.931,16.931,0,0,0,2.075,1.232,29.45,29.45,0,0,1,1.84-10.346l.943.874c-1.277,5.23-1.11,8.575-.722,10.5a19,19,0,0,1,4.782,3.2c4.789-6.234,7.48-20.525,7.48-20.525l1.232.677a72.974,72.974,0,0,1-1.589,8.735,144.121,144.121,0,0,1-4.766,13.79,32.619,32.619,0,0,1,3.619,6.8,2.768,2.768,0,0,1,.464-.555c3.124-2.828,8.993-16.162,8.993-16.162,1.414-3.094-.76-11.236-.76-11.236h1.634l.76,7.115,4.12-4.493.76.623L269.71,196l-2.281,7.123,5.869-6.5Z" transform="translate(-56.017 -86.195)" fill="#f5f5f5"/>
      <rect id="Rectangle_12869" data-name="Rectangle 12869" width="95.474" height="43.628" transform="translate(235.138 205.232)" fill="#f5f5f5"/>
      <rect id="Rectangle_12870" data-name="Rectangle 12870" width="49.033" height="43.628" transform="translate(235.138 205.232)" fill="#f0f0f0"/>
      <rect id="Rectangle_12871" data-name="Rectangle 12871" width="12.095" height="32.278" transform="translate(288.74 216.582)" fill="#e0e0e0"/>
      <rect id="Rectangle_12872" data-name="Rectangle 12872" width="10.985" height="32.278" transform="translate(288.74 216.582)" fill="#e0e0e0"/>
      <rect id="Rectangle_12873" data-name="Rectangle 12873" width="9.898" height="9.252" transform="translate(305.898 226.502)" fill="#e0e0e0"/>
      <rect id="Rectangle_12874" data-name="Rectangle 12874" width="9.898" height="9.252" transform="translate(305.898 216.582)" fill="#e0e0e0"/>
      <rect id="Rectangle_12875" data-name="Rectangle 12875" width="9.898" height="9.252" transform="translate(316.457 226.502)" fill="#e0e0e0"/>
      <rect id="Rectangle_12876" data-name="Rectangle 12876" width="9.898" height="9.252" transform="translate(316.457 216.582)" fill="#e0e0e0"/>
      <path id="Path_97988" data-name="Path 97988" d="M402.39,352.95h2.851l-2.478,9.259h-.372Z" transform="translate(-96.492 -126.448)" fill="#fff"/>
      <path id="Path_97989" data-name="Path 97989" d="M407.92,339.9l-2.478,9.252H402.5l2.478-9.252Z" transform="translate(-96.519 -123.318)" fill="#fff"/>
      <path id="Path_97990" data-name="Path 97990" d="M407.191,352.95h.973l-2.471,9.259h-.973Z" transform="translate(-97.051 -126.448)" fill="#fff"/>
      <path id="Path_97991" data-name="Path 97991" d="M411.661,339.9l-2.478,9.252h-.973l2.478-9.252Z" transform="translate(-97.888 -123.318)" fill="#fff"/>
      <path id="Path_97992" data-name="Path 97992" d="M421.348,352.95h2.942l-2.478,9.259H418.87Z" transform="translate(-100.444 -126.448)" fill="#fff"/>
      <path id="Path_97993" data-name="Path 97993" d="M427.638,339.9v.547l-2.326,8.7H422.37l2.478-9.252Z" transform="translate(-101.283 -123.318)" fill="#fff"/>
      <path id="Path_97994" data-name="Path 97994" d="M427.058,352.95h.973l-2.478,9.259h-.973Z" transform="translate(-101.813 -126.448)" fill="#fff"/>
      <path id="Path_97995" data-name="Path 97995" d="M429.005,347.49v3.482h-.935Z" transform="translate(-102.65 -125.138)" fill="#fff"/>
      <rect id="Rectangle_12877" data-name="Rectangle 12877" width="5.618" height="9.252" transform="translate(262.011 226.502)" fill="#e0e0e0"/>
      <rect id="Rectangle_12878" data-name="Rectangle 12878" width="5.618" height="9.252" transform="translate(262.011 216.582)" fill="#e0e0e0"/>
      <rect id="Rectangle_12879" data-name="Rectangle 12879" width="5.77" height="9.252" transform="translate(268.298 226.502)" fill="#e0e0e0"/>
      <rect id="Rectangle_12880" data-name="Rectangle 12880" width="5.77" height="9.252" transform="translate(268.298 216.582)" fill="#e0e0e0"/>
      <path id="Path_97996" data-name="Path 97996" d="M344.66,339.9v4.576l1.224-4.576Z" transform="translate(-82.649 -123.318)" fill="#fff"/>
      <path id="Path_97997" data-name="Path 97997" d="M344.66,352.95v3.512l.943-3.512Z" transform="translate(-82.649 -126.448)" fill="#fff"/>
      <path id="Path_97998" data-name="Path 97998" d="M348.311,339.9l-2.478,9.252h-.973l2.478-9.252Z" transform="translate(-82.697 -123.318)" fill="#fff"/>
      <path id="Path_97999" data-name="Path 97999" d="M359.321,352.95H358l-2.478,9.259h2.934l.867-3.223Z" transform="translate(-85.253 -126.448)" fill="#fff"/>
      <path id="Path_98000" data-name="Path 98000" d="M360.16,346.46l-1.14,4.265h1.14Z" transform="translate(-86.092 -124.891)" fill="#fff"/>
      <rect id="Rectangle_12881" data-name="Rectangle 12881" width="5.618" height="9.252" transform="translate(242.352 226.502)" fill="#e0e0e0"/>
      <rect id="Rectangle_12882" data-name="Rectangle 12882" width="5.618" height="9.252" transform="translate(242.352 216.582)" fill="#e0e0e0"/>
      <rect id="Rectangle_12883" data-name="Rectangle 12883" width="5.77" height="9.252" transform="translate(248.639 226.502)" fill="#e0e0e0"/>
      <rect id="Rectangle_12884" data-name="Rectangle 12884" width="5.77" height="9.252" transform="translate(248.639 216.582)" fill="#e0e0e0"/>
      <path id="Path_98001" data-name="Path 98001" d="M318.8,339.9v4.576l1.224-4.576Z" transform="translate(-76.448 -123.318)" fill="#fff"/>
      <path id="Path_98002" data-name="Path 98002" d="M318.8,352.95v3.512l.943-3.512Z" transform="translate(-76.448 -126.448)" fill="#fff"/>
      <path id="Path_98003" data-name="Path 98003" d="M322.451,339.9l-2.478,9.252H319l2.478-9.252Z" transform="translate(-76.496 -123.318)" fill="#fff"/>
      <path id="Path_98004" data-name="Path 98004" d="M333.461,352.95h-1.323l-2.478,9.259h2.934l.867-3.223Z" transform="translate(-79.052 -126.448)" fill="#fff"/>
      <path id="Path_98005" data-name="Path 98005" d="M334.3,346.46l-1.14,4.265h1.14Z" transform="translate(-79.891 -124.891)" fill="#fff"/>
      <rect id="Rectangle_12885" data-name="Rectangle 12885" width="14.391" height="1.817" transform="translate(240.551 213.503)" fill="#e6e6e6"/>
      <rect id="Rectangle_12886" data-name="Rectangle 12886" width="1.817" height="1.817" transform="translate(253.125 213.503)" fill="#e0e0e0"/>
      <rect id="Rectangle_12887" data-name="Rectangle 12887" width="14.391" height="1.817" transform="translate(260.21 213.503)" fill="#e6e6e6"/>
      <rect id="Rectangle_12888" data-name="Rectangle 12888" width="1.817" height="1.817" transform="translate(272.783 213.503)" fill="#e0e0e0"/>
      <rect id="Rectangle_12889" data-name="Rectangle 12889" width="24.22" height="1.817" transform="translate(328.658 215.32) rotate(180)" fill="#e6e6e6"/>
      <rect id="Rectangle_12890" data-name="Rectangle 12890" width="1.817" height="1.817" transform="translate(306.255 215.32) rotate(180)" fill="#e0e0e0"/>
      <path id="Path_98006" data-name="Path 98006" d="M371.547,290.11H331.91l-31.51,28.8H409l-1.095-.836Z" transform="translate(-72.035 -111.379)" fill="#e0e0e0"/>
      <path id="Path_98007" data-name="Path 98007" d="M341.85,290.11l24.19,27.96h51.808l-36.36-27.96Z" transform="translate(-81.975 -111.379)" fill="#e6e6e6"/>
      <rect id="Rectangle_12891" data-name="Rectangle 12891" width="109.766" height="2.828" transform="translate(227.202 205.619)" fill="#e0e0e0"/>
      <rect id="Rectangle_12892" data-name="Rectangle 12892" width="52.606" height="2.828" transform="translate(284.361 205.619)" fill="#e6e6e6"/>
      <path id="Path_98008" data-name="Path 98008" d="M408.07,381.06H297.324l-1.414.988H409.484Z" transform="translate(-70.959 -133.188)" fill="#e0e0e0"/>
      <rect id="Rectangle_12893" data-name="Rectangle 12893" width="95.474" height="43.628" transform="translate(143.914 205.232)" fill="#f5f5f5"/>
      <rect id="Rectangle_12894" data-name="Rectangle 12894" width="49.033" height="43.628" transform="translate(143.914 205.232)" fill="#f0f0f0"/>
      <rect id="Rectangle_12895" data-name="Rectangle 12895" width="12.095" height="32.278" transform="translate(197.516 216.582)" fill="#e0e0e0"/>
      <rect id="Rectangle_12896" data-name="Rectangle 12896" width="10.985" height="32.278" transform="translate(197.516 216.582)" fill="#e0e0e0"/>
      <rect id="Rectangle_12897" data-name="Rectangle 12897" width="9.898" height="9.252" transform="translate(214.673 226.502)" fill="#e0e0e0"/>
      <rect id="Rectangle_12898" data-name="Rectangle 12898" width="9.898" height="9.252" transform="translate(214.673 216.582)" fill="#e0e0e0"/>
      <rect id="Rectangle_12899" data-name="Rectangle 12899" width="9.898" height="9.252" transform="translate(225.233 226.502)" fill="#e0e0e0"/>
      <rect id="Rectangle_12900" data-name="Rectangle 12900" width="9.898" height="9.252" transform="translate(225.233 216.582)" fill="#e0e0e0"/>
      <path id="Path_98009" data-name="Path 98009" d="M282.39,352.95h2.851l-2.478,9.259h-.372Z" transform="translate(-67.717 -126.448)" fill="#fff"/>
      <path id="Path_98010" data-name="Path 98010" d="M287.92,339.9l-2.478,9.252H282.5l2.478-9.252Z" transform="translate(-67.743 -123.318)" fill="#fff"/>
      <path id="Path_98011" data-name="Path 98011" d="M287.191,352.95h.973l-2.471,9.259h-.973Z" transform="translate(-68.275 -126.448)" fill="#fff"/>
      <path id="Path_98012" data-name="Path 98012" d="M291.661,339.9l-2.478,9.252h-.973l2.478-9.252Z" transform="translate(-69.112 -123.318)" fill="#fff"/>
      <path id="Path_98013" data-name="Path 98013" d="M301.348,352.95h2.942l-2.478,9.259H298.87Z" transform="translate(-71.668 -126.448)" fill="#fff"/>
      <path id="Path_98014" data-name="Path 98014" d="M307.638,339.9v.547l-2.326,8.7H302.37l2.478-9.252Z" transform="translate(-72.508 -123.318)" fill="#fff"/>
      <path id="Path_98015" data-name="Path 98015" d="M307.058,352.95h.973l-2.478,9.259h-.973Z" transform="translate(-73.038 -126.448)" fill="#fff"/>
      <path id="Path_98016" data-name="Path 98016" d="M309.005,347.49v3.482h-.935Z" transform="translate(-73.875 -125.138)" fill="#fff"/>
      <rect id="Rectangle_12901" data-name="Rectangle 12901" width="5.618" height="9.252" transform="translate(170.787 226.502)" fill="#e0e0e0"/>
      <rect id="Rectangle_12902" data-name="Rectangle 12902" width="5.618" height="9.252" transform="translate(170.787 216.582)" fill="#e0e0e0"/>
      <rect id="Rectangle_12903" data-name="Rectangle 12903" width="5.77" height="9.252" transform="translate(177.074 226.502)" fill="#e0e0e0"/>
      <rect id="Rectangle_12904" data-name="Rectangle 12904" width="5.77" height="9.252" transform="translate(177.074 216.582)" fill="#e0e0e0"/>
      <path id="Path_98017" data-name="Path 98017" d="M224.66,339.9v4.576l1.224-4.576Z" transform="translate(-53.873 -123.318)" fill="#fff"/>
      <path id="Path_98018" data-name="Path 98018" d="M224.66,352.95v3.512l.943-3.512Z" transform="translate(-53.873 -126.448)" fill="#fff"/>
      <path id="Path_98019" data-name="Path 98019" d="M228.311,339.9l-2.478,9.252h-.973l2.478-9.252Z" transform="translate(-53.921 -123.318)" fill="#fff"/>
      <path id="Path_98020" data-name="Path 98020" d="M239.321,352.95H238l-2.478,9.259h2.934l.867-3.223Z" transform="translate(-56.477 -126.448)" fill="#fff"/>
      <path id="Path_98021" data-name="Path 98021" d="M240.16,346.46l-1.14,4.265h1.14Z" transform="translate(-57.316 -124.891)" fill="#fff"/>
      <rect id="Rectangle_12905" data-name="Rectangle 12905" width="5.618" height="9.252" transform="translate(151.128 226.502)" fill="#e0e0e0"/>
      <rect id="Rectangle_12906" data-name="Rectangle 12906" width="5.618" height="9.252" transform="translate(151.128 216.582)" fill="#e0e0e0"/>
      <rect id="Rectangle_12907" data-name="Rectangle 12907" width="5.77" height="9.252" transform="translate(157.415 226.502)" fill="#e0e0e0"/>
      <rect id="Rectangle_12908" data-name="Rectangle 12908" width="5.77" height="9.252" transform="translate(157.415 216.582)" fill="#e0e0e0"/>
      <path id="Path_98022" data-name="Path 98022" d="M198.8,339.9v4.576l1.224-4.576Z" transform="translate(-47.672 -123.318)" fill="#fff"/>
      <path id="Path_98023" data-name="Path 98023" d="M198.8,352.95v3.512l.943-3.512Z" transform="translate(-47.672 -126.448)" fill="#fff"/>
      <path id="Path_98024" data-name="Path 98024" d="M202.451,339.9l-2.478,9.252H199l2.478-9.252Z" transform="translate(-47.72 -123.318)" fill="#fff"/>
      <path id="Path_98025" data-name="Path 98025" d="M213.461,352.95h-1.323l-2.478,9.259H212.6l.859-3.223Z" transform="translate(-50.276 -126.448)" fill="#fff"/>
      <path id="Path_98026" data-name="Path 98026" d="M214.3,346.46l-1.14,4.265h1.14Z" transform="translate(-51.115 -124.891)" fill="#fff"/>
      <rect id="Rectangle_12909" data-name="Rectangle 12909" width="14.391" height="1.817" transform="translate(149.327 213.503)" fill="#e6e6e6"/>
      <rect id="Rectangle_12910" data-name="Rectangle 12910" width="1.817" height="1.817" transform="translate(161.9 213.503)" fill="#e0e0e0"/>
      <rect id="Rectangle_12911" data-name="Rectangle 12911" width="14.391" height="1.817" transform="translate(168.985 213.503)" fill="#e6e6e6"/>
      <rect id="Rectangle_12912" data-name="Rectangle 12912" width="1.817" height="1.817" transform="translate(181.559 213.503)" fill="#e0e0e0"/>
      <rect id="Rectangle_12913" data-name="Rectangle 12913" width="24.22" height="1.817" transform="translate(237.434 215.32) rotate(180)" fill="#e6e6e6"/>
      <rect id="Rectangle_12914" data-name="Rectangle 12914" width="1.817" height="1.817" transform="translate(215.031 215.32) rotate(180)" fill="#e0e0e0"/>
      <path id="Path_98027" data-name="Path 98027" d="M251.547,290.11H211.91l-31.51,28.8H289l-1.095-.836Z" transform="translate(-43.26 -111.379)" fill="#e0e0e0"/>
      <path id="Path_98028" data-name="Path 98028" d="M221.85,290.11l24.19,27.96h51.808l-36.36-27.96Z" transform="translate(-53.199 -111.379)" fill="#e6e6e6"/>
      <rect id="Rectangle_12915" data-name="Rectangle 12915" width="109.766" height="2.828" transform="translate(135.977 205.619)" fill="#e0e0e0"/>
      <rect id="Rectangle_12916" data-name="Rectangle 12916" width="52.606" height="2.828" transform="translate(193.137 205.619)" fill="#e6e6e6"/>
      <path id="Path_98029" data-name="Path 98029" d="M288.07,381.06H177.324l-1.414.988H289.484Z" transform="translate(-42.183 -133.188)" fill="#e0e0e0"/>
      <rect id="Rectangle_12917" data-name="Rectangle 12917" width="95.474" height="43.628" transform="translate(52.69 205.232)" fill="#f5f5f5"/>
      <rect id="Rectangle_12918" data-name="Rectangle 12918" width="49.033" height="43.628" transform="translate(52.69 205.232)" fill="#f0f0f0"/>
      <rect id="Rectangle_12919" data-name="Rectangle 12919" width="12.095" height="32.278" transform="translate(106.291 216.582)" fill="#e0e0e0"/>
      <rect id="Rectangle_12920" data-name="Rectangle 12920" width="10.985" height="32.278" transform="translate(106.291 216.582)" fill="#e0e0e0"/>
      <rect id="Rectangle_12921" data-name="Rectangle 12921" width="9.898" height="9.252" transform="translate(123.449 226.502)" fill="#e0e0e0"/>
      <rect id="Rectangle_12922" data-name="Rectangle 12922" width="9.898" height="9.252" transform="translate(123.449 216.582)" fill="#e0e0e0"/>
      <rect id="Rectangle_12923" data-name="Rectangle 12923" width="9.898" height="9.252" transform="translate(134.008 226.502)" fill="#e0e0e0"/>
      <rect id="Rectangle_12924" data-name="Rectangle 12924" width="9.898" height="9.252" transform="translate(134.008 216.582)" fill="#e0e0e0"/>
      <path id="Path_98030" data-name="Path 98030" d="M162.39,352.95h2.851l-2.478,9.259h-.372Z" transform="translate(-38.941 -126.448)" fill="#fff"/>
      <path id="Path_98031" data-name="Path 98031" d="M167.92,339.9l-2.478,9.252H162.5l2.478-9.252Z" transform="translate(-38.967 -123.318)" fill="#fff"/>
      <path id="Path_98032" data-name="Path 98032" d="M167.191,352.95h.973l-2.471,9.259h-.973Z" transform="translate(-39.499 -126.448)" fill="#fff"/>
      <path id="Path_98033" data-name="Path 98033" d="M171.661,339.9l-2.478,9.252h-.973l2.478-9.252Z" transform="translate(-40.336 -123.318)" fill="#fff"/>
      <path id="Path_98034" data-name="Path 98034" d="M181.348,352.95h2.942l-2.478,9.259H178.87Z" transform="translate(-42.893 -126.448)" fill="#fff"/>
      <path id="Path_98035" data-name="Path 98035" d="M187.638,339.9v.547l-2.326,8.7H182.37l2.478-9.252Z" transform="translate(-43.732 -123.318)" fill="#fff"/>
      <path id="Path_98036" data-name="Path 98036" d="M187.058,352.95h.973l-2.478,9.259h-.973Z" transform="translate(-44.262 -126.448)" fill="#fff"/>
      <path id="Path_98037" data-name="Path 98037" d="M189.005,347.49v3.482h-.935Z" transform="translate(-45.099 -125.138)" fill="#fff"/>
      <rect id="Rectangle_12925" data-name="Rectangle 12925" width="5.618" height="9.252" transform="translate(79.563 226.502)" fill="#e0e0e0"/>
      <rect id="Rectangle_12926" data-name="Rectangle 12926" width="5.618" height="9.252" transform="translate(79.563 216.582)" fill="#e0e0e0"/>
      <rect id="Rectangle_12927" data-name="Rectangle 12927" width="5.77" height="9.252" transform="translate(85.85 226.502)" fill="#e0e0e0"/>
      <rect id="Rectangle_12928" data-name="Rectangle 12928" width="5.77" height="9.252" transform="translate(85.85 216.582)" fill="#e0e0e0"/>
      <path id="Path_98038" data-name="Path 98038" d="M104.66,339.9v4.576l1.224-4.576Z" transform="translate(-25.097 -123.318)" fill="#fff"/>
      <path id="Path_98039" data-name="Path 98039" d="M104.66,352.95v3.512l.943-3.512Z" transform="translate(-25.097 -126.448)" fill="#fff"/>
      <path id="Path_98040" data-name="Path 98040" d="M108.311,339.9l-2.478,9.252h-.973l2.478-9.252Z" transform="translate(-25.145 -123.318)" fill="#fff"/>
      <path id="Path_98041" data-name="Path 98041" d="M119.321,352.95H118l-2.478,9.259h2.934l.867-3.223Z" transform="translate(-27.701 -126.448)" fill="#fff"/>
      <path id="Path_98042" data-name="Path 98042" d="M120.16,346.46l-1.14,4.265h1.14Z" transform="translate(-28.541 -124.891)" fill="#fff"/>
      <rect id="Rectangle_12929" data-name="Rectangle 12929" width="5.618" height="9.252" transform="translate(59.904 226.502)" fill="#e0e0e0"/>
      <rect id="Rectangle_12930" data-name="Rectangle 12930" width="5.618" height="9.252" transform="translate(59.904 216.582)" fill="#e0e0e0"/>
      <rect id="Rectangle_12931" data-name="Rectangle 12931" width="5.77" height="9.252" transform="translate(66.191 226.502)" fill="#e0e0e0"/>
      <rect id="Rectangle_12932" data-name="Rectangle 12932" width="5.77" height="9.252" transform="translate(66.191 216.582)" fill="#e0e0e0"/>
      <path id="Path_98043" data-name="Path 98043" d="M78.8,339.9v4.576l1.224-4.576Z" transform="translate(-18.896 -123.318)" fill="#fff"/>
      <path id="Path_98044" data-name="Path 98044" d="M78.8,352.95v3.512l.943-3.512Z" transform="translate(-18.896 -126.448)" fill="#fff"/>
      <path id="Path_98045" data-name="Path 98045" d="M82.451,339.9l-2.478,9.252H79l2.478-9.252Z" transform="translate(-18.944 -123.318)" fill="#fff"/>
      <path id="Path_98046" data-name="Path 98046" d="M93.461,352.95H92.138l-2.478,9.259H92.6l.859-3.223Z" transform="translate(-21.5 -126.448)" fill="#fff"/>
      <path id="Path_98047" data-name="Path 98047" d="M94.3,346.46l-1.14,4.265H94.3Z" transform="translate(-22.34 -124.891)" fill="#fff"/>
      <rect id="Rectangle_12933" data-name="Rectangle 12933" width="14.391" height="1.817" transform="translate(58.102 213.503)" fill="#e6e6e6"/>
      <rect id="Rectangle_12934" data-name="Rectangle 12934" width="1.817" height="1.817" transform="translate(70.676 213.503)" fill="#e0e0e0"/>
      <rect id="Rectangle_12935" data-name="Rectangle 12935" width="14.391" height="1.817" transform="translate(77.761 213.503)" fill="#e6e6e6"/>
      <rect id="Rectangle_12936" data-name="Rectangle 12936" width="1.817" height="1.817" transform="translate(90.335 213.503)" fill="#e0e0e0"/>
      <rect id="Rectangle_12937" data-name="Rectangle 12937" width="24.22" height="1.817" transform="translate(146.21 215.32) rotate(180)" fill="#e6e6e6"/>
      <rect id="Rectangle_12938" data-name="Rectangle 12938" width="1.817" height="1.817" transform="translate(123.807 215.32) rotate(180)" fill="#e0e0e0"/>
      <path id="Path_98048" data-name="Path 98048" d="M131.547,290.11H91.91l-31.51,28.8H169l-1.095-.836Z" transform="translate(-14.484 -111.379)" fill="#e0e0e0"/>
      <path id="Path_98049" data-name="Path 98049" d="M101.85,290.11l24.19,27.96h51.808l-36.36-27.96Z" transform="translate(-24.423 -111.379)" fill="#e6e6e6"/>
      <rect id="Rectangle_12939" data-name="Rectangle 12939" width="109.766" height="2.828" transform="translate(44.753 205.619)" fill="#e0e0e0"/>
      <rect id="Rectangle_12940" data-name="Rectangle 12940" width="52.606" height="2.828" transform="translate(101.913 205.619)" fill="#e6e6e6"/>
      <path id="Path_98050" data-name="Path 98050" d="M168.07,381.06H57.324l-1.414.988H169.484Z" transform="translate(-13.407 -133.188)" fill="#e0e0e0"/>
    </g>
    <g id="freepik--Shadow--inject-28" transform="translate(42.655 321.01)">
      <ellipse id="freepik--path--inject-28" cx="147.396" cy="8.605" rx="147.396" ry="8.605" transform="translate(0 0)" fill="#f5f5f5"/>
    </g>
    <g id="freepik--House--inject-28" transform="translate(60.885 209.275)">
      <path id="Path_98051" data-name="Path 98051" d="M95.5,287.635l27.725-28.865h58.558l30.545,28.865Z" transform="translate(-83.785 -258.139)" fill="#fff"/>
      <path id="Path_98052" data-name="Path 98052" d="M123.225,257.94l34.43,30.788L95.5,286.8Z" transform="translate(-83.785 -257.94)" opacity="0.1"/>
      <rect id="Rectangle_12941" data-name="Rectangle 12941" width="103.813" height="37.486" transform="translate(11.084 32.962)" fill="#fff"/>
      <rect id="Rectangle_12942" data-name="Rectangle 12942" width="103.813" height="37.486" transform="translate(11.084 32.962)" fill="#fff" opacity="0.8"/>
      <rect id="Rectangle_12943" data-name="Rectangle 12943" width="61.166" height="37.486" transform="translate(11.084 32.962)" opacity="0.05"/>
      <rect id="Rectangle_12944" data-name="Rectangle 12944" width="59.775" height="22.084" transform="translate(51.542 38.299)" fill="#fff"/>
      <path id="Path_98053" data-name="Path 98053" d="M147.89,308.32V330.4h59.767V308.32Zm57.342,20H150.011V310.775h55.221Z" transform="translate(-96.348 -270.021)" fill="#fff" opacity="0.1"/>
      <rect id="Rectangle_12945" data-name="Rectangle 12945" width="22.57" height="22.084" transform="translate(51.542 38.299)" opacity="0.1"/>
      <rect id="Rectangle_12946" data-name="Rectangle 12946" width="50.629" height="17.165" transform="translate(55.662 40.754)" fill="#fff"/>
      <rect id="Rectangle_12947" data-name="Rectangle 12947" width="50.637" height="17.165" transform="translate(55.662 40.762)" fill="#fff" opacity="0.5"/>
      <rect id="Rectangle_12948" data-name="Rectangle 12948" width="16.846" height="17.165" transform="translate(55.662 40.754)" opacity="0.05"/>
      <path id="Path_98054" data-name="Path 98054" d="M168.181,311.56l-4.6,17.165H157.31l4.6-17.165Z" transform="translate(-98.607 -270.798)" fill="#fff" opacity="0.3"/>
      <path id="Path_98055" data-name="Path 98055" d="M217.762,311.56v15.022l-.578,2.144H210.92l4.592-17.165Z" transform="translate(-111.463 -270.798)" fill="#fff" opacity="0.3"/>
      <path id="Path_98056" data-name="Path 98056" d="M174.491,311.56,169.9,328.725H168.09l4.592-17.165Z" transform="translate(-101.192 -270.798)" fill="#fff" opacity="0.3"/>
      <path id="Path_98057" data-name="Path 98057" d="M212.894,311.56l-4.6,17.165h-.9l4.592-17.165Z" transform="translate(-110.616 -270.798)" fill="#fff" opacity="0.3"/>
      <rect id="Rectangle_12949" data-name="Rectangle 12949" width="30.598" height="17.272" transform="translate(11.023 40.861)"/>
      <rect id="Rectangle_12950" data-name="Rectangle 12950" width="30.598" height="17.272" transform="translate(11.023 40.861)" fill="#fff"/>
      <rect id="Rectangle_12951" data-name="Rectangle 12951" width="30.598" height="17.272" transform="translate(11.023 40.861)" fill="#fff" opacity="0.5"/>
      <path id="Path_98058" data-name="Path 98058" d="M94.59,311.69v15.234l4.075-15.234Z" transform="translate(-83.567 -270.829)" fill="#fff" opacity="0.3"/>
      <path id="Path_98059" data-name="Path 98059" d="M103.47,311.69l-4.622,17.272H96.78L101.4,311.69Z" transform="translate(-84.092 -270.829)" fill="#fff" opacity="0.3"/>
      <path id="Path_98060" data-name="Path 98060" d="M201.332,334.13H162.79v1.239h1.756v11.624h.95v-.684h12.581v.684h.943v-.684H191.6v.684h.95v-.684h12.8v.684h.927v-.684h12.581v.684h.95v-.684h12.581v.684h.943V335.369H235.1V334.13Zm-23.255,11.852H165.5v-1.239h12.581Zm0-1.566H165.5v-1.262h12.581Zm0-1.566H165.5v-1.216h12.581Zm0-1.566H165.5v-1.247h12.581Zm0-1.566H165.5v-1.247h12.581Zm0-1.566H165.5V336.9h12.581Zm0-1.566H165.5v-1.216h12.581Zm13.524,9.4H179.02v-1.239H191.6Zm0-1.566H179.02v-1.262H191.6Zm0-1.566H179.02v-1.216H191.6Zm0-1.566H179.02v-1.247H191.6Zm0-1.566H179.02v-1.247H191.6Zm0-1.566H179.02V336.9H191.6Zm0-1.566H179.02v-1.216H191.6Zm13.752,9.4h-12.8v-1.239h12.8Zm0-1.566h-12.8v-1.262h12.8Zm0-1.566h-12.8v-1.216h12.8Zm0-1.566h-12.8v-1.247h12.8Zm0-1.566h-12.8v-1.247h12.8Zm0-1.566h-12.8V336.9h12.8Zm0-1.566h-12.8v-1.216h12.8Zm13.524,9.4h-12.6v-1.239h12.581Zm0-1.566h-12.6v-1.262h12.581Zm0-1.566h-12.6v-1.216h12.581Zm0-1.566h-12.6v-1.247h12.581Zm0-1.566h-12.6v-1.247h12.581Zm0-1.566h-12.6V336.9h12.581Zm0-1.566h-12.6v-1.216h12.581Zm13.532,9.4H219.828v-1.239h12.581Zm0-1.566H219.828v-1.262h12.581Zm0-1.566H219.828v-1.216h12.581Zm0-1.566H219.828v-1.247h12.581Zm0-1.566H219.828v-1.247h12.581Zm0-1.566H219.828V336.9h12.581Zm0-1.566H219.828v-1.216h12.581Z" transform="translate(-99.921 -276.21)" fill="#fff"/>
      <path id="Path_98061" data-name="Path 98061" d="M201.332,334.13H162.79v1.239h1.756v11.624h.95v-.684h12.581v.684h.943v-.684H191.6v.684h.95v-.684h12.8v.684h.927v-.684h12.581v.684h.95v-.684h12.581v.684h.943V335.369H235.1V334.13Zm-23.255,11.852H165.5v-1.239h12.581Zm0-1.566H165.5v-1.262h12.581Zm0-1.566H165.5v-1.216h12.581Zm0-1.566H165.5v-1.247h12.581Zm0-1.566H165.5v-1.247h12.581Zm0-1.566H165.5V336.9h12.581Zm0-1.566H165.5v-1.216h12.581Zm13.524,9.4H179.02v-1.239H191.6Zm0-1.566H179.02v-1.262H191.6Zm0-1.566H179.02v-1.216H191.6Zm0-1.566H179.02v-1.247H191.6Zm0-1.566H179.02v-1.247H191.6Zm0-1.566H179.02V336.9H191.6Zm0-1.566H179.02v-1.216H191.6Zm13.752,9.4h-12.8v-1.239h12.8Zm0-1.566h-12.8v-1.262h12.8Zm0-1.566h-12.8v-1.216h12.8Zm0-1.566h-12.8v-1.247h12.8Zm0-1.566h-12.8v-1.247h12.8Zm0-1.566h-12.8V336.9h12.8Zm0-1.566h-12.8v-1.216h12.8Zm13.524,9.4h-12.6v-1.239h12.581Zm0-1.566h-12.6v-1.262h12.581Zm0-1.566h-12.6v-1.216h12.581Zm0-1.566h-12.6v-1.247h12.581Zm0-1.566h-12.6v-1.247h12.581Zm0-1.566h-12.6V336.9h12.581Zm0-1.566h-12.6v-1.216h12.581Zm13.532,9.4H219.828v-1.239h12.581Zm0-1.566H219.828v-1.262h12.581Zm0-1.566H219.828v-1.216h12.581Zm0-1.566H219.828v-1.247h12.581Zm0-1.566H219.828v-1.247h12.581Zm0-1.566H219.828V336.9h12.581Zm0-1.566H219.828v-1.216h12.581Z" transform="translate(-99.921 -276.21)" fill="#fff" opacity="0.3"/>
      <rect id="Rectangle_12952" data-name="Rectangle 12952" width="40.283" height="43.818" transform="translate(91.855 72.729)" fill="#fff"/>
      <rect id="Rectangle_12953" data-name="Rectangle 12953" width="40.283" height="43.818" transform="translate(91.855 72.729)" fill="#fff" opacity="0.3"/>
      <rect id="Rectangle_12954" data-name="Rectangle 12954" width="8.453" height="46.167" transform="translate(5.952 70.448)" fill="#fff"/>
      <rect id="Rectangle_12955" data-name="Rectangle 12955" width="8.453" height="46.167" transform="translate(5.952 70.448)" fill="#fff" opacity="0.3"/>
      <rect id="Rectangle_12956" data-name="Rectangle 12956" width="5.375" height="41.887" transform="translate(9.031 74.728)" fill="#fff" opacity="0.2"/>
      <rect id="Rectangle_12957" data-name="Rectangle 12957" width="103.882" height="44.7" transform="translate(11.084 71.915)" fill="#fff"/>
      <rect id="Rectangle_12958" data-name="Rectangle 12958" width="103.882" height="44.7" transform="translate(11.084 71.915)" fill="#fff" opacity="0.8"/>
      <rect id="Rectangle_12959" data-name="Rectangle 12959" width="53.351" height="44.7" transform="translate(11.084 71.915)" opacity="0.05"/>
      <rect id="Rectangle_12960" data-name="Rectangle 12960" width="20.024" height="17.272" transform="translate(35.783 81.494)"/>
      <rect id="Rectangle_12961" data-name="Rectangle 12961" width="18.739" height="17.272" transform="translate(15.827 81.494)"/>
      <rect id="Rectangle_12962" data-name="Rectangle 12962" width="18.739" height="17.272" transform="translate(15.827 81.494)" fill="#fff"/>
      <rect id="Rectangle_12963" data-name="Rectangle 12963" width="20.024" height="17.272" transform="translate(35.783 81.494)" fill="#fff"/>
      <rect id="Rectangle_12964" data-name="Rectangle 12964" width="20.024" height="17.272" transform="translate(35.783 81.494)" fill="#fff" opacity="0.5"/>
      <rect id="Rectangle_12965" data-name="Rectangle 12965" width="18.739" height="17.272" transform="translate(15.827 81.494)" fill="#fff" opacity="0.5"/>
      <path id="Path_98062" data-name="Path 98062" d="M113.939,365.14l-4.63,17.272h-7.2l4.622-17.272Z" transform="translate(-85.37 -283.646)" fill="#fff" opacity="0.3"/>
      <path id="Path_98063" data-name="Path 98063" d="M121.18,365.14l-4.622,17.272H114.49l4.622-17.272Z" transform="translate(-88.339 -283.646)" fill="#fff" opacity="0.3"/>
      <path id="Path_98064" data-name="Path 98064" d="M152.188,367.41v15.546H148.03Z" transform="translate(-96.382 -284.191)" fill="#fff" opacity="0.3"/>
      <path id="Path_98065" data-name="Path 98065" d="M225.1,381.462V364.19h3.672v-3.01H201.66v23.338h27.109v-3.056Z" transform="translate(-109.242 -282.697)" fill="#fff"/>
      <rect id="Rectangle_12966" data-name="Rectangle 12966" width="18.739" height="17.272" transform="translate(97.906 81.494)"/>
      <rect id="Rectangle_12967" data-name="Rectangle 12967" width="18.739" height="17.272" transform="translate(97.906 81.494)" fill="#fff"/>
      <rect id="Rectangle_12968" data-name="Rectangle 12968" width="18.739" height="17.272" transform="translate(97.906 81.494)" fill="#fff" opacity="0.5"/>
      <path id="Path_98066" data-name="Path 98066" d="M221.9,365.14l-4.622,17.272h-7.2L214.7,365.14Z" transform="translate(-111.261 -283.646)" fill="#fff" opacity="0.3"/>
      <path id="Path_98067" data-name="Path 98067" d="M229.147,365.14l-4.622,17.272H222.45l4.622-17.272Z" transform="translate(-114.228 -283.646)" fill="#fff" opacity="0.3"/>
      <rect id="Rectangle_12969" data-name="Rectangle 12969" width="2.562" height="23.338" transform="translate(92.41 78.483)" opacity="0.1"/>
      <rect id="Rectangle_12970" data-name="Rectangle 12970" width="13.159" height="35.121" transform="translate(69.406 81.494)" fill="#fff"/>
      <rect id="Rectangle_12971" data-name="Rectangle 12971" width="11.95" height="35.121" transform="translate(69.406 81.494)" fill="#fff" opacity="0.1"/>
      <rect id="Rectangle_12972" data-name="Rectangle 12972" width="2.615" height="11.061" transform="translate(77.335 83.858)" fill="#fff" opacity="0.2"/>
      <rect id="Rectangle_12973" data-name="Rectangle 12973" width="6.766" height="42.29" transform="translate(128.246 74.325)" fill="#fff"/>
      <rect id="Rectangle_12974" data-name="Rectangle 12974" width="6.766" height="42.29" transform="translate(128.246 74.325)" fill="#fff" opacity="0.3"/>
      <rect id="Rectangle_12975" data-name="Rectangle 12975" width="3.383" height="42.29" transform="translate(131.621 74.325)" fill="#fff" opacity="0.2"/>
      <rect id="Rectangle_12976" data-name="Rectangle 12976" width="125.464" height="4.394" transform="translate(9.541 70.448)" fill="#fff"/>
      <rect id="Rectangle_12977" data-name="Rectangle 12977" width="125.464" height="4.394" transform="translate(9.541 70.448)" fill="#fff" opacity="0.3"/>
      <rect id="Rectangle_12978" data-name="Rectangle 12978" width="47.201" height="4.394" transform="translate(87.811 70.448)" fill="#fff" opacity="0.2"/>
      <rect id="Rectangle_12979" data-name="Rectangle 12979" width="127.425" height="4.394" transform="translate(5.945 28.591)" fill="#fff"/>
      <rect id="Rectangle_12980" data-name="Rectangle 12980" width="127.425" height="4.394" transform="translate(5.945 28.591)" fill="#fff" opacity="0.3"/>
      <rect id="Rectangle_12981" data-name="Rectangle 12981" width="49.155" height="4.394" transform="translate(84.215 28.591)" fill="#fff" opacity="0.2"/>
      <path id="Path_98068" data-name="Path 98068" d="M218.751,409.92H81.626L80.09,411h140.2Z" transform="translate(-80.09 -294.384)" fill="#fff"/>
    </g>
    <g id="freepik--Sign--inject-28" transform="translate(81.851 103.577)">
      <rect id="Rectangle_12982" data-name="Rectangle 12982" width="94.653" height="58.323" rx="5.8" fill="#fff"/>
      <rect id="Rectangle_12983" data-name="Rectangle 12983" width="94.653" height="58.323" rx="5.8" fill="#fff" opacity="0.6"/>
      <path id="Path_98069" data-name="Path 98069" d="M170.122,244.375v-52.2H168.6v52.2a1.8,1.8,0,1,0,1.52,0Z" transform="translate(-122.031 -136.472)" fill="#fff"/>
      <path id="Path_98070" data-name="Path 98070" d="M170.122,244.375v-52.2H168.6v52.2a1.8,1.8,0,1,0,1.52,0Z" transform="translate(-122.031 -136.472)" fill="#fff" opacity="0.6"/>
    </g>
    <g id="freepik--Texts--inject-28" transform="translate(89.187 112.509)">
      <path id="Path_98071" data-name="Path 98071" d="M210.641,151.652H177.557a.9.9,0,0,1-.9-.9h0a.9.9,0,0,1,.9-.9h33.084a.9.9,0,0,1,.9.9h0a.9.9,0,0,1-.9.9Z" transform="translate(-131.55 -135.254)" fill="#fff"/>
      <path id="Path_98072" data-name="Path 98072" d="M210.641,161.952H177.557a.9.9,0,0,1-.9-.9h0a.9.9,0,0,1,.9-.9h33.084a.9.9,0,0,1,.9.9h0A.9.9,0,0,1,210.641,161.952Z" transform="translate(-131.55 -137.724)" fill="#fff"/>
      <path id="Path_98073" data-name="Path 98073" d="M210.641,172.249H177.557a.9.9,0,0,1-.9-.9h0a.9.9,0,0,1,.9-.9h33.084a.9.9,0,0,1,.9.9h0A.9.9,0,0,1,210.641,172.249Z" transform="translate(-131.55 -140.191)" fill="#fff"/>
      <path id="Path_98074" data-name="Path 98074" d="M210.641,182.542H177.557a.9.9,0,0,1-.9-.9h0a.9.9,0,0,1,.9-.9h33.084a.9.9,0,0,1,.9.9h0a.9.9,0,0,1-.9.9Z" transform="translate(-131.55 -142.661)" fill="#fff"/>
      <path id="Path_98075" data-name="Path 98075" d="M118.41,130.708h2.106a2.592,2.592,0,1,1,0,5.169H118.41Zm2.075,4.69a2.113,2.113,0,1,0,0-4.219h-1.52V135.4Z" transform="translate(-117.581 -130.662)" fill="#fff"/>
      <path id="Path_98076" data-name="Path 98076" d="M130.079,135.4v.479H126.43V130.71h3.535v.471h-3v1.84h2.676v.464H126.97V135.4Z" transform="translate(-119.505 -130.664)" fill="#fff"/>
      <path id="Path_98077" data-name="Path 98077" d="M132.92,130.71h.54v4.69h2.9v.479H132.92Z" transform="translate(-121.061 -130.664)" fill="#fff"/>
      <path id="Path_98078" data-name="Path 98078" d="M138.63,130.71h.547v5.169h-.547Z" transform="translate(-122.43 -130.664)" fill="#fff"/>
      <path id="Path_98079" data-name="Path 98079" d="M145.521,130.71l-2.281,5.169h-.54l-2.281-5.169h.593l1.977,4.485,1.992-4.485Z" transform="translate(-122.859 -130.664)" fill="#fff"/>
      <path id="Path_98080" data-name="Path 98080" d="M151.759,135.4v.479H148.11V130.71h3.543v.471h-3v1.84h2.668v.464h-2.668V135.4Z" transform="translate(-124.703 -130.664)" fill="#fff"/>
      <path id="Path_98081" data-name="Path 98081" d="M158.127,135.872l-1.186-1.665a3.522,3.522,0,0,1-.411,0H155.14v1.642h-.54V130.68h1.931c1.315,0,2.106.669,2.106,1.771a1.6,1.6,0,0,1-1.178,1.627l1.262,1.771Zm0-3.4c0-.829-.547-1.3-1.581-1.3H155.17v2.592h1.376c1,0,1.551-.479,1.551-1.323Z" transform="translate(-126.26 -130.657)" fill="#fff"/>
      <path id="Path_98082" data-name="Path 98082" d="M163.02,134.093v1.786h-.54v-1.786l-2.06-3.383H161l1.771,2.9,1.771-2.9h.547Z" transform="translate(-127.655 -130.664)" fill="#fff"/>
      <path id="Path_98083" data-name="Path 98083" d="M173.2,134.5h-2.881l-.616,1.384h-.57l2.357-5.169h.54l2.364,5.169h-.578Zm-.205-.441-1.239-2.775-1.2,2.775Z" transform="translate(-129.744 -130.664)" fill="#fff"/>
      <path id="Path_98084" data-name="Path 98084" d="M177.17,130.708h2.106a2.592,2.592,0,1,1,0,5.169H177.17Zm2.075,4.69a2.113,2.113,0,1,0,0-4.219h-1.52V135.4Z" transform="translate(-131.672 -130.662)" fill="#fff"/>
      <path id="Path_98085" data-name="Path 98085" d="M185.18,130.708h2.144a2.592,2.592,0,1,1,0,5.169h-2.106Zm2.075,4.69a2.113,2.113,0,1,0,0-4.219h-1.52V135.4Z" transform="translate(-133.593 -130.662)" fill="#fff"/>
      <path id="Path_98086" data-name="Path 98086" d="M196.727,135.872l-1.186-1.665a3.522,3.522,0,0,1-.41,0H193.74v1.642h-.54V130.68h1.931c1.315,0,2.106.669,2.106,1.771a1.6,1.6,0,0,1-1.178,1.627l1.262,1.771Zm0-3.4c0-.829-.547-1.3-1.581-1.3H193.77v2.592h1.376c1,0,1.551-.479,1.551-1.323Z" transform="translate(-135.516 -130.657)" fill="#fff"/>
      <path id="Path_98087" data-name="Path 98087" d="M203.849,135.4v.479H200.2V130.71h3.543v.471h-3v1.84h2.668v.464h-2.668V135.4Z" transform="translate(-137.194 -130.664)" fill="#fff"/>
      <path id="Path_98088" data-name="Path 98088" d="M206.05,135.234l.213-.418a2.562,2.562,0,0,0,1.7.623c.965,0,1.391-.4,1.391-.912,0-1.414-3.185-.547-3.185-2.455,0-.76.593-1.422,1.908-1.422a2.881,2.881,0,0,1,1.6.464l-.182.433a2.638,2.638,0,0,0-1.414-.426c-.943,0-1.368.418-1.368.935,0,1.414,3.185.563,3.185,2.44,0,.76-.608,1.406-1.931,1.406A2.8,2.8,0,0,1,206.05,135.234Z" transform="translate(-138.597 -130.65)" fill="#fff"/>
      <path id="Path_98089" data-name="Path 98089" d="M212,135.234l.213-.418a2.547,2.547,0,0,0,1.7.623c.965,0,1.384-.4,1.384-.912,0-1.414-3.178-.547-3.178-2.455,0-.76.593-1.422,1.9-1.422a2.9,2.9,0,0,1,1.6.464l-.182.433a2.645,2.645,0,0,0-1.422-.426c-.943,0-1.361.418-1.361.935,0,1.414,3.178.563,3.178,2.44,0,.76-.6,1.406-1.923,1.406A2.8,2.8,0,0,1,212,135.234Z" transform="translate(-140.024 -130.65)" fill="#fff"/>
      <path id="Path_98090" data-name="Path 98090" d="M120.661,148.6v3.193h-.281l-2.053-2.585v2.585H118V148.6h.281l2.053,2.592V148.6Z" transform="translate(-117.483 -134.954)" fill="#fff"/>
      <path id="Path_98091" data-name="Path 98091" d="M124.709,150.941H122.93l-.38.851h-.35l1.46-3.193h.327l1.46,3.193h-.357Zm-.122-.274-.76-1.71-.76,1.71Z" transform="translate(-118.49 -134.954)" fill="#fff"/>
      <path id="Path_98092" data-name="Path 98092" d="M130.484,148.6v3.193h-.327v-2.554L128.9,151.39h-.16l-1.247-2.136v2.539h-.327V148.6h.281l1.384,2.372L130.2,148.6Z" transform="translate(-119.682 -134.954)" fill="#fff"/>
      <path id="Path_98093" data-name="Path 98093" d="M135.151,151.5v.289H132.87V148.6h2.189v.3H133.2v1.133h1.65v.289H133.2v1.186Z" transform="translate(-121.049 -134.954)" fill="#fff"/>
      <path id="Path_98094" data-name="Path 98094" d="M119.829,161.261H118.05l-.38.851h-.35l1.46-3.193h.327l1.46,3.193h-.35Zm-.122-.274-.76-1.718-.76,1.718Z" transform="translate(-117.32 -137.429)" fill="#fff"/>
      <path id="Path_98095" data-name="Path 98095" d="M122.29,158.9h1.3a1.6,1.6,0,1,1,0,3.193h-1.3Zm1.285,2.9a1.308,1.308,0,1,0,0-2.607h-.95v2.607Z" transform="translate(-118.512 -137.422)" fill="#fff"/>
      <path id="Path_98096" data-name="Path 98096" d="M127.25,158.9h1.33a1.6,1.6,0,1,1,0,3.193h-1.3Zm1.277,2.9a1.308,1.308,0,1,0,0-2.607h-.943v2.607Z" transform="translate(-119.701 -137.422)" fill="#fff"/>
      <path id="Path_98097" data-name="Path 98097" d="M134.372,162.088l-.76-1.026H132.5v1.011h-.342V158.88h1.194c.813,0,1.308.411,1.308,1.095a1,1,0,0,1-.76,1l.76,1.095Zm0-2.1c0-.509-.342-.806-.981-.806h-.844v1.6h.844c.623,0,.965-.3.965-.8Z" transform="translate(-120.879 -137.419)" fill="#fff"/>
      <path id="Path_98098" data-name="Path 98098" d="M138.791,161.8v.3H136.51V158.9H138.7v.289h-1.817v1.14h1.657v.289h-1.657V161.8Z" transform="translate(-121.922 -137.424)" fill="#fff"/>
      <path id="Path_98099" data-name="Path 98099" d="M140.15,161.693l.137-.258a1.574,1.574,0,0,0,1.049.388c.6,0,.859-.251.859-.57,0-.874-1.961-.334-1.961-1.52,0-.471.357-.882,1.171-.882a1.741,1.741,0,0,1,.988.289l-.114.266a1.672,1.672,0,0,0-.874-.266c-.578,0-.844.258-.844.578,0,.882,1.969.35,1.969,1.52,0,.471-.373.867-1.194.867A1.756,1.756,0,0,1,140.15,161.693Z" transform="translate(-122.795 -137.412)" fill="#fff"/>
      <path id="Path_98100" data-name="Path 98100" d="M143.84,161.693l.137-.258a1.574,1.574,0,0,0,1.049.388c.6,0,.859-.251.859-.57,0-.874-1.961-.334-1.961-1.52,0-.471.365-.882,1.171-.882a1.741,1.741,0,0,1,.988.289l-.114.266a1.672,1.672,0,0,0-.874-.266c-.578,0-.844.258-.844.578,0,.882,1.969.35,1.969,1.52,0,.471-.372.867-1.194.867A1.756,1.756,0,0,1,143.84,161.693Z" transform="translate(-123.679 -137.412)" fill="#fff"/>
      <path id="Path_98101" data-name="Path 98101" d="M120.493,170.295c0,.677-.494,1.087-1.308,1.087h-.859v1.011H118V169.2h1.194C120,169.2,120.493,169.611,120.493,170.295Zm-.342,0c0-.509-.334-.806-.973-.806h-.851v1.6h.851C119.817,171.085,120.151,170.8,120.151,170.295Z" transform="translate(-117.483 -139.894)" fill="#fff"/>
      <path id="Path_98102" data-name="Path 98102" d="M121.93,170.756a1.672,1.672,0,1,1,1.672,1.619,1.6,1.6,0,0,1-1.672-1.619Zm3.041,0a1.346,1.346,0,1,0-1.338,1.323,1.292,1.292,0,0,0,1.308-1.323Z" transform="translate(-118.425 -139.853)" fill="#fff"/>
      <path id="Path_98103" data-name="Path 98103" d="M126.93,172l.129-.266a1.52,1.52,0,0,0,1.057.388c.593,0,.859-.251.859-.563,0-.874-1.969-.334-1.969-1.52,0-.464.365-.874,1.178-.874a1.84,1.84,0,0,1,.988.281l-.114.274a1.6,1.6,0,0,0-.874-.266c-.585,0-.844.258-.844.578,0,.874,1.961.35,1.961,1.52,0,.464-.372.867-1.186.867A1.741,1.741,0,0,1,126.93,172Z" transform="translate(-119.624 -139.884)" fill="#fff"/>
      <path id="Path_98104" data-name="Path 98104" d="M131.425,169.489H130.3V169.2h2.585v.289H131.76v2.9h-.334Z" transform="translate(-120.433 -139.894)" fill="#fff"/>
      <path id="Path_98105" data-name="Path 98105" d="M136.036,171.534h-1.779l-.38.859h-.357l1.46-3.193h.335l1.46,3.193h-.357Zm-.122-.274-.76-1.71-.76,1.71Z" transform="translate(-121.205 -139.894)" fill="#fff"/>
      <path id="Path_98106" data-name="Path 98106" d="M138.5,169.2h.334v2.889h1.786v.3H138.5Z" transform="translate(-122.399 -139.894)" fill="#fff"/>
      <path id="Path_98107" data-name="Path 98107" d="M143.23,170.786a1.6,1.6,0,0,1,1.672-1.627,1.574,1.574,0,0,1,1.171.464l-.213.22a1.285,1.285,0,0,0-.95-.38,1.323,1.323,0,1,0,0,2.645,1.262,1.262,0,0,0,.95-.388l.213.213a1.52,1.52,0,0,1-1.171.471,1.6,1.6,0,0,1-1.672-1.619Z" transform="translate(-123.533 -139.884)" fill="#fff"/>
      <path id="Path_98108" data-name="Path 98108" d="M147.46,170.756a1.672,1.672,0,1,1,1.672,1.619,1.6,1.6,0,0,1-1.672-1.619Zm3.041,0a1.346,1.346,0,1,0-1.338,1.323,1.292,1.292,0,0,0,1.308-1.323Z" transform="translate(-124.547 -139.853)" fill="#fff"/>
      <path id="Path_98109" data-name="Path 98109" d="M152.86,169.2h1.3a1.6,1.6,0,1,1,0,3.193h-1.3Zm1.285,2.9a1.308,1.308,0,1,0,0-2.607H153.2v2.6Z" transform="translate(-125.842 -139.892)" fill="#fff"/>
      <path id="Path_98110" data-name="Path 98110" d="M160.071,172.086v.3H157.79V169.19h2.189v.289h-1.855v1.133h1.65v.289h-1.65v1.186Z" transform="translate(-127.025 -139.892)" fill="#fff"/>
      <path id="Path_98111" data-name="Path 98111" d="M120.493,180.585c0,.684-.494,1.095-1.308,1.095h-.859v1H118V179.49h1.194C120,179.49,120.493,179.878,120.493,180.585Zm-.342,0c0-.509-.334-.8-.973-.8h-.851V181.4h.851C119.817,181.4,120.151,181.086,120.151,180.585Z" transform="translate(-117.483 -142.362)" fill="#fff"/>
      <path id="Path_98112" data-name="Path 98112" d="M124.908,179.49v3.193h-.334v-1.475h-2v1.475h-.334V179.49h.334v1.429h2V179.49Z" transform="translate(-118.5 -142.362)" fill="#fff"/>
      <path id="Path_98113" data-name="Path 98113" d="M126.74,181.043a1.68,1.68,0,1,1,1.68,1.627,1.6,1.6,0,0,1-1.68-1.627Zm3.041,0a1.346,1.346,0,1,0-1.338,1.323,1.292,1.292,0,0,0,1.315-1.323Z" transform="translate(-119.579 -142.318)" fill="#fff"/>
      <path id="Path_98114" data-name="Path 98114" d="M134.818,179.49v3.193h-.281l-2.053-2.585v2.585h-.334V179.49h.281l2.053,2.592V179.49Z" transform="translate(-120.876 -142.362)" fill="#fff"/>
      <path id="Path_98115" data-name="Path 98115" d="M139.281,182.394v.289H137V179.49h2.189v.3h-1.855v1.133h1.65v.289h-1.65v1.186Z" transform="translate(-122.039 -142.362)" fill="#fff"/>
      <path id="Path_98116" data-name="Path 98116" d="M167.619,149.907a.251.251,0,1,1,.109.253A.251.251,0,0,1,167.619,149.907Zm0,1.939a.251.251,0,1,1,.109.253A.251.251,0,0,1,167.619,151.846Z" transform="translate(-129.381 -135.197)" fill="#fff"/>
      <path id="Path_98117" data-name="Path 98117" d="M167.619,160.175a.251.251,0,1,1,.109.253A.251.251,0,0,1,167.619,160.175Zm0,1.946a.251.251,0,1,1,.109.253A.251.251,0,0,1,167.619,162.121Z" transform="translate(-129.381 -137.68)" fill="#fff"/>
      <path id="Path_98118" data-name="Path 98118" d="M167.619,170.475a.251.251,0,1,1,.109.253A.251.251,0,0,1,167.619,170.475Zm0,1.946a.251.251,0,1,1,.109.253A.251.251,0,0,1,167.619,172.421Z" transform="translate(-129.381 -140.15)" fill="#fff"/>
      <path id="Path_98119" data-name="Path 98119" d="M167.619,180.747a.251.251,0,1,1,.109.253.251.251,0,0,1-.109-.253Zm0,1.939a.251.251,0,1,1,.109.253.251.251,0,0,1-.109-.253Z" transform="translate(-129.381 -142.592)" fill="#fff"/>
    </g>
    <g id="freepik--Locator--inject-28" transform="translate(165.537 94.469)">
      <path id="Path_98120" data-name="Path 98120" d="M234.187,109.74h0a9.625,9.625,0,0,0-13.615,13.608l6.8,6.842,6.842-6.842a9.624,9.624,0,0,0-.03-13.608ZM230.53,119.7h0a4.455,4.455,0,1,1,0-6.3h0A4.455,4.455,0,0,1,230.53,119.7Z" transform="translate(-217.754 -106.919)" fill="#fff"/>
    </g>
    <g id="freepik--Character--inject-28" transform="translate(230.577 125.206)">
      <g id="freepik--group--inject-28">
        <path id="Path_98121" data-name="Path 98121" d="M343.273,187.21c-3.565.335-8.643,17.424-8.643,17.424l9.807,1.27.494-16.382Z" transform="translate(-310.82 -156.91)" fill="#fff"/>
        <path id="Path_98122" data-name="Path 98122" d="M343.273,187.21c-3.565.335-8.643,17.424-8.643,17.424l9.807,1.27.494-16.382Z" transform="translate(-310.82 -156.91)" fill="#fff" opacity="0.1"/>
        <path id="Path_98123" data-name="Path 98123" d="M373.561,412.9h6.925a.5.5,0,0,1,.487.4l1.125,5.063a.844.844,0,0,1-.646,1,.813.813,0,0,1-.19,0c-2.235-.038-3.862-.175-6.675-.175-1.726,0-6.948.182-9.335.182s-2.706-2.364-1.726-2.585c4.386-.95,7.686-2.281,9.122-3.535A1.353,1.353,0,0,1,373.561,412.9Z" transform="translate(-317.625 -211.03)" fill="#263238"/>
        <path id="Path_98124" data-name="Path 98124" d="M334.985,412.66h6.91a.5.5,0,0,1,.487.4l1.125,5.063a.844.844,0,0,1-.654,1,.757.757,0,0,1-.182,0c-2.235-.038-3.869-.175-6.675-.175-1.733,0-6.948.182-9.343.182s-2.7-2.364-1.718-2.577c4.386-.958,7.686-2.281,9.122-3.543a1.383,1.383,0,0,1,.927-.342Z" transform="translate(-308.37 -210.972)" fill="#263238"/>
        <path id="Path_98125" data-name="Path 98125" d="M373.561,412.9h6.925a.5.5,0,0,1,.487.4l1.125,5.063a.844.844,0,0,1-.646,1,.813.813,0,0,1-.19,0c-2.235-.038-3.862-.175-6.675-.175-1.726,0-6.948.182-9.335.182s-2.706-2.364-1.726-2.585c4.386-.95,7.686-2.281,9.122-3.535A1.353,1.353,0,0,1,373.561,412.9Z" transform="translate(-317.625 -211.03)" fill="#fff" opacity="0.3"/>
        <path id="Path_98126" data-name="Path 98126" d="M334.985,412.66h6.91a.5.5,0,0,1,.487.4l1.125,5.063a.844.844,0,0,1-.654,1,.757.757,0,0,1-.182,0c-2.235-.038-3.869-.175-6.675-.175-1.733,0-6.948.182-9.343.182s-2.7-2.364-1.718-2.577c4.386-.958,7.686-2.281,9.122-3.543a1.383,1.383,0,0,1,.927-.342Z" transform="translate(-308.37 -210.972)" fill="#fff" opacity="0.3"/>
        <path id="Path_98127" data-name="Path 98127" d="M369.762,244.3H339.574c-2.874,15.683-11.859,79.373-5.413,128.831h10.232s-.973-75.085,8.058-99.412c1.034,12.992,11.593,99.328,11.593,99.328H374.46s-1.558-32.476-3.117-63.158C370.362,290.6,369.807,248.268,369.762,244.3Z" transform="translate(-310.162 -170.6)" fill="#263238"/>
        <path id="Path_98128" data-name="Path 98128" d="M357.833,279.609a80.646,80.646,0,0,0-3.375,13.076c-.844-11.563,2.531-23.825,2.531-23.825Z" transform="translate(-315.543 -176.489)" opacity="0.2"/>
        <path id="Path_98129" data-name="Path 98129" d="M341.518,244.78h30.408V248.4l-30.8-.372Z" transform="translate(-312.379 -170.715)"/>
        <rect id="Rectangle_12984" data-name="Rectangle 12984" width="1.087" height="6.424" transform="translate(48.683 72.431)" fill="#263238"/>
        <rect id="Rectangle_12985" data-name="Rectangle 12985" width="1.087" height="6.424" transform="translate(33.304 72.431)" fill="#263238"/>
        <rect id="Rectangle_12986" data-name="Rectangle 12986" width="5.625" height="4.052" transform="translate(37.372 73.427)" fill="#fff"/>
        <path id="Path_98130" data-name="Path 98130" d="M341.617,231.53H372.1c.692-14.832,4.561-34.969,5.61-40.39a1.46,1.46,0,0,0-1.117-1.726c-1.52-.335-3.109-.623-4.706-.867a148.033,148.033,0,0,0-21.727-1.46c-3.216,0-5.238.091-5.238.091C341.23,200.4,341.306,221.716,341.617,231.53Z" transform="translate(-312.464 -156.88)" fill="#fff"/>
        <path id="Path_98131" data-name="Path 98131" d="M341.617,231.53H372.1a248.782,248.782,0,0,1,3.109-26.486c1.026-6.325,2.03-11.525,2.5-13.9a1.109,1.109,0,0,0,0-.388,1.452,1.452,0,0,0-1.14-1.338c-1.52-.335-3.109-.623-4.706-.867a148.028,148.028,0,0,0-21.727-1.46c-3.216,0-5.238.091-5.238.091C341.23,200.4,341.306,221.716,341.617,231.53Z" transform="translate(-312.464 -156.88)" fill="#fff" opacity="0.3"/>
        <path id="Path_98132" data-name="Path 98132" d="M370.914,183.712c-2.615,2.372-9.016,1.52-9.016,1.52s-4-1.095-3.155-2.341c2.349-.388,3.489-1.52,3.961-2.9a6.788,6.788,0,0,0,.236-2.684,12.755,12.755,0,0,0-.2-1.52l7.914-5.861C369.622,173.784,368.352,180.907,370.914,183.712Z" transform="translate(-316.575 -152.766)" fill="#e4897b"/>
        <path id="Path_98133" data-name="Path 98133" d="M370.117,174.82a6.688,6.688,0,0,1-6.127,6.325,6.789,6.789,0,0,0,.236-2.684Z" transform="translate(-317.861 -153.939)" opacity="0.2"/>
        <path id="Path_98134" data-name="Path 98134" d="M369.364,184.1l-7.564,3.406-.441-2.729-2.782.973a2.281,2.281,0,0,0-1.52,2.395l.312,3.041,3.8-2.1,1.908,2.7,9.138-4.409Z" transform="translate(-316.195 -156.164)" fill="#fff"/>
        <path id="Path_98135" data-name="Path 98135" d="M369.364,184.1l-7.564,3.406-.441-2.729-2.782.973a2.281,2.281,0,0,0-1.52,2.395l.312,3.041,3.8-2.1,1.908,2.7,9.138-4.409Z" transform="translate(-316.195 -156.164)" fill="#fff" opacity="0.1"/>
        <path id="Path_98136" data-name="Path 98136" d="M350.009,158.943c-1.482.578,10.172.692,10.172.692S356.509,156.4,350.009,158.943Z" transform="translate(-314.477 -149.898)" fill="#fff"/>
        <path id="Path_98137" data-name="Path 98137" d="M350.009,158.943c-1.482.578,10.172.692,10.172.692S356.509,156.4,350.009,158.943Z" transform="translate(-314.477 -149.898)" opacity="0.2"/>
        <path id="Path_98138" data-name="Path 98138" d="M356.458,154.13s-2.585,7.5,1.041,10.939,5.481-10.643,5.481-10.643Z" transform="translate(-315.841 -148.977)" fill="#263238"/>
        <path id="Path_98139" data-name="Path 98139" d="M355.883,169.034a6.855,6.855,0,0,0,.266.76,7.708,7.708,0,0,0,3.892,4.128,7.085,7.085,0,0,0,5.1.4,6.956,6.956,0,0,0,3.124-2.015c2.668-2.9,2.478-6.127,2.592-11.608a7.5,7.5,0,0,0-10.643-7.1C354.963,156.019,354.522,164.154,355.883,169.034Z" transform="translate(-315.759 -148.685)" fill="#e4897b"/>
        <path id="Path_98140" data-name="Path 98140" d="M364.6,165.37c.053.441-.2.813-.494.821s-.54-.342-.563-.76.213-.813.5-.821S364.581,164.906,364.6,165.37Z" transform="translate(-317.753 -151.49)" fill="#263238"/>
        <path id="Path_98141" data-name="Path 98141" d="M357.966,165.62c.053.441-.205.813-.494.821s-.54-.342-.563-.76.213-.813.5-.821S357.951,165.194,357.966,165.62Z" transform="translate(-316.163 -151.55)" fill="#263238"/>
        <path id="Path_98142" data-name="Path 98142" d="M359.794,166.07a15.964,15.964,0,0,1-1.984,3.892,2.608,2.608,0,0,0,2.159.319Z" transform="translate(-316.379 -151.84)" fill="#de5753"/>
        <path id="Path_98143" data-name="Path 98143" d="M355.7,162.83a.274.274,0,0,0,.274,0,2.121,2.121,0,0,1,1.87-.3.259.259,0,0,0,.342-.137.266.266,0,0,0-.137-.342h0a2.585,2.585,0,0,0-2.357.342.258.258,0,0,0-.084.357h0a.326.326,0,0,0,.091.076Z" transform="translate(-315.841 -150.843)" fill="#263238"/>
        <path id="Path_98144" data-name="Path 98144" d="M365.4,162.588a.32.32,0,0,0,.137-.061.258.258,0,0,0,0-.365h0a2.6,2.6,0,0,0-2.341-.5.251.251,0,0,0-.16.327h0a.266.266,0,0,0,.327.167h0a2.1,2.1,0,0,1,1.847.426A.266.266,0,0,0,365.4,162.588Z" transform="translate(-317.628 -150.761)" fill="#263238"/>
        <path id="Path_98145" data-name="Path 98145" d="M370.069,154.39l-.319,2.417a1.8,1.8,0,0,1,.882,2.281c-.806,2.022.319,5.185,1.862,6.462,0,0,.061-.882.8-.669s.494,4.8-.981,6.971c0,0,2.212-1.954,3.5-6.758,1.186-4.432,1.368-8.142.471-9.883Z" transform="translate(-319.242 -149.039)" fill="#263238"/>
        <path id="Path_98146" data-name="Path 98146" d="M377.473,167.922a5.192,5.192,0,0,1-2.889,2.744c-1.71.646-2.729-.844-2.395-2.547.319-1.52,1.574-3.71,3.36-3.611A2.334,2.334,0,0,1,377.473,167.922Z" transform="translate(-319.812 -151.465)" fill="#e4897b"/>
        <path id="Path_98147" data-name="Path 98147" d="M361.68,173.852a.19.19,0,0,1-.182-.144.182.182,0,0,1,.137-.228,4,4,0,0,0,2.151-1.688.2.2,0,0,1,.266-.061.19.19,0,0,1,.061.258,4.257,4.257,0,0,1-2.387,1.855Z" transform="translate(-317.262 -153.191)" fill="#263238"/>
        <path id="Path_98148" data-name="Path 98148" d="M355.07,154.914s2.189-5.861,3.147-6.568,4.181-1.27,7.131-.851,7.123,3.178,7.944,4.561,0,6.637,0,6.637l-6.507-1.908Z" transform="translate(-315.722 -147.352)" fill="#fff"/>
        <path id="Path_98149" data-name="Path 98149" d="M355.07,154.914s2.189-5.861,3.147-6.568,4.181-1.27,7.131-.851,7.123,3.178,7.944,4.561,0,6.637,0,6.637l-6.507-1.908Z" transform="translate(-315.722 -147.352)" fill="#fff" opacity="0.1"/>
        <path id="Path_98150" data-name="Path 98150" d="M350.05,158.29s6.006-2.972,8.826-3.041,6.842,1.7,7.838,3.109c0,0-5.01,1.52-7.062.631A17.773,17.773,0,0,0,350.05,158.29Z" transform="translate(-314.518 -149.245)" fill="#fff"/>
        <path id="Path_98151" data-name="Path 98151" d="M358.06,152.872l2.98-2.562-.312,1.612,3.619-.015-.144.92Z" transform="translate(-316.439 -148.061)" fill="#fff"/>
        <path id="Path_98152" data-name="Path 98152" d="M362.362,151.018l3.064-.038-.144.639-3.071-.008Z" transform="translate(-317.434 -148.222)" fill="#fff"/>
        <rect id="Rectangle_12987" data-name="Rectangle 12987" width="41.606" height="29.557" transform="translate(0 43.771)" fill="#263238"/>
        <rect id="Rectangle_12988" data-name="Rectangle 12988" width="41.606" height="29.557" transform="translate(0 43.771)" fill="#fff" opacity="0.3"/>
        <rect id="Rectangle_12989" data-name="Rectangle 12989" width="24.661" height="29.557" transform="translate(0 43.771)" fill="#fff" opacity="0.1"/>
        <rect id="Rectangle_12990" data-name="Rectangle 12990" width="3.482" height="3.102" transform="translate(31.723 43.771)" fill="#fff" opacity="0.3"/>
        <rect id="Rectangle_12991" data-name="Rectangle 12991" width="3.482" height="2.729" transform="translate(31.723 70.599)" fill="#fff" opacity="0.3"/>
        <rect id="Rectangle_12992" data-name="Rectangle 12992" width="8.659" height="4.804" transform="translate(14.216 66.927)" fill="#fff" opacity="0.3"/>
        <rect id="Rectangle_12993" data-name="Rectangle 12993" width="6.401" height="2.448" transform="translate(1.315 45.276)" fill="#fff" opacity="0.3"/>
        <path id="Path_98153" data-name="Path 98153" d="M372.089,212s-1.186,6.773-2.281,7.906c-2.41,2.539-19.438,4.288-19.438,4.288l.266,3.8s17.827-1.095,21.2-3.527c2.79-2.007,6.036-11.814,6.036-11.814Z" transform="translate(-314.595 -162.854)" fill="#e4897b"/>
        <path id="Path_98154" data-name="Path 98154" d="M348.509,228.708a7.084,7.084,0,0,0-1.057-2.281c-.494-.373-7.48-.357-7.838-.357s.213,5.717.707,6.287,6.211,0,7.131-.213S349,230.327,348.509,228.708Z" transform="translate(-311.989 -166.228)" fill="#e4897b"/>
        <path id="Path_98155" data-name="Path 98155" d="M384.96,190.119c7.024,2.486-2.379,24.6-2.379,24.6l-6.211-1.908S379.814,188.295,384.96,190.119Z" transform="translate(-320.83 -157.584)" fill="#fff"/>
        <path id="Path_98156" data-name="Path 98156" d="M384.96,190.119c7.024,2.486-2.379,24.6-2.379,24.6l-6.211-1.908S379.814,188.295,384.96,190.119Z" transform="translate(-320.83 -157.584)" fill="#fff" opacity="0.1"/>
        <path id="Path_98157" data-name="Path 98157" d="M375.926,217.28l7.549,2.539-.775,2.258-7.2-2.752Z" transform="translate(-320.621 -164.12)" fill="#fff"/>
        <path id="Path_98158" data-name="Path 98158" d="M366.63,202.708l3.193-2.288-.449,1.574,3.611.3-.228.9Z" transform="translate(-318.494 -160.077)" fill="#fff"/>
        <path id="Path_98159" data-name="Path 98159" d="M371.135,201.18l3.056.22-.2.631-3.064-.281Z" transform="translate(-319.525 -160.26)" fill="#fff"/>
      </g>
    </g>
  </g>
</svg>
