<svg xmlns="http://www.w3.org/2000/svg" width="272.04" height="178.251" viewBox="0 0 272.04 178.251">
  <g id="No_data-cuate_1_" data-name="No data-cuate (1)" transform="translate(-65.62 -55.73)">
    <g id="freepik--background-complete--inject-18" transform="translate(65.62 55.73)">
      <path id="Path_98424" data-name="Path 98424" d="M600.45,122.7,596.2,143.3l-2.738-2.672-4.659,3.325-3.561-4.423-7.984,5.806-6.824-11.411-7.611,4.459-3.018-4.161-9.664,5.446-2.907-6.228L554,100.63l36.319,7.5Z" transform="translate(-333.136 -80.67)" fill="#ebebeb"/>
      <path id="Path_98425" data-name="Path 98425" d="M641.082,117.5l10.127,14.568-12.6-2.6Z" transform="translate(-383.894 -90.041)" fill="#dbdbdb"/>
      <path id="Path_98426" data-name="Path 98426" d="M586.418,193.565l-6.237,30.229-48.921-10.1,6.192-29.984,2.907,6.224,9.669-5.446,3.014,4.161,7.615-4.454,6.819,11.411,7.988-5.806,3.556,4.419,4.663-3.321Z" transform="translate(-324.265 -126.818)" fill="#ebebeb"/>
      <path id="Path_98427" data-name="Path 98427" d="M430.586,118.935l-49.855,3.085-3.961-64,37.021-2.294,13.59,11.4Z" transform="translate(-238.452 -55.73)" fill="#ebebeb"/>
      <path id="Path_98428" data-name="Path 98428" d="M460.05,55.73l13.59,11.4-12.838.8Z" transform="translate(-284.711 -55.73)" fill="#dbdbdb"/>
      <path id="Path_98429" data-name="Path 98429" d="M420.957,117.96l-.2-1.445c-.5-2.992.316-6.339,2.916-9.838,2.347-3.112,3.619-5.334,3.476-7.859-.16-2.845-2.049-4.641-5.566-4.5a9.918,9.918,0,0,0-5.534,2.045l-1.534-3.436a14.555,14.555,0,0,1,7.846-2.667c6.415-.356,9.535,3.441,9.78,7.677.213,3.792-1.751,6.641-4.25,9.971-2.294,3.036-3.045,5.539-2.721,8.371l.138,1.449Zm-.791,7.873a3.3,3.3,0,0,1,3.147-3.7,3.493,3.493,0,1,1-3.165,3.7Z" transform="translate(-259.42 -74.898)" fill="#dbdbdb"/>
      <path id="Path_98430" data-name="Path 98430" d="M127.939,125.272,122.925,123l-.7,1.534a1.334,1.334,0,0,1-1.142.765,6.439,6.439,0,0,0-.822.08,1.334,1.334,0,0,1-1.267-.525l-.982-1.374-4.477,3.21.982,1.374a1.334,1.334,0,0,1,.089,1.365,8.13,8.13,0,0,0-.342.751,1.334,1.334,0,0,1-1.089.84l-1.676.164.538,5.481,1.685-.169a1.334,1.334,0,0,1,1.231.613c.071.116.147.227.227.338s.16.218.244.325a1.307,1.307,0,0,1,.187,1.356l-.7,1.547,5.019,2.276.7-1.543a1.334,1.334,0,0,1,1.147-.76,7.2,7.2,0,0,0,.814-.08,1.334,1.334,0,0,1,1.267.525l.982,1.374,4.481-3.21-.982-1.374a1.294,1.294,0,0,1-.089-1.365,7.977,7.977,0,0,0,.333-.747,1.307,1.307,0,0,1,1.089-.84l1.685-.169-.542-5.481-1.685.164a1.307,1.307,0,0,1-1.222-.609c-.076-.116-.151-.227-.231-.338s-.16-.222-.244-.325a1.334,1.334,0,0,1-.187-1.365Zm-2.845,5.072a4.512,4.512,0,1,1-6.295-1.04,4.512,4.512,0,0,1,6.295,1.04Z" transform="translate(-91.105 -93.096)" fill="#ebebeb"/>
      <path id="Path_98431" data-name="Path 98431" d="M652.059,291.71l-3.343,1.929.591,1.022a.889.889,0,0,1-.031.965c-.1.16-.2.325-.289.5a.889.889,0,0,1-.813.507H647v3.863h1.182A.889.889,0,0,1,649,301c.089.173.187.338.289.5a.889.889,0,0,1,.031.965l-.591,1.022,3.343,1.929.6-1.027a.911.911,0,0,1,.849-.445h.569a.916.916,0,0,1,.849.445l.6,1.031,3.338-1.929-.591-1.027a.911.911,0,0,1,.036-.96c.1-.16.2-.329.289-.5a.889.889,0,0,1,.814-.507h1.182v-3.863H659.4a.889.889,0,0,1-.814-.507c-.089-.169-.187-.338-.289-.5a.911.911,0,0,1-.036-.96l.591-1.027-3.339-1.929-.6,1.014a.911.911,0,0,1-.849.445H653.5a.925.925,0,0,1-.854-.445Zm1.729,3.69a3.153,3.153,0,1,1-2.236.923,3.165,3.165,0,0,1,2.236-.923Z" transform="translate(-388.554 -186.808)" fill="#ebebeb"/>
      <path id="Path_98432" data-name="Path 98432" d="M165.8,90.632l-3.063,2.347.707.938a.889.889,0,0,1,.093.956,4.652,4.652,0,0,0-.222.533.911.911,0,0,1-.742.609l-1.174.151.5,3.827,1.174-.151a.916.916,0,0,1,.889.4,4.954,4.954,0,0,0,.347.445.889.889,0,0,1,.16.947l-.445,1.094,3.556,1.48.445-1.094a.911.911,0,0,1,.787-.556l.285-.031.28-.044a.916.916,0,0,1,.889.333l.725.947,3.063-2.347-.716-.938a.916.916,0,0,1-.093-.96,4.948,4.948,0,0,0,.222-.529.911.911,0,0,1,.742-.609l1.174-.151-.5-3.827-1.174.151a.916.916,0,0,1-.889-.4,3.966,3.966,0,0,0-.351-.445.92.92,0,0,1-.133-.929l.445-1.094-3.556-1.48-.445,1.094a.92.92,0,0,1-.787.556l-.285.027-.262.009a.916.916,0,0,1-.889-.333Zm2.192,3.436a3.161,3.161,0,1,1-2.1,1.211,3.161,3.161,0,0,1,2.1-1.211Z" transform="translate(-118.822 -74.882)" fill="#ebebeb"/>
      <path id="Path_98433" data-name="Path 98433" d="M109.294,249.671a122.531,122.531,0,0,0-.178-12.892,164.83,164.83,0,0,0-4.041-26.3c-1.129-4.863-2.516-9.646-3.965-14.425-.044-.147-.276-.107-.236.044,4.477,16.848,8.148,34.229,7.9,51.744-.071,4.89-.64,9.713-1.1,14.585,0,.129.2.182.231.049A73.846,73.846,0,0,0,109.294,249.671Z" transform="translate(-85.2 -133.624)" fill="#ebebeb"/>
      <path id="Path_98434" data-name="Path 98434" d="M94.033,196.24s-6.775,17.2-5.259,21.231a7.752,7.752,0,0,0,4.645,4.89s-4.148,5.921-1.249,11.474,9.335,5.29,9.78,11.585C101.936,245.45,102.292,219.129,94.033,196.24Z" transform="translate(-78.358 -133.778)" fill="#ebebeb"/>
      <path id="Path_98435" data-name="Path 98435" d="M106.848,239.111a.124.124,0,0,0,0-.089,157.505,157.505,0,0,0-6.57-34.607c0-.031-.067-.022-.058,0q2.014,7.557,3.556,15.177a7.5,7.5,0,0,0-3.236-1.8s-.036.027,0,.036a8.6,8.6,0,0,1,3.343,2.223c.2,1,.391,2,.573,3a13.876,13.876,0,0,0-5.717-3.334.027.027,0,0,0,0,.049,13.755,13.755,0,0,1,5.855,3.925q.773,4.281,1.36,8.593a8.193,8.193,0,0,0-4.041-2.316c-.049,0-.076.058-.027.071a8.517,8.517,0,0,1,4.072,2.641h.027q.2,1.511.382,3.036A10.389,10.389,0,0,0,103.537,234c-.027,0-.044.031,0,.04a9.731,9.731,0,0,1,2.841,1.88h.036c.111.965.222,1.929.32,2.894a13.781,13.781,0,0,0-5.748-4.108.036.036,0,1,0,0,.071,14.972,14.972,0,0,1,5.663,4.361.133.133,0,0,0,.142.044c.147,1.48.28,2.961.387,4.445a.018.018,0,0,0,.036,0Q107.04,241.392,106.848,239.111Z" transform="translate(-84.008 -138.307)" fill="#fff"/>
      <path id="Path_98436" data-name="Path 98436" d="M99.629,229.121a8.486,8.486,0,0,0-4.072-1.271.027.027,0,0,0,0,.053,16.074,16.074,0,0,1,4.028,1.334C99.638,229.25,99.678,229.157,99.629,229.121Z" transform="translate(-82.234 -151.336)" fill="#fff"/>
      <path id="Path_98437" data-name="Path 98437" d="M102.743,270.375a8.472,8.472,0,0,0-3.058-1.045c-.036,0-.04.049,0,.058a11.58,11.58,0,0,1,3.023,1.058C102.747,270.468,102.783,270.4,102.743,270.375Z" transform="translate(-84.526 -174.377)" fill="#fff"/>
      <path id="Path_98438" data-name="Path 98438" d="M138.089,244.629a46.1,46.1,0,0,0-7.846,6.855,28.09,28.09,0,0,0-5.5,9.335,69.761,69.761,0,0,0-4.1,22.316,54.376,54.376,0,0,0,1.2,12.549.12.12,0,0,0,.236-.044,70.5,70.5,0,0,1,.124-21.938c1.165-7.113,2.992-14.856,7.517-20.64a57.019,57.019,0,0,1,8.571-8.188C138.458,244.732,138.254,244.514,138.089,244.629Z" transform="translate(-96.178 -160.638)" fill="#ebebeb"/>
      <path id="Path_98439" data-name="Path 98439" d="M122.9,277.585a42.232,42.232,0,0,1,5.717-7.308c3.392-3.392,6.246-5.8,6.69-8.042s-3.4-3.894-3.4-3.894,4.69.845,5.975-1.125,1.9-13.376,1.9-13.376-8.535,6.095-12.514,14.639S122.9,277.585,122.9,277.585Z" transform="translate(-97.437 -160.218)" fill="#ebebeb"/>
      <path id="Path_98440" data-name="Path 98440" d="M136.792,250.366c-3.592,3.525-7.206,7.286-9.335,11.923a45.715,45.715,0,0,0-1.889,4.912h0c-.107.338-.218.676-.32,1.014a.085.085,0,0,0,0,.053,97.033,97.033,0,0,0-2.427,10.54c0,.022.031.031.036,0,.369-1.778.773-3.556,1.227-5.366a.119.119,0,0,0,.053,0,7.62,7.62,0,0,1,2.223-.569c.049,0,.044-.093,0-.089a8.349,8.349,0,0,0-2.223.4c.413-1.614.862-3.227,1.369-4.814a23.7,23.7,0,0,1,5.063-.662v-.027a19.114,19.114,0,0,0-4.979.422c.089-.271.182-.542.271-.813a26.28,26.28,0,0,1,3.37-.573s0-.036,0-.036a16.447,16.447,0,0,0-3.3.4c.445-1.374.965-2.729,1.52-4.045a24.445,24.445,0,0,1,1.614-3.112,20.241,20.241,0,0,1,2.734-.489v-.044a7.411,7.411,0,0,0-2.556.253c.445-.725.92-1.436,1.427-2.125h0a14.375,14.375,0,0,1,5.815-.445.031.031,0,0,0,0-.058,12.207,12.207,0,0,0-5.566.156c.2-.267.409-.533.618-.8a12.638,12.638,0,0,1,3.556-.565v-.04a9.374,9.374,0,0,0-3.334.3c1.583-1.965,3.33-3.814,5.059-5.641C136.939,250.331,136.876,250.282,136.792,250.366Z" transform="translate(-97.392 -163.819)" fill="#fff"/>
      <path id="Path_98441" data-name="Path 98441" d="M151.818,267.808a7.487,7.487,0,0,0-1.7-.058c-.067,0-.062.116,0,.12.56,0,1.125-.027,1.685,0a.036.036,0,0,0,.013-.062Z" transform="translate(-112.529 -173.486)" fill="#fff"/>
      <path id="Path_98442" data-name="Path 98442" d="M136.922,292.8a7.645,7.645,0,0,0-2.632.525v.04c.889-.209,1.747-.293,2.627-.445a.067.067,0,0,0,0-.12Z" transform="translate(-103.764 -187.413)" fill="#fff"/>
      <path id="Path_98443" data-name="Path 98443" d="M134.647,284.2a5.88,5.88,0,0,0-1.116.1.036.036,0,0,0,0,.067,5.509,5.509,0,0,0,1.116-.049.058.058,0,1,0,0-.116Z" transform="translate(-103.329 -182.636)" fill="#fff"/>
      <path id="Path_98444" data-name="Path 98444" d="M66.374,271.88a38.739,38.739,0,0,1,7.935,3.739,23.707,23.707,0,0,1,6.61,6.277,58.768,58.768,0,0,1,8.473,17.11,45.574,45.574,0,0,1,1.92,10.438.1.1,0,0,1-.2,0,59.217,59.217,0,0,0-5.166-17.724c-2.592-5.49-5.859-11.331-10.856-14.968a48.061,48.061,0,0,0-8.829-4.645C66.1,272.053,66.214,271.827,66.374,271.88Z" transform="translate(-65.934 -175.788)" fill="#ebebeb"/>
      <path id="Path_98445" data-name="Path 98445" d="M87.087,294.861a35.687,35.687,0,0,0-6.317-4.592c-3.53-1.96-6.4-3.25-7.273-4.961s1.849-3.934,1.849-3.934-3.6,1.778-5.094.467-4.632-10.38-4.632-10.38,8.317,2.956,13.505,8.953S87.087,294.861,87.087,294.861Z" transform="translate(-65.62 -175.56)" fill="#ebebeb"/>
      <path id="Path_98446" data-name="Path 98446" d="M91.306,295.511C87.149,287.7,81.6,280.641,74,276h0a38.346,38.346,0,0,1,5.566,4.356,8.837,8.837,0,0,0-4.472.942.027.027,0,0,0,0,.049,12.225,12.225,0,0,1,4.6-.778.111.111,0,0,0,.053,0c.271.253.533.516.8.778a13.989,13.989,0,0,0-2.392.316s0,.036,0,.036a12,12,0,0,1,2.521-.209,51.965,51.965,0,0,1,3.925,4.445,3.929,3.929,0,0,0-1.671.12.031.031,0,1,0,0,.062,8.856,8.856,0,0,1,1.778-.022c.227.289.445.578.68.889a15.945,15.945,0,0,0-5.046.489c-.027,0,0,.044,0,.04a20.292,20.292,0,0,1,5.214-.4c.213.28.413.569.622.854a10.92,10.92,0,0,0-3.005.347.031.031,0,0,0,0,.058,11.6,11.6,0,0,1,3.112-.24c.889,1.231,1.751,2.494,2.574,3.765a2.827,2.827,0,0,0-1.334.08v.036a5.894,5.894,0,0,1,1.427.071q1.111,1.725,2.143,3.49C91.2,295.689,91.364,295.613,91.306,295.511Z" transform="translate(-70.275 -178.081)" fill="#fff"/>
      <path id="Path_98447" data-name="Path 98447" d="M95.358,305.3a6.38,6.38,0,0,0-2.418.3v.036a18.146,18.146,0,0,1,2.4-.249C95.4,305.385,95.416,305.305,95.358,305.3Z" transform="translate(-80.795 -194.348)" fill="#fff"/>
      <path id="Path_98448" data-name="Path 98448" d="M80.634,283.9a4.086,4.086,0,0,0-1.116.062c-.04,0-.027.071,0,.067.369-.04.729-.027,1.094-.036a.049.049,0,0,0,.022-.093Z" transform="translate(-73.326 -182.464)" fill="#fff"/>
      <path id="Path_98449" data-name="Path 98449" d="M114.583,351.4H95.81l2.676-19.609.685-5.028h12.051l.685,5.028Z" transform="translate(-82.389 -206.277)" fill="#dbdbdb"/>
      <path id="Path_98450" data-name="Path 98450" d="M115.251,331.788H101.83l.685-5.028h12.051Z" transform="translate(-85.733 -206.277)" fill="#c7c7c7"/>
      <rect id="Rectangle_13023" data-name="Rectangle 13023" width="15.497" height="4.259" transform="translate(15.057 118.741)" fill="#dbdbdb"/>
    </g>
    <g id="freepik--Floor--inject-18" transform="translate(67.105 200.627)">
      <path id="Path_98451" data-name="Path 98451" d="M68.96,381.9l33.789-.107,33.789-.04,67.579-.076,67.579.076,33.789.04,33.789.107-33.789.111-33.789.036-67.579.076-67.579-.076-33.789-.04Z" transform="translate(-68.96 -381.68)" fill="#263238"/>
    </g>
    <g id="freepik--Shadow--inject-18" transform="translate(75.684 206.046)">
      <ellipse id="Ellipse_3781" data-name="Ellipse 3781" cx="127.467" cy="13.967" rx="127.467" ry="13.967" transform="translate(0)" fill="#ebebeb"/>
    </g>
    <g id="freepik--Character--inject-18" transform="translate(86.441 69.423)">
      <path id="Path_98452" data-name="Path 98452" d="M264.23,383.18c-1.036.351-30.735.445-31.873-.258-.445-.267-.7-4.592-.889-9.829-.04-1.129-.071-2.3-.1-3.481L229,353.769l19.858-.129,1.871,15.848-.076,3.485s11.389,5.046,12.554,5.961S265.265,382.828,264.23,383.18Z" transform="translate(-177.192 -234.9)" fill="#eb9481"/>
      <path id="Path_98453" data-name="Path 98453" d="M267.213,402.982c-1.036.351-30.735.445-31.873-.258-.525-.329-.809-6.646-.969-13.309l19.32-.125-.076,3.485s11.389,5.045,12.554,5.961S268.248,402.631,267.213,402.982Z" transform="translate(-180.175 -254.703)" fill="#fff"/>
      <path id="Path_98454" data-name="Path 98454" d="M267.313,407.337c-1.036.351-30.735.445-31.873-.258-.445-.267-.7-4.592-.889-9.829l19.146-.12s11.389,5.046,12.554,5.961S268.348,406.985,267.313,407.337Z" transform="translate(-180.275 -259.057)" fill="#a6a6a6"/>
      <path id="Path_98455" data-name="Path 98455" d="M269.754,417.355c-4.979-.107-25.072-.058-30,.218-.04,0-.04.027,0,.031,4.934.209,25.027,0,30-.169C269.861,417.43,269.861,417.355,269.754,417.355Z" transform="translate(-183.148 -270.262)" fill="#263238"/>
      <path id="Path_98456" data-name="Path 98456" d="M296.5,408.149a4,4,0,0,0-2.974,1.227,3.85,3.85,0,0,0-1.1,2.667c0,.031.053.031.058,0a4.623,4.623,0,0,1,4-3.823.037.037,0,1,0,.018-.071Z" transform="translate(-212.42 -265.177)" fill="#263238"/>
      <path id="Path_98457" data-name="Path 98457" d="M275.069,398.229a6.936,6.936,0,0,0-5.534,2.325c-.044.062.044.129.1.1a27.668,27.668,0,0,1,5.468-2.178.124.124,0,0,0-.036-.245Z" transform="translate(-199.701 -259.668)" fill="#263238"/>
      <path id="Path_98458" data-name="Path 98458" d="M278.547,399.56a7.01,7.01,0,0,0-5.535,2.325c-.049.067.04.133.1.1a27.38,27.38,0,0,1,5.463-2.183.124.124,0,0,0-.031-.244Z" transform="translate(-201.632 -260.407)" fill="#263238"/>
      <path id="Path_98459" data-name="Path 98459" d="M282.009,400.9a7.007,7.007,0,0,0-5.535,2.325c-.044.062.044.129.1.1a27.67,27.67,0,0,1,5.468-2.178.124.124,0,0,0-.036-.244Z" transform="translate(-203.556 -261.152)" fill="#263238"/>
      <path id="Path_98460" data-name="Path 98460" d="M285.477,402.239a6.924,6.924,0,0,0-5.535,2.325c-.049.062.044.129.1.1a27.563,27.563,0,0,1,5.468-2.178.124.124,0,0,0-.036-.245Z" transform="translate(-205.481 -261.895)" fill="#263238"/>
      <path id="Path_98461" data-name="Path 98461" d="M240.527,407.26c-2.223,0-2.223,3.49,0,3.476S242.767,407.247,240.527,407.26Z" transform="translate(-182.669 -264.684)" fill="#263238"/>
      <path id="Path_98462" data-name="Path 98462" d="M280.967,385.818c-1.009-.836-2.28,0-2.9.858a10.482,10.482,0,0,0-1.778,5.1.057.057,0,0,0,.062.058.24.24,0,0,0,.36.156,17.339,17.339,0,0,0,4.121-3.254C281.442,387.93,281.94,386.6,280.967,385.818Zm-2.427,4.241c-.685.5-1.391.969-2.058,1.5.356-1,.662-2,1.116-2.961a11.134,11.134,0,0,1,.72-1.334c.445-.662,2.383-2.334,2.587-.169C281.02,388.281,279.353,389.463,278.539,390.059Z" transform="translate(-203.46 -252.582)" fill="#263238"/>
      <path id="Path_98463" data-name="Path 98463" d="M262.463,397.05a17.47,17.47,0,0,0,5.228-.511.245.245,0,0,0,.147-.365.053.053,0,0,0,0-.084,10.447,10.447,0,0,0-4.828-2.432c-1.049-.2-2.534.089-2.667,1.391C260.183,396.276,261.45,396.89,262.463,397.05Zm-1.209-1.129c-1.334-1.707,1.214-1.854,1.978-1.676a11.365,11.365,0,0,1,1.458.471,30.925,30.925,0,0,1,2.849,1.356c-.845.084-1.676.236-2.516.351C264.019,396.557,262,396.859,261.254,395.921Z" transform="translate(-194.594 -257.097)" fill="#263238"/>
      <path id="Path_98464" data-name="Path 98464" d="M163.32,189.2S186.378,228.426,187,231.182c.947,4.232,5.966,46.023,5.966,46.023l24.005-.445s-4.134-36.848-8.051-48.988c-2.818-8.744-23.169-37.746-23.169-37.746Z" transform="translate(-140.71 -143.56)" fill="#37474f"/>
      <path id="Path_98465" data-name="Path 98465" d="M253.763,377.877c-3.445-.027-15.657-.164-20.244.262-.036,0-.031.062,0,.067,1.578.227,16.795-.124,20.24-.236a.049.049,0,1,0,0-.093Z" transform="translate(-179.688 -248.34)" fill="#263238"/>
      <path id="Path_98466" data-name="Path 98466" d="M172.067,197.275c1.511,2.369,3.112,4.69,4.65,7.041s3.085,4.7,4.61,7.05q4.561,7.113,8.891,14.319a43.845,43.845,0,0,1,3.6,7.019,43.012,43.012,0,0,1,2.023,7.53c.471,2.574.782,5.174,1.071,7.775q.445,4.148.929,8.3.947,8.5,1.9,16.99c.076.693.151,1.387.222,2.085a.094.094,0,0,1-.187,0c-.707-5.623-1.294-11.269-1.934-16.892q-.48-4.21-.956-8.415c-.3-2.609-.582-5.223-.987-7.815a51.123,51.123,0,0,0-1.689-7.557,36.3,36.3,0,0,0-3.316-7.335c-2.778-4.8-5.721-9.509-8.664-14.225s-5.966-9.473-9.069-14.132c-.382-.573-.769-1.147-1.169-1.711C171.96,197.271,172.04,197.231,172.067,197.275Z" transform="translate(-145.522 -148.035)" fill="#263238"/>
      <path id="Path_98467" data-name="Path 98467" d="M142.625,377.4c-1.094-.067-29.34-11.509-30.122-12.594a.373.373,0,0,1-.044-.209c0-.974,1.96-4.37,3.6-8.833.1-.285.831-1.609,1.84-3.392,2.805-4.885,7.695-13.3,7.695-13.3l18.462,7.335-8.837,13.225-1.374,3.2s8.664,8.957,9.393,10.224S143.714,377.46,142.625,377.4Z" transform="translate(-112.457 -226.807)" fill="#eb9481"/>
      <path id="Path_98468" data-name="Path 98468" d="M142.625,394.018c-1.094-.067-29.34-11.509-30.122-12.594a.374.374,0,0,1-.044-.209c0-.974,1.96-4.37,3.6-8.833.1-.284.831-1.609,1.84-3.392l17.337,7.259-1.374,3.2s8.664,8.957,9.393,10.224S143.714,394.08,142.625,394.018Z" transform="translate(-112.457 -243.427)" fill="#fff"/>
      <path id="Path_98469" data-name="Path 98469" d="M142.627,398.256c-1.094-.067-29.34-11.509-30.122-12.594-.3-.413.96-4.268,3.556-9.042l17.782,7.073s8.664,8.949,9.4,10.224S143.716,398.318,142.627,398.256Z" transform="translate(-112.459 -247.665)" fill="#a6a6a6"/>
      <path id="Path_98470" data-name="Path 98470" d="M145.529,408.641c-4.574-1.965-23.218-9.46-27.89-11.051-.04,0-.049,0,0,.027,4.494,2.045,23.2,9.389,27.873,11.113C145.6,408.752,145.626,408.681,145.529,408.641Z" transform="translate(-115.317 -259.313)" fill="#263238"/>
      <path id="Path_98471" data-name="Path 98471" d="M172.077,411.3a4,4,0,0,0-3.218,0,3.867,3.867,0,0,0-2.018,2.054c0,.027.04.049.053.022a4.628,4.628,0,0,1,5.161-2.04A.031.031,0,0,0,172.077,411.3Z" transform="translate(-142.665 -266.739)" fill="#263238"/>
      <path id="Path_98472" data-name="Path 98472" d="M156.656,394.375a6.926,6.926,0,0,0-6,.08c-.067.04,0,.133.058.129a27.709,27.709,0,0,1,5.886.031.125.125,0,0,0,.058-.24Z" transform="translate(-133.659 -257.169)" fill="#263238"/>
      <path id="Path_98473" data-name="Path 98473" d="M159.366,396.915a6.926,6.926,0,0,0-6,.08c-.067.04,0,.133.058.129a27.425,27.425,0,0,1,5.886.031.124.124,0,0,0,.058-.24Z" transform="translate(-135.165 -258.58)" fill="#263238"/>
      <path id="Path_98474" data-name="Path 98474" d="M162.084,399.455a6.926,6.926,0,0,0-6,.08c-.071.04,0,.133.053.129a27.421,27.421,0,0,1,5.886.031.124.124,0,0,0,.062-.24Z" transform="translate(-136.673 -259.991)" fill="#263238"/>
      <path id="Path_98475" data-name="Path 98475" d="M164.794,401.994a6.941,6.941,0,0,0-6,.076c-.071.044,0,.138.053.133a27.423,27.423,0,0,1,5.886.031.124.124,0,0,0,.062-.24Z" transform="translate(-138.178 -261.401)" fill="#263238"/>
      <path id="Path_98476" data-name="Path 98476" d="M121.355,388.6a1.739,1.739,0,0,0-1.28,3.232A1.739,1.739,0,0,0,121.355,388.6Z" transform="translate(-116.099 -254.246)" fill="#263238"/>
      <path id="Path_98477" data-name="Path 98477" d="M164.929,384.888c-.627-1.151-2.107-.867-3.01-.293a10.455,10.455,0,0,0-3.556,4.059.053.053,0,0,0,.036.076c0,.147.1.32.271.285a17.426,17.426,0,0,0,5.041-1.476C164.578,387.022,165.52,385.978,164.929,384.888Zm-3.845,3.018c-.822.209-1.649.378-2.463.618a31.091,31.091,0,0,1,2.138-2.325,11.267,11.267,0,0,1,1.178-.978c.645-.445,3.081-1.267,2.458.818C164.053,387.191,162.066,387.658,161.084,387.907Z" transform="translate(-137.953 -251.817)" fill="#263238"/>
      <path id="Path_98478" data-name="Path 98478" d="M145.595,387.445a17.6,17.6,0,0,0,5.037,1.489c.173.04.289-.133.276-.285a.049.049,0,0,0,.036-.076,10.455,10.455,0,0,0-3.556-4.068c-.889-.578-2.378-.867-3.01.28S144.71,386.925,145.595,387.445Zm-.693-1.5c-.618-2.085,1.814-1.258,2.458-.809a10.816,10.816,0,0,1,1.174.982,31.127,31.127,0,0,1,2.134,2.329c-.813-.24-1.64-.413-2.463-.622C147.208,387.556,145.239,387.112,144.9,385.943Z" transform="translate(-130.075 -251.764)" fill="#263238"/>
      <path id="Path_98479" data-name="Path 98479" d="M141.057,265.524l-20.667-8.344s25.623-37.675,25.81-40.48c.169-2.481-11.087-24.094-11.527-30.393a18.8,18.8,0,0,1,6.392-15.328l21.316,9.064a18.633,18.633,0,0,1-5.779,5.6s10.931,24.983,10.309,32.665S141.057,265.524,141.057,265.524Z" transform="translate(-116.864 -133.44)" fill="#37474f"/>
      <path id="Path_98480" data-name="Path 98480" d="M146.758,365.844c-2.987-1.285-2.112-.96-5.117-2.223-1.467-.613-11.113-4.628-12.6-4.961-.031,0-.053.044-.022.062,1.285.787,11.011,4.632,12.492,5.219,3.027,1.191,2.169.818,5.21,1.974a.044.044,0,1,0,.036-.071Z" transform="translate(-121.65 -237.689)" fill="#263238"/>
      <path id="Path_98481" data-name="Path 98481" d="M201.543,202.935a40.232,40.232,0,0,0-6.49,2.107.068.068,0,1,0,.044.129c2.178-.636,4.392-1.231,6.535-1.983C201.8,203.131,201.712,202.9,201.543,202.935Z" transform="translate(-158.31 -151.188)" fill="#263238"/>
      <path id="Path_98482" data-name="Path 98482" d="M202.967,200.856A9.624,9.624,0,0,0,202.42,202a2.627,2.627,0,0,0-.28.956c0,.067.089.08.129.04a3.338,3.338,0,0,0,.533-.889c.182-.351.369-.7.542-1.058A.212.212,0,1,0,202.967,200.856Z" transform="translate(-162.273 -149.971)" fill="#263238"/>
      <path id="Path_98483" data-name="Path 98483" d="M203.791,193.938c.133-.329.262-.653.4-.982s.311-.667.445-1.014c0-.053.107,0,.084.04-.133.329-.218.676-.32,1.014s-.218.676-.329,1.014a16.447,16.447,0,0,1-.733,1.858,2.356,2.356,0,0,0,1.022-.178,1.836,1.836,0,0,0,.725-.889c.187-.365.36-.738.551-1.1a7.367,7.367,0,0,0,.591-1.24c0-.053.107,0,.084.04a14.427,14.427,0,0,1-1.134,2.627c-.2.325-.356.667-.72.791a3.014,3.014,0,0,1-1.214.084c-.053,0-.116,0-.1-.08Q203.419,194.914,203.791,193.938Z" transform="translate(-162.83 -145.071)" fill="#263238"/>
      <path id="Path_98484" data-name="Path 98484" d="M202.461,205.771c.76,1.6,1.427,3.205,2.134,4.805s1.334,3.147,1.969,4.739c1.271,3.21,2.409,6.481,3.41,9.78.493,1.636.951,3.285,1.36,4.948a35.562,35.562,0,0,1,.987,5.05,13.336,13.336,0,0,1-.445,5.068,29.643,29.643,0,0,1-1.88,4.725c-.467.96-.622.831-.4.347.636-1.378,2.3-5.552,2.183-9.06A26.147,26.147,0,0,0,211,231.2q-.582-2.521-1.311-5c-.947-3.263-2.072-6.459-3.227-9.651-.649-1.778-1.334-3.556-2-5.334s-1.334-3.414-2.08-5.379C202.363,205.753,202.438,205.722,202.461,205.771Z" transform="translate(-162.406 -152.752)" fill="#263238"/>
      <path id="Path_98485" data-name="Path 98485" d="M167.2,188.309c.369-.138.889.089,1.262.151a10.793,10.793,0,0,0,1.463.147,10.572,10.572,0,0,0,1.454-.049,3.112,3.112,0,0,0,1.391-.369,7.082,7.082,0,0,0,1.778-1.88,10.94,10.94,0,0,0,1.383-2.427c0-.053.093,0,.076.036-.156.493-.271.991-.445,1.476a8.963,8.963,0,0,1-.685,1.311,5.606,5.606,0,0,1-1.84,2.089,5.477,5.477,0,0,1-2.916.4,11.39,11.39,0,0,1-1.649-.218c-.391-.084-1.049-.147-1.3-.489a.12.12,0,0,1,.027-.182Z" transform="translate(-142.832 -140.594)" fill="#263238"/>
      <path id="Path_98486" data-name="Path 98486" d="M133.643,255.472q5.094-7.717,10-15.559t9.682-15.8a21.974,21.974,0,0,0,2.125-3.934,6.865,6.865,0,0,0-.249-4.5,76.3,76.3,0,0,0-3.174-8c-1.191-2.627-2.476-5.21-3.739-7.8a80.238,80.238,0,0,1-3.556-7.855,13.6,13.6,0,0,1-.556-7.935,23.016,23.016,0,0,1,3.747-7.268c.409-.587.831-1.169,1.245-1.778.031-.044.1,0,.067.053a31,31,0,0,0-4.405,7.5,12.959,12.959,0,0,0-.854,4.2,13.6,13.6,0,0,0,.671,4.3,56.6,56.6,0,0,0,3.387,7.8c1.231,2.543,2.547,5.174,3.761,7.793a83.421,83.421,0,0,1,3.334,8.086,11.215,11.215,0,0,1,.854,3.814,8.3,8.3,0,0,1-1.427,3.939q-4.668,7.9-9.544,15.648c-3.245,5.174-6.584,10.349-9.962,15.47l-1.28,1.934C133.705,255.659,133.59,255.565,133.643,255.472Z" transform="translate(-124.218 -135.683)" fill="#263238"/>
      <path id="Path_98487" data-name="Path 98487" d="M216.849,133.268c1.925,4.223,11.647,10.042,16.2,10.669a95.679,95.679,0,0,0,16.63.084c4-.613.942-11.394-1.418-11.113-6.49.756-12,1.6-13.736,1.6-2.116,0-13.563-3.672-14.941-4.192C216.2,129.058,215.76,130.872,216.849,133.268Z" transform="translate(-170.149 -110.625)" fill="#eb9481"/>
      <path id="Path_98488" data-name="Path 98488" d="M215.953,133.9c2.436,3.605,10.531,9.5,10.531,9.5l1.125-2.489,3.721-8.233s-7.437-2.334-12.331-3.4a10.723,10.723,0,0,0-1.751-.249C214.122,128.858,213.851,130.788,215.953,133.9Z" transform="translate(-169.191 -110.131)" fill="#07b541"/>
      <path id="Path_98489" data-name="Path 98489" d="M215.953,133.909c2.436,3.605,10.531,9.5,10.531,9.5l1.125-2.489c-3.018-3.507-7.682-8.82-10.362-11.874C214.122,128.868,213.851,130.8,215.953,133.909Z" transform="translate(-169.191 -110.141)" fill="#263238"/>
      <path id="Path_98490" data-name="Path 98490" d="M238.053,146.422c.618-1.516,3.365-7.619,4.05-8.891.044-.089.116-.08.076,0a89.665,89.665,0,0,1-4.063,8.891C238.1,146.475,238.026,146.457,238.053,146.422Z" transform="translate(-182.217 -114.825)" fill="#263238"/>
      <path id="Path_98491" data-name="Path 98491" d="M285.49,136.054c3.948-.516,8.833-1.4,12.972.356a2.223,2.223,0,0,1,1.107.947c1.867.756,2.072,1.863,2.072,1.863a3.7,3.7,0,0,1,1.578,2.4s2.187.889,1.854,2.32c-.365,1.583-3.361,0-5.539.129-5,.311-12,2.147-13.447,2.378Z" transform="translate(-208.57 -113.659)" fill="#eb9481"/>
      <path id="Path_98492" data-name="Path 98492" d="M304.713,147.02a23.026,23.026,0,0,1,9.1.956.04.04,0,1,0,.027-.076,17.021,17.021,0,0,0-9.131-.925C304.642,146.967,304.642,147.025,304.713,147.02Z" transform="translate(-219.218 -119.967)" fill="#263238"/>
      <path id="Path_98493" data-name="Path 98493" d="M303.291,140.512a23.24,23.24,0,0,1,8.184,1.543v-.027a15.3,15.3,0,0,0-8.193-1.587C303.2,140.45,303.193,140.508,303.291,140.512Z" transform="translate(-218.419 -116.446)" fill="#263238"/>
      <path id="Path_98494" data-name="Path 98494" d="M302.6,136.867a23.89,23.89,0,0,1,6.419,1.254v-.027a14.649,14.649,0,0,0-6.432-1.334C302.5,136.8,302.5,136.867,302.6,136.867Z" transform="translate(-218.032 -114.432)" fill="#263238"/>
      <path id="Path_98495" data-name="Path 98495" d="M294.276,156.64c-.636.3-.48.631.733.911s6.259.365,6.081,2.125-7.295,1.538-9.282.916a33.375,33.375,0,0,1-4.979-2.329C288.239,158.027,291.547,157.133,294.276,156.64Z" transform="translate(-209.315 -125.475)" fill="#eb9481"/>
      <path id="Path_98496" data-name="Path 98496" d="M227.533,152.575c-.031.76-.1,1.534-.209,2.3a.093.093,0,0,1,.031-.084c.147-.4.293-.809.471-1.2h.04a6.411,6.411,0,0,1-.382,1.236c-.08.191-.156.378-.24.565-.053.342-.116.68-.182,1.018-.133.636-.733,3.339-.889,3.8-.027.093-.142.071-.133-.036.031-.5.533-3.312.636-3.952a34.548,34.548,0,0,1,.8-3.667C227.493,152.535,227.537,152.553,227.533,152.575Z" transform="translate(-175.547 -123.201)" fill="#263238"/>
      <path id="Path_98497" data-name="Path 98497" d="M187.072,157.792c-1.187.609-2.716,1.556-9.606.2-.445-.089-.862-.2-1.3-.325-6.459-1.938-14.225-9.535-14.648-10.073,0,0,10.264-16.639,23.392-21.871,1.623-.645,4.308.6,5.779,2.152.529.556,1.68,4.641,1.24,7.948S188.255,157.183,187.072,157.792Z" transform="translate(-139.71 -108.205)" fill="#07b541"/>
      <path id="Path_98498" data-name="Path 98498" d="M216.54,148.32a5.041,5.041,0,0,1-.289,2.072A4.823,4.823,0,0,1,216.54,148.32Z" transform="translate(-170.102 -120.853)" fill="#fff"/>
      <path id="Path_98499" data-name="Path 98499" d="M206.468,173.81a4.591,4.591,0,0,1-.036,1.049,4.356,4.356,0,0,1-.253,1.022,4.379,4.379,0,0,1,.036-1.054A4.611,4.611,0,0,1,206.468,173.81Z" transform="translate(-164.507 -135.012)" fill="#fff"/>
      <path id="Path_98500" data-name="Path 98500" d="M189.36,154.54a5.046,5.046,0,0,1-.289,2.076A4.859,4.859,0,0,1,189.36,154.54Z" transform="translate(-155.005 -124.308)" fill="#fff"/>
      <path id="Path_98501" data-name="Path 98501" d="M223.128,172.51a4.619,4.619,0,0,1-.036,1.054,4.357,4.357,0,0,1-.253,1.022,4.379,4.379,0,0,1,.036-1.054,4.588,4.588,0,0,1,.253-1.022Z" transform="translate(-173.761 -134.29)" fill="#fff"/>
      <path id="Path_98502" data-name="Path 98502" d="M201.54,151.219a4.592,4.592,0,0,1,1.049.031,4.369,4.369,0,0,1,1.022.258A5.01,5.01,0,0,1,201.54,151.219Z" transform="translate(-161.939 -122.454)" fill="#fff"/>
      <path id="Path_98503" data-name="Path 98503" d="M182.12,169.634a5.041,5.041,0,0,1,2.072.289,4.823,4.823,0,0,1-2.072-.289Z" transform="translate(-151.152 -132.686)" fill="#fff"/>
      <path id="Path_98504" data-name="Path 98504" d="M205,189.564a5.01,5.01,0,0,1,2.072.289A4.85,4.85,0,0,1,205,189.564Z" transform="translate(-163.861 -143.755)" fill="#fff"/>
      <path id="Path_98505" data-name="Path 98505" d="M176.13,182.324a5.042,5.042,0,0,1,2.072.289A4.85,4.85,0,0,1,176.13,182.324Z" transform="translate(-147.825 -139.734)" fill="#fff"/>
      <path id="Path_98506" data-name="Path 98506" d="M216.77,130.384a5.041,5.041,0,0,1,2.072.289A5.041,5.041,0,0,1,216.77,130.384Z" transform="translate(-170.399 -110.884)" fill="#fff"/>
      <path id="Path_98507" data-name="Path 98507" d="M209.054,136.78a4.335,4.335,0,0,1-.765.72,4.722,4.722,0,0,1-.889.542,4.52,4.52,0,0,1,.756-.72A4.685,4.685,0,0,1,209.054,136.78Z" transform="translate(-165.194 -114.443)" fill="#fff"/>
      <path id="Path_98508" data-name="Path 98508" d="M178.258,154.91a4.494,4.494,0,0,1-.769.716,4.193,4.193,0,0,1-.889.542,4.681,4.681,0,0,1,.769-.716,4.3,4.3,0,0,1,.889-.542Z" transform="translate(-148.086 -124.514)" fill="#fff"/>
      <path id="Path_98509" data-name="Path 98509" d="M216.708,163.09a4.521,4.521,0,0,1-.769.72,4.3,4.3,0,0,1-.889.542,4.521,4.521,0,0,1,.769-.72A4.588,4.588,0,0,1,216.708,163.09Z" transform="translate(-169.444 -129.057)" fill="#fff"/>
      <path id="Path_98510" data-name="Path 98510" d="M191.808,178.77a4.52,4.52,0,0,1-.769.72,4.383,4.383,0,0,1-.889.542,4.521,4.521,0,0,1,.769-.72A4.588,4.588,0,0,1,191.808,178.77Z" transform="translate(-155.613 -137.767)" fill="#fff"/>
      <path id="Path_98511" data-name="Path 98511" d="M226.248,141.67a4.521,4.521,0,0,1-.769.72,4.724,4.724,0,0,1-.889.542,4.521,4.521,0,0,1,.769-.72A4.384,4.384,0,0,1,226.248,141.67Z" transform="translate(-174.743 -117.159)" fill="#fff"/>
      <path id="Path_98512" data-name="Path 98512" d="M226.222,157.768a4.521,4.521,0,0,1-.72-.769,4.271,4.271,0,0,1-.542-.889,4.334,4.334,0,0,1,.72.765A4.86,4.86,0,0,1,226.222,157.768Z" transform="translate(-174.948 -125.18)" fill="#fff"/>
      <path id="Path_98513" data-name="Path 98513" d="M170.723,170.288a4.522,4.522,0,0,1-.72-.769,4.587,4.587,0,0,1-.542-.889,4.52,4.52,0,0,1,.72.769A4.382,4.382,0,0,1,170.723,170.288Z" transform="translate(-144.12 -132.135)" fill="#fff"/>
      <path id="Path_98514" data-name="Path 98514" d="M219.472,185.184a4.335,4.335,0,0,1-.72-.765,4.722,4.722,0,0,1-.542-.889,4.521,4.521,0,0,1,.72.769A4.466,4.466,0,0,1,219.472,185.184Z" transform="translate(-171.199 -140.411)" fill="#fff"/>
      <path id="Path_98515" data-name="Path 98515" d="M195.042,142.734a4.493,4.493,0,0,1-.72-.765,4.86,4.86,0,0,1-.542-.889,4.333,4.333,0,0,1,.72.765,4.86,4.86,0,0,1,.542.889Z" transform="translate(-157.629 -116.832)" fill="#fff"/>
      <path id="Path_98516" data-name="Path 98516" d="M195.472,193.658a4.521,4.521,0,0,1-.72-.769,4.684,4.684,0,0,1-.542-.889,4.335,4.335,0,0,1,.72.765A4.633,4.633,0,0,1,195.472,193.658Z" transform="translate(-157.868 -145.116)" fill="#fff"/>
      <path id="Path_98517" data-name="Path 98517" d="M199.628,163.618a4.681,4.681,0,0,1-.716-.769,4.193,4.193,0,0,1-.542-.889,4.5,4.5,0,0,1,.716.769,4.3,4.3,0,0,1,.542.889Z" transform="translate(-160.178 -128.43)" fill="#fff"/>
      <path id="Path_98518" data-name="Path 98518" d="M217.42,125.454c-1.676-.311-3.25-3.774-3.45-6.1,0-.16.782-1.427,1.676-3.014.542-.965,1.116-2.054,1.574-3.085.093-.209.64.5.64.5l1.191.889,3.934,3.018a17.934,17.934,0,0,0-2.369,3.676,2.224,2.224,0,0,0-.142.445.538.538,0,0,0,0,.076C220.229,122.734,219.033,125.752,217.42,125.454Z" transform="translate(-168.844 -101.353)" fill="#eb9481"/>
      <path id="Path_98519" data-name="Path 98519" d="M224.219,122.565a.543.543,0,0,0,0,.076,4.4,4.4,0,0,1-.68-.262c-4.308-2.018-2.409-7.788-2.409-7.788l1.689.836,3.934,3.018a17.932,17.932,0,0,0-2.369,3.676A2.223,2.223,0,0,0,224.219,122.565Z" transform="translate(-172.589 -102.117)" fill="#263238"/>
      <path id="Path_98520" data-name="Path 98520" d="M244.42,95.58a4.492,4.492,0,0,1,1.978,3.472,9.262,9.262,0,0,1-1.076,4.477C245.136,103.608,244.42,95.58,244.42,95.58Z" transform="translate(-185.757 -91.558)" fill="#263238"/>
      <path id="Path_98521" data-name="Path 98521" d="M221.409,94.343c-1.182,2.334-1.12,9.691.356,11.585,2.143,2.747,6.268,3.694,8.762.978,2.414-2.632,2.165-12.216.445-14C228.468,90.262,223.16,90.889,221.409,94.343Z" transform="translate(-172.517 -89.165)" fill="#eb9481"/>
      <path id="Path_98522" data-name="Path 98522" d="M222.87,124h0" transform="translate(-173.787 -107.344)" fill="none" stroke="#f5a79e" stroke-linecap="round" stroke-linejoin="round" stroke-width="0"/>
      <path id="Path_98523" data-name="Path 98523" d="M235.921,111.43s-.04.027-.036.044c.027.5-.027,1.08-.476,1.258v.027C235.966,112.67,236.028,111.9,235.921,111.43Z" transform="translate(-180.753 -100.362)" fill="#263238"/>
      <path id="Path_98524" data-name="Path 98524" d="M234.745,110.279c-.809-.044-.836,1.574-.084,1.614S235.421,110.314,234.745,110.279Z" transform="translate(-180.035 -99.722)" fill="#263238"/>
      <path id="Path_98525" data-name="Path 98525" d="M242.68,111.39a.041.041,0,0,1,.04.044c-.027.5.031,1.08.485,1.254v.027C242.645,112.63,242.578,111.861,242.68,111.39Z" transform="translate(-184.769 -100.34)" fill="#263238"/>
      <path id="Path_98526" data-name="Path 98526" d="M243.153,110.229c.8-.049.845,1.569.1,1.614S242.478,110.269,243.153,110.229Z" transform="translate(-184.784 -99.694)" fill="#263238"/>
      <path id="Path_98527" data-name="Path 98527" d="M233.834,106.088a6.508,6.508,0,0,0,.627-.213,1.067,1.067,0,0,0,.6-.338.342.342,0,0,0-.049-.413.849.849,0,0,0-.854-.1,1.258,1.258,0,0,0-.729.529.369.369,0,0,0,.4.538Z" transform="translate(-179.63 -96.763)" fill="#263238"/>
      <path id="Path_98528" data-name="Path 98528" d="M243.354,107.746a6.518,6.518,0,0,1-.64-.178,1.067,1.067,0,0,1-.618-.307.333.333,0,0,1,.027-.413.84.84,0,0,1,.845-.147,1.245,1.245,0,0,1,.756.489.365.365,0,0,1-.369.556Z" transform="translate(-184.434 -97.705)" fill="#263238"/>
      <path id="Path_98529" data-name="Path 98529" d="M233.908,122.089c.12.12.236.28.418.3a1.334,1.334,0,0,0,.542-.116s.031,0,0,.027a.671.671,0,0,1-.64.262.538.538,0,0,1-.391-.445.038.038,0,0,1,.071-.027Z" transform="translate(-179.878 -106.269)" fill="#263238"/>
      <path id="Path_98530" data-name="Path 98530" d="M237.843,111.247s.022.747,0,1.1a7.326,7.326,0,0,0-2.049.071c-.16.036-.142-.093.04-.178a3.005,3.005,0,0,1,1.743-.231c.036-.093-.058-1.156,0-1.151a2.97,2.97,0,0,1,.773.267c0-1.565-.249-3.112-.227-4.677a.047.047,0,0,1,.093,0,25.178,25.178,0,0,1,.445,5.023C238.665,111.66,237.976,111.318,237.843,111.247Z" transform="translate(-180.905 -97.57)" fill="#263238"/>
      <path id="Path_98531" data-name="Path 98531" d="M236.343,119.162a2.223,2.223,0,0,1-.934,1.116c-.671.271-.889-.338-.213-.889A2.169,2.169,0,0,1,236.343,119.162Z" transform="translate(-180.406 -104.653)" fill="#263238"/>
      <path id="Path_98532" data-name="Path 98532" d="M235.637,120.615a.889.889,0,0,1-.236.138c-.618.249-.862-.245-.365-.742C235.375,120.037,235.762,120.161,235.637,120.615Z" transform="translate(-180.398 -105.128)" fill="#ff99ba"/>
      <path id="Path_98533" data-name="Path 98533" d="M220.117,98c.814.249,1.747-2.2,2.014-3.112.231-.827.5-3.454.538-3.636s3.556,2.325,5.592,1.729,3.419-2.441,3.45-3.3-2.516-3.036-4.717-3.147S221.81,89.2,221.81,89.2a10.224,10.224,0,0,0,.978-1.307,2.419,2.419,0,0,0-1.72,1.485s.285-1.276.178-1.3-1.214,1.067-.965,1.894a4.33,4.33,0,0,0-1.4,2.32C218.77,93.511,219.161,97.707,220.117,98Z" transform="translate(-171.563 -86.533)" fill="#263238"/>
      <path id="Path_98534" data-name="Path 98534" d="M233.48,97.329a6.762,6.762,0,0,1-1.934.693,4.592,4.592,0,0,1-2.223-.356,6.828,6.828,0,0,1-1.938-1.147c-.511-.418-.969-.929-1.516-1.3-.138-.1-.293.1-.209.227a7.344,7.344,0,0,0,3.716,2.738,4.236,4.236,0,0,0,4.1-.836S233.488,97.329,233.48,97.329Z" transform="translate(-175.324 -91.342)" fill="#263238"/>
      <path id="Path_98535" data-name="Path 98535" d="M219.865,109.1s-1.262-2.561-2.4-2.147-.445,3.956.725,4.605a1.267,1.267,0,0,0,1.778-.418Z" transform="translate(-170.463 -97.851)" fill="#eb9481"/>
      <path id="Path_98536" data-name="Path 98536" d="M218.685,109.28s-.027,0,0,.036a3.179,3.179,0,0,1,1.334,2.223.7.7,0,0,0-1-.347c-.027,0,0,.049,0,.049a.778.778,0,0,1,.8.4,3.756,3.756,0,0,1,.3.747c.027.084.173.062.16-.031h0C220.472,111.249,219.85,109.573,218.685,109.28Z" transform="translate(-171.456 -99.168)" fill="#263238"/>
      <path id="Path_98537" data-name="Path 98537" d="M204.719,135.3c-.889,5.037,4.57,22,8.068,25.174,5.206,4.712,14.83,7.811,18.319,8.82,1.52.445,5.726-10.256,4.188-10.962-3.294-1.5-13.527-4.7-14.5-5.5s-6.841-9.278-9.455-14.159C207.84,132.1,205.16,132.75,204.719,135.3Z" transform="translate(-163.652 -112.614)" fill="#eb9481"/>
      <path id="Path_98538" data-name="Path 98538" d="M260.171,187.25s4.543,1.16,7.473,2.054a18.926,18.926,0,0,1,5.4,2.525c1.547,1.374,7.139,8.1,5.539,9.486-1.449,1.262-5.521-5.126-5.521-5.126s4.677,6.081,2.667,7.277-5.686-6.633-5.686-6.633,4.663,6.357,2.383,7.259c-1.725.68-5.423-6.224-5.423-6.224s3.974,5.49,2.223,6.268c-1.929.862-5.739-5.3-5.739-5.3-4.765,1.231-7.557-.133-9.393-1.334C253.663,197.212,260.171,187.25,260.171,187.25Z" transform="translate(-191.12 -142.477)" fill="#eb9481"/>
      <path id="Path_98539" data-name="Path 98539" d="M293.412,202.381c.578.693,1.165,1.4,1.676,2.138s1,1.507,1.436,2.294a15.389,15.389,0,0,1,1.423,3.227,33.087,33.087,0,0,0-3.067-5.388c-.511-.742-.987-1.511-1.494-2.254C293.372,202.381,293.4,202.363,293.412,202.381Z" transform="translate(-212.954 -150.878)" fill="#263238"/>
      <path id="Path_98540" data-name="Path 98540" d="M287.307,206.433a19.019,19.019,0,0,1,3.85,5.641c.036.08,0,.076-.058,0-.622-.965-3.147-4.7-3.814-5.628C287.272,206.433,287.294,206.42,287.307,206.433Z" transform="translate(-209.565 -153.13)" fill="#263238"/>
      <path id="Path_98541" data-name="Path 98541" d="M281.4,208.979a13.927,13.927,0,0,1,2.854,4.445c.031.08-.031.067-.08,0-.92-1.5-1.631-2.667-2.823-4.405C281.337,208.979,281.377,208.939,281.4,208.979Z" transform="translate(-206.271 -154.538)" fill="#263238"/>
      <path id="Path_98542" data-name="Path 98542" d="M208.717,134.2c-4.059-5.739-6.486-3.614-5.672,2.618a100.565,100.565,0,0,0,2.805,12.772l10.224-4.961S211.3,137.877,208.717,134.2Z" transform="translate(-162.688 -111.148)" fill="#07b541"/>
      <path id="Path_98543" data-name="Path 98543" d="M221.542,143.47a4.57,4.57,0,0,1,.289,1.009,4.617,4.617,0,0,1,.067,1.054,4.6,4.6,0,0,1-.284-1.014A4.342,4.342,0,0,1,221.542,143.47Z" transform="translate(-173.046 -118.159)" fill="#fff"/>
      <path id="Path_98544" data-name="Path 98544" d="M207.92,150.87a4.89,4.89,0,0,1,2.058-.356,4.561,4.561,0,0,1-1.009.285A4.357,4.357,0,0,1,207.92,150.87Z" transform="translate(-165.483 -122.069)" fill="#fff"/>
      <path id="Path_98545" data-name="Path 98545" d="M207,131.24a4.961,4.961,0,0,1-1.2,1.711,4.961,4.961,0,0,1,1.2-1.711Z" transform="translate(-164.306 -111.366)" fill="#fff"/>
      <path id="Path_98546" data-name="Path 98546" d="M226.495,157.35a4.639,4.639,0,0,1-.511.92,4.494,4.494,0,0,1-.693.791,4.961,4.961,0,0,1,1.2-1.711Z" transform="translate(-175.132 -125.869)" fill="#fff"/>
      <path id="Path_98547" data-name="Path 98547" d="M209.861,163.675a4.961,4.961,0,0,1-1.711-1.2,4.961,4.961,0,0,1,1.711,1.2Z" transform="translate(-165.611 -128.713)" fill="#fff"/>
      <path id="Path_98548" data-name="Path 98548" d="M218.961,142.28c.547.751,1.111,1.485,1.671,2.223q-.213-.56-.373-1.134h.027c.111.293.24.582.347.889l.16.445a.8.8,0,0,1,.036.093c.445.573.889,1.147,1.3,1.734.5.7.987,1.414,1.476,2.125s.982,1.6,1.511,2.312c.049.062-.889.445-.991.493s-.156-.036-.058-.067.845-.489.854-.5c-.489-.72-1.054-1.383-1.565-2.08s-1.018-1.4-1.511-2.1c-1-1.44-1.916-2.934-2.912-4.379Z" transform="translate(-171.599 -117.498)" fill="#263238"/>
      <path id="Path_98549" data-name="Path 98549" d="M203.686,151.022a9.57,9.57,0,0,1,.445.911l.169.387c-.236-1.107-.445-2.223-.689-3.33h0c.471,1.778.947,3.6,1.383,5.4.413,1.725.916,3.467,1.156,5.228a5.8,5.8,0,0,1,.96-.325,4.739,4.739,0,0,1-1.058.511,55.491,55.491,0,0,1-1.334-5.441c-.111-.5-.213-1-.32-1.494-.116-.3-.253-.591-.391-.889s-.262-.631-.387-.947C203.646,151.017,203.677,151,203.686,151.022Z" transform="translate(-163.089 -121.225)" fill="#263238"/>
      <path id="Path_98550" data-name="Path 98550" d="M209.868,163.575c1.423-.8,7.366-3.876,8.7-4.445.093-.04.142,0,.049.062a89.607,89.607,0,0,1-8.713,4.445C209.863,163.646,209.828,163.6,209.868,163.575Z" transform="translate(-166.555 -126.849)" fill="#263238"/>
    </g>
    <g id="freepik--Folder--inject-18" transform="translate(137.44 100.446)">
      <path id="Path_98551" data-name="Path 98551" d="M407.082,293.268H271.64L291.222,182.2H426.664Z" transform="translate(-251.876 -170.695)" fill="#c1973a"/>
      <path id="Path_98552" data-name="Path 98552" d="M362.046,156.32H317.722l-2.032,11.5h47.437Z" transform="translate(-276.344 -156.32)" fill="#c1973a"/>
      <g id="Group_37330" data-name="Group 37330" transform="translate(19.764)" opacity="0.1">
        <path id="Path_98553" data-name="Path 98553" d="M407.082,293.268H271.64L292.358,182.2H425.111Z" transform="translate(-271.64 -170.695)"/>
        <path id="Path_98554" data-name="Path 98554" d="M344.944,161.71H316.972l-1.282-5.39h29.935Z" transform="translate(-296.108 -144.815)"/>
      </g>
      <path id="Path_98555" data-name="Path 98555" d="M309.222,162.047a8.522,8.522,0,0,1,0-3.867A8.52,8.52,0,0,1,309.222,162.047Z" transform="translate(-272.628 -157.353)" fill="#263238"/>
      <path id="Path_98556" data-name="Path 98556" d="M298.218,165.263a7.558,7.558,0,0,1-1.16-1.565,7.714,7.714,0,0,1-.778-1.778,7.37,7.37,0,0,1,1.16,1.56A7.827,7.827,0,0,1,298.218,165.263Z" transform="translate(-265.562 -159.431)" fill="#263238"/>
      <path id="Path_98557" data-name="Path 98557" d="M290.057,173.674a8.526,8.526,0,0,1-3.347-1.934,7.627,7.627,0,0,1,1.778.773A7.813,7.813,0,0,1,290.057,173.674Z" transform="translate(-260.247 -164.885)" fill="#263238"/>
      <path id="Path_98558" data-name="Path 98558" d="M287.167,184.772a8.522,8.522,0,0,1-3.867,0A8.522,8.522,0,0,1,287.167,184.772Z" transform="translate(-258.352 -172.001)" fill="#263238"/>
      <path id="Path_98559" data-name="Path 98559" d="M290.423,193.91a7.841,7.841,0,0,1-1.565,1.16,7.628,7.628,0,0,1-1.778.773,7.558,7.558,0,0,1,1.565-1.16,7.468,7.468,0,0,1,1.778-.773Z" transform="translate(-260.452 -177.2)" fill="#263238"/>
      <path id="Path_98560" data-name="Path 98560" d="M298.824,200.3a8.5,8.5,0,0,1-1.934,3.352,7.48,7.48,0,0,1,.778-1.778A7.694,7.694,0,0,1,298.824,200.3Z" transform="translate(-265.901 -180.749)" fill="#263238"/>
      <path id="Path_98561" data-name="Path 98561" d="M309.921,202.51a7.758,7.758,0,0,1,.222,1.934,7.559,7.559,0,0,1-.222,1.934,7.366,7.366,0,0,1-.222-1.934A7.757,7.757,0,0,1,309.921,202.51Z" transform="translate(-273.015 -181.977)" fill="#263238"/>
      <path id="Path_98562" data-name="Path 98562" d="M319.06,199.989a7.556,7.556,0,0,1,1.16,1.565,7.467,7.467,0,0,1,.773,1.778,8.5,8.5,0,0,1-1.934-3.352Z" transform="translate(-278.216 -180.571)" fill="#263238"/>
      <path id="Path_98563" data-name="Path 98563" d="M325.45,193.3a7.467,7.467,0,0,1,1.778.773,7.558,7.558,0,0,1,1.565,1.16,7.468,7.468,0,0,1-1.778-.774A7.557,7.557,0,0,1,325.45,193.3Z" transform="translate(-281.765 -176.861)" fill="#263238"/>
      <path id="Path_98564" data-name="Path 98564" d="M327.66,184.062a8.544,8.544,0,0,1,3.872,0A8.544,8.544,0,0,1,327.66,184.062Z" transform="translate(-282.993 -171.606)" fill="#263238"/>
      <path id="Path_98565" data-name="Path 98565" d="M325.089,173.064a7.694,7.694,0,0,1,1.565-1.156,7.308,7.308,0,0,1,1.778-.778,8.5,8.5,0,0,1-3.352,1.934Z" transform="translate(-281.56 -164.546)" fill="#263238"/>
      <path id="Path_98566" data-name="Path 98566" d="M318.45,164.913a7.815,7.815,0,0,1,.773-1.778,7.556,7.556,0,0,1,1.16-1.565,7.468,7.468,0,0,1-.774,1.778,7.557,7.557,0,0,1-1.16,1.565Z" transform="translate(-277.877 -159.236)" fill="#263238"/>
      <path id="Path_98567" data-name="Path 98567" d="M382.186,298.306H246.455L227.18,191.27H362.915Z" transform="translate(-227.18 -175.733)" fill="#f7e17b"/>
      <circle id="Ellipse_3782" data-name="Ellipse 3782" cx="5.641" cy="5.641" r="5.641" transform="translate(41.395 69.686)" fill="#263238"/>
      <circle id="Ellipse_3783" data-name="Ellipse 3783" cx="5.641" cy="5.641" r="5.641" transform="translate(85.992 69.686)" fill="#263238"/>
      <path id="Path_98568" data-name="Path 98568" d="M379.795,331.286l-.311-.591c-.027-.053-2.943-5.441-8.806-5.441-5.334,0-6.668,5.072-6.7,5.29l-.16.645-1.294-.311.156-.649c0-.062,1.591-6.308,8-6.308,6.668,0,9.855,5.9,9.989,6.157l.311.587Z" transform="translate(-302.356 -249.415)" fill="#263238"/>
    </g>
    <g id="freepik--Fly--inject-18" transform="translate(283.391 68.202)">
      <path id="Path_98569" data-name="Path 98569" d="M555.593,323.989l-.093-.445c.289-.062.573-.129.858-.2l.111.445C556.167,323.86,555.887,323.927,555.593,323.989Z" transform="translate(-555.5 -216.849)" fill="#263238"/>
      <path id="Path_98570" data-name="Path 98570" d="M559.978,198.572l-.142-.418c.556-.191,1.111-.4,1.649-.627l.173.409C561.112,198.168,560.547,198.381,559.978,198.572Zm3.312-1.418-.2-.391a17.6,17.6,0,0,0,1.534-.889l.231.378A11.366,11.366,0,0,1,563.29,197.154Zm3.058-1.88-.262-.36c.48-.351.942-.72,1.378-1.1l.293.333c-.467.4-.911.782-1.414,1.142Zm2.712-2.365-.324-.307c.409-.445.8-.889,1.151-1.334l.351.271c-.369.489-.765.947-1.169,1.387Zm2.2-2.845-.378-.236a12.928,12.928,0,0,0,.818-1.547l.409.182a15,15,0,0,1-.854,1.618Zm1.471-3.3-.444-.124a11.623,11.623,0,0,0,.36-1.7l.445.058a11.414,11.414,0,0,1-.365,1.787Zm.493-3.556h-.445v-.129c0-.538-.031-1.085-.084-1.623l.445-.044a16.127,16.127,0,0,1,.089,1.667Zm-.8-3.481a17.478,17.478,0,0,0-.445-1.7l.445-.133a14.9,14.9,0,0,1,.445,1.738Zm-1.054-3.347c-.213-.525-.445-1.062-.729-1.6l.4-.2c.271.551.52,1.1.738,1.636Zm-1.556-3.17c-.276-.485-.578-1-.889-1.52l.378-.236c.324.529.631,1.045.889,1.538Zm-1.858-3.018c-.325-.489-.654-.982-.991-1.476l.369-.249c.338.493.667.987.991,1.485Zm-2-2.943c-.333-.489-.671-.982-1-1.471l.369-.249c.329.489.662.982,1,1.467Zm-1.987-2.961c-.324-.5-.64-1-.951-1.511l.378-.231c.311.507.627,1,.947,1.5Zm-1.854-3.054c-.3-.538-.582-1.071-.836-1.583l.4-.2c.249.507.529,1.031.822,1.565Zm-1.578-3.2c-.236-.556-.444-1.12-.64-1.671l.445-.142c.187.538.4,1.094.627,1.64Zm-1.156-3.392c-.147-.578-.276-1.169-.373-1.778l.445-.071c.1.569.218,1.147.365,1.716Zm-.6-3.556c-.044-.547-.067-1.1-.067-1.649v-.147h.445v.142a13.021,13.021,0,0,0,.067,1.614Zm.445-3.556-.445-.044a3.745,3.745,0,0,1,.036-.373c.053-.476.12-.951.2-1.4l.445.076c-.076.445-.142.911-.2,1.378a.916.916,0,0,1-.018.382Zm.618-3.459-.445-.12c.164-.587.356-1.16.569-1.707l.413.16a16.272,16.272,0,0,0-.516,1.68ZM582,141.48a5.558,5.558,0,0,1-.76-.071c-.347-.049-.693-.107-1.036-.173l.089-.445c.329.062.671.12,1.009.169.24.031.485.053.72.067Zm1.827-.138-.093-.445a5.13,5.13,0,0,0,1.583-.613l.231.378a5.533,5.533,0,0,1-1.7.693Zm-22.7-.529-.4-.209a15.761,15.761,0,0,1,.938-1.538l.365.253a14.523,14.523,0,0,0-.885,1.507Zm17.337-.027a17.12,17.12,0,0,1-1.689-.636l.182-.409a15.153,15.153,0,0,0,1.64.618Zm8.446-1.387-.369-.249a3.11,3.11,0,0,0,.542-1.551l.445.031a3.556,3.556,0,0,1-.6,1.783Zm-11.736-.067a16.311,16.311,0,0,1-1.507-.991l.262-.356a15.7,15.7,0,0,0,1.467.96Zm-12.047-1.387-.329-.3a15.043,15.043,0,0,1,1.285-1.267l.293.333a14.858,14.858,0,0,0-1.236,1.245Zm9.153-.751a16.457,16.457,0,0,1-1.258-1.294l.333-.293a16.357,16.357,0,0,0,1.222,1.258Zm14.47-1.2a4.342,4.342,0,0,0-1.036-1.334l.293-.333a4.8,4.8,0,0,1,1.142,1.463Zm-20.991-.351-.253-.365a17.167,17.167,0,0,1,1.543-.938l.209.391a16.8,16.8,0,0,0-1.485.925Zm4.152-1.156c-.169-.24-.333-.485-.489-.738l-.578.227-.169-.409.511-.2c-.08-.133-.16-.267-.236-.4l.387-.218c.089.156.178.311.271.445q.373-.133.76-.253l.129.445c-.218.067-.445.138-.649.213a5.42,5.42,0,0,0,.445.636Zm14.372-.765a9.464,9.464,0,0,0-1.334-.542l-.293-.093.129-.445.3.1a9.605,9.605,0,0,1,1.387.565Zm-12.083-.8-.093-.445c.573-.129,1.169-.236,1.778-.32l.067.445c-.587.093-1.169.2-1.738.333Zm8.757-.24c-.556-.1-1.142-.173-1.743-.227l.036-.445c.618.053,1.218.129,1.778.231Zm-5.268-.258-.031-.445c.529-.031,1.058-.049,1.583-.049h.218v.445h-.213c-.5.013-1.027.027-1.543.062Zm-7.513-1.062c-.24-.542-.445-1.107-.645-1.68l.445-.138c.187.56.4,1.111.627,1.64Zm-1.125-3.414c-.133-.573-.245-1.169-.329-1.778l.445-.062c.084.587.191,1.169.32,1.734Zm-.5-3.556c-.022-.4-.036-.809-.036-1.218V122.6h.445v.569c0,.4,0,.8.031,1.191Zm.529-3.556-.445-.044c.062-.587.147-1.187.249-1.778l.445.076a16.9,16.9,0,0,0-.262,1.756Zm.609-3.472-.445-.107c.142-.573.307-1.151.489-1.729l.445.138c-.2.582-.365,1.147-.5,1.707ZM568.762,114l-.413-.16c.218-.556.445-1.111.716-1.649l.4.2a17.418,17.418,0,0,0-.716,1.64Zm1.529-3.17-.387-.227c.3-.511.627-1.022.965-1.511l.365.253c-.347.489-.662.987-.956,1.494Zm2-2.894-.347-.28c.373-.445.773-.916,1.187-1.334l.32.307a16.334,16.334,0,0,0-1.174,1.316Zm2.418-2.561-.3-.329c.445-.4.889-.787,1.365-1.165l.276.351c-.476.378-.929.765-1.356,1.151Zm2.761-2.2-.253-.369c.485-.333.991-.662,1.507-.974l.227.378c-.516.316-1,.64-1.494.974Zm3.018-1.836-.209-.391c.525-.28,1.067-.547,1.609-.8l.187.4c-.565.253-1.085.52-1.6.791Zm3.214-1.476-.164-.418c.56-.218,1.125-.445,1.685-.609l.142.445c-.565.169-1.125.373-1.676.591Z" transform="translate(-557.289 -92.148)" fill="#263238"/>
      <path id="Path_98571" data-name="Path 98571" d="M622.5,97.809l-.111-.445c.551-.142.889-.2.889-.2l.08.445S623.039,97.671,622.5,97.809Z" transform="translate(-592.655 -91.215)" fill="#263238"/>
      <path id="Path_98572" data-name="Path 98572" d="M631.028,89.641c-1.134-3.512-8.726-2.249-7.246,2.343S632.161,93.157,631.028,89.641Z" transform="translate(-593.322 -85.918)" fill="#263238"/>
      <path id="Path_98573" data-name="Path 98573" d="M614.729,86.1c.058-1.543,2.2-2.729,5.232-2.183a16.909,16.909,0,0,1,5.881,2.592,17.183,17.183,0,0,1-6.055,2.147C616.724,88.993,614.671,87.642,614.729,86.1Z" transform="translate(-588.399 -83.786)" fill="#ebebeb"/>
      <path id="Path_98574" data-name="Path 98574" d="M627.954,89.467c-1.574,0-3.143-.044-4.712-.093s-3.143-.129-4.712-.253c1.574,0,3.147.04,4.717.089S626.389,89.338,627.954,89.467Z" transform="translate(-590.511 -86.749)" fill="#263238"/>
      <path id="Path_98575" data-name="Path 98575" d="M621.58,85.91a13.227,13.227,0,0,1,2.512,1.569,11.843,11.843,0,0,1-1.3-.711A12.724,12.724,0,0,1,621.58,85.91Z" transform="translate(-592.205 -84.966)" fill="#263238"/>
      <path id="Path_98576" data-name="Path 98576" d="M627.6,89.57a14.434,14.434,0,0,1-2.6,1.68,14.434,14.434,0,0,1,2.614-1.68Z" transform="translate(-594.105 -86.999)" fill="#263238"/>
      <path id="Path_98577" data-name="Path 98577" d="M631.88,87.62a3.219,3.219,0,0,1,1.147.925,3.044,3.044,0,0,1-.627-.4,3.256,3.256,0,0,1-.52-.529Z" transform="translate(-597.926 -85.915)" fill="#263238"/>
      <path id="Path_98578" data-name="Path 98578" d="M620.769,101.013c.947,1.218,3.378.925,5.517-1.289a17.109,17.109,0,0,0,3.272-5.543,17.127,17.127,0,0,0-6.175,1.778C620.711,97.47,619.818,99.79,620.769,101.013Z" transform="translate(-591.549 -89.559)" fill="#ebebeb"/>
      <path id="Path_98579" data-name="Path 98579" d="M631.7,94.18c-1.28.889-2.525,1.876-3.774,2.832s-2.472,1.943-3.667,2.961c1.28-.889,2.525-1.872,3.77-2.827S630.488,95.2,631.7,94.18Z" transform="translate(-593.694 -89.559)" fill="#263238"/>
      <path id="Path_98580" data-name="Path 98580" d="M628.58,104.578a12.672,12.672,0,0,0,.636-1.334,11.864,11.864,0,0,0,.48-1.4,12.362,12.362,0,0,0-.636,1.334,12.692,12.692,0,0,0-.48,1.4Z" transform="translate(-596.093 -93.814)" fill="#263238"/>
      <path id="Path_98581" data-name="Path 98581" d="M630.112,99.614a14.7,14.7,0,0,0-3.112.164,12.983,12.983,0,0,0,1.556,0A13.827,13.827,0,0,0,630.112,99.614Z" transform="translate(-595.215 -92.566)" fill="#263238"/>
      <path id="Path_98582" data-name="Path 98582" d="M635.93,98.847a3.176,3.176,0,0,0,.276-.693,3.33,3.33,0,0,0,.116-.733,3.312,3.312,0,0,0-.391,1.427Z" transform="translate(-600.176 -91.359)" fill="#263238"/>
      <path id="Path_98583" data-name="Path 98583" d="M638.139,88.909A1.334,1.334,0,1,1,639,87.233,1.334,1.334,0,0,1,638.139,88.909Z" transform="translate(-600.433 -85.186)" fill="#455a64"/>
      <path id="Path_98584" data-name="Path 98584" d="M639.98,94.618a1.334,1.334,0,1,1,.858-1.68,1.334,1.334,0,0,1-.858,1.68Z" transform="translate(-601.456 -88.357)" fill="#455a64"/>
    </g>
    <g id="freepik--speech-bubble--inject-18" transform="translate(151.763 60.981)">
      <path id="Path_98585" data-name="Path 98585" d="M284.254,80.05a11.078,11.078,0,0,1-18.511,7.01l-5.543.814,2.774-4.792a11.078,11.078,0,1,1,21.28-3.032Z" transform="translate(-259.844 -67.702)" fill="#fff"/>
      <path id="Path_98586" data-name="Path 98586" d="M283.81,79.891a11.113,11.113,0,0,1-2.223,5.615,9.828,9.828,0,0,1-2.174,2.147,10.785,10.785,0,0,1-2.667,1.489,10.9,10.9,0,0,1-2.983.711,11.113,11.113,0,0,1-1.538.031,9.859,9.859,0,0,1-1.534-.16,11.185,11.185,0,0,1-5.481-2.707l.129.04-5.534.849-.4.062.2-.356,2.756-4.8V83a11.194,11.194,0,0,1,.685-9.873,11.134,11.134,0,0,1,17.479-2.409A11.113,11.113,0,0,1,283.81,79.891Zm0,0a10.958,10.958,0,0,0-12.563-12,10.838,10.838,0,0,0-4.574,1.8,11.42,11.42,0,0,0-3.316,3.619A10.945,10.945,0,0,0,261.947,78a11.056,11.056,0,0,0,.782,4.863l.04.1-.053.093-2.792,4.783-.2-.293,5.548-.778h.076l.053.049a10.918,10.918,0,0,0,5.308,2.716,9.438,9.438,0,0,0,1.5.182,10.785,10.785,0,0,0,1.516,0,11.113,11.113,0,0,0,2.961-.653,10.42,10.42,0,0,0,2.667-1.44,10.127,10.127,0,0,0,2.178-2.12A11.113,11.113,0,0,0,283.81,79.891Z" transform="translate(-259.4 -67.542)" fill="#263238"/>
      <path id="Path_98587" data-name="Path 98587" d="M277.338,90.047a1.076,1.076,0,0,1,1.085-1.138,1.138,1.138,0,0,1,0,2.276,1.076,1.076,0,0,1-1.085-1.138Zm.445-2.627-.258-8.82H279.3l-.258,8.82Z" transform="translate(-269.363 -73.684)" fill="red"/>
      <path id="Path_98588" data-name="Path 98588" d="M286.848,90.047a1.076,1.076,0,0,1,1.08-1.138,1.138,1.138,0,0,1,0,2.276,1.076,1.076,0,0,1-1.08-1.138Zm.445-2.627-.244-8.82h1.778l-.258,8.82Z" transform="translate(-274.645 -73.684)" fill="red"/>
      <path id="Path_98589" data-name="Path 98589" d="M296.348,90.047a1.076,1.076,0,0,1,1.085-1.138,1.138,1.138,0,0,1,0,2.276,1.076,1.076,0,0,1-1.085-1.138Zm.445-2.627-.258-8.82h1.778l-.253,8.82Z" transform="translate(-279.922 -73.684)" fill="red"/>
    </g>
  </g>
</svg>
