<?xml version="1.0" standalone="no"?>
<!DOCTYPE svg PUBLIC "-//W3C//DTD SVG 20010904//EN"
 "http://www.w3.org/TR/2001/REC-SVG-20010904/DTD/svg10.dtd">
<svg version="1.0" xmlns="http://www.w3.org/2000/svg"
 width="280.000000pt" height="280.000000pt" viewBox="0 0 280.000000 280.000000"
 preserveAspectRatio="xMidYMid meet">
<metadata>
Created by potrace 1.16, written by Peter Selinger 2001-2019
</metadata>
<g transform="translate(0.000000,280.000000) scale(0.100000,-0.100000)"
fill="#000000" stroke="none">
<path d="M387 2686 c-46 -17 -99 -57 -127 -97 -39 -54 -50 -112 -50 -270 l0
-149 -45 -81 c-52 -95 -56 -124 -19 -141 36 -17 52 -4 102 85 l43 77 158 0
157 0 -18 -117 c-10 -65 -22 -169 -28 -231 -14 -151 -39 -200 -130 -248 -48
-25 -161 -25 -212 0 -49 24 -87 62 -109 111 -24 53 -24 95 2 156 21 48 21 50
3 70 -28 31 -64 21 -91 -26 -18 -33 -23 -55 -23 -124 0 -74 3 -89 32 -143 32
-61 77 -104 141 -134 l37 -18 0 -536 c0 -590 1 -601 60 -673 18 -20 53 -49 78
-65 l47 -27 1005 0 1005 0 47 27 c104 62 138 138 138 314 0 118 -9 144 -49
144 -41 0 -51 -30 -51 -149 0 -127 -15 -172 -72 -213 l-33 -23 -985 0 -985 0
-33 23 c-18 13 -41 41 -52 62 -19 38 -20 61 -20 568 l0 530 58 7 c76 9 151 46
199 98 l38 42 30 -34 c38 -43 112 -91 142 -91 13 0 29 10 39 25 15 23 15 27 0
50 -9 14 -23 25 -32 25 -8 0 -37 22 -63 48 -77 77 -80 117 -33 432 l18 115
192 3 192 2 0 -224 0 -224 -28 -53 c-22 -43 -40 -61 -85 -88 -48 -29 -57 -38
-57 -63 0 -70 93 -54 179 30 l43 44 30 -36 c16 -19 58 -50 95 -68 56 -27 77
-32 138 -32 61 0 82 5 138 32 38 19 79 49 97 70 l30 37 30 -37 c18 -21 59 -51
97 -70 57 -28 77 -32 139 -32 89 1 163 33 220 97 l39 42 39 -42 c47 -52 122
-89 199 -98 l57 -7 0 -338 c0 -294 2 -341 16 -354 20 -20 48 -20 68 0 14 13
16 60 16 363 l0 347 37 18 c64 30 109 73 141 134 29 54 32 69 32 143 l0 84
-105 194 -105 195 0 146 c0 213 -28 283 -138 348 l-47 27 -200 0 -199 0 -10
-27 c-8 -22 -6 -32 8 -47 16 -18 34 -20 199 -23 172 -3 184 -4 215 -26 59 -43
72 -84 72 -232 l0 -130 -1090 0 -1090 0 0 130 c0 148 13 189 72 232 l33 23
728 5 c707 5 729 6 743 24 17 24 17 31 4 57 -10 19 -29 19 -738 19 -581 -1
-735 -4 -765 -14z m1233 -795 c0 -141 -4 -230 -12 -252 -58 -169 -289 -196
-383 -44 l-30 48 -3 234 -3 233 215 0 216 0 0 -219z m498 62 c31 -231 32 -244
21 -294 -39 -180 -287 -222 -384 -64 l-30 48 -3 234 -3 233 189 0 189 0 21
-157z m490 -23 c111 -205 118 -233 78 -314 -82 -167 -335 -166 -420 1 -10 20
-20 79 -26 151 -5 65 -16 167 -25 227 -8 60 -15 110 -15 112 0 2 71 2 157 1
l157 -3 94 -175z"/>
<path d="M453 2525 c-49 -21 -75 -69 -70 -129 4 -42 10 -55 41 -83 31 -28 43
-33 87 -33 46 0 55 4 90 39 33 33 39 45 39 82 0 56 -30 106 -75 125 -43 17
-71 17 -112 -1z"/>
<path d="M790 2529 c-88 -35 -114 -137 -54 -208 49 -59 131 -61 190 -6 31 29
34 38 34 87 0 64 -23 102 -76 124 -38 16 -59 17 -94 3z"/>
<path d="M1104 2526 c-51 -23 -74 -61 -74 -122 0 -47 4 -57 34 -87 68 -68 167
-52 212 35 52 101 -67 222 -172 174z"/>
<path d="M1514 2526 c-92 -40 -102 -175 -17 -232 26 -18 54 -19 398 -22 204
-2 389 0 412 3 29 4 54 17 78 39 32 30 35 38 35 88 0 64 -23 102 -76 124 -48
20 -784 20 -830 0z m806 -105 c7 -15 6 -23 -6 -35 -13 -14 -62 -16 -384 -16
-322 0 -371 2 -384 16 -12 12 -13 20 -6 35 10 18 25 19 390 19 365 0 380 -1
390 -19z"/>
<path d="M716 1284 c-42 -41 -1 -84 80 -84 36 0 56 -5 67 -17 8 -10 29 -83 46
-163 89 -427 100 -472 126 -506 14 -18 34 -36 45 -39 16 -5 20 -15 20 -54 0
-54 23 -92 70 -116 86 -45 190 21 190 120 0 25 1 25 75 25 74 0 75 0 75 -26 0
-40 30 -94 64 -116 23 -14 43 -18 80 -15 65 6 116 56 116 114 0 29 6 42 27 59
24 19 26 25 18 50 l-10 29 -340 5 c-187 3 -341 7 -343 8 -4 3 -32 70 -32 77 0
3 166 5 370 5 l370 0 14 23 c15 24 96 413 96 464 0 22 -6 36 -19 43 -13 6
-181 10 -479 10 l-459 0 -24 37 c-40 62 -81 83 -160 83 -48 0 -72 -5 -83 -16z
m478 -235 c3 -17 6 -44 6 -60 l0 -29 -89 0 -89 0 -7 38 c-3 20 -9 47 -12 60
-5 22 -4 22 90 22 l95 0 6 -31z m352 0 c-3 -17 -6 -44 -6 -60 l0 -29 -120 0
-120 0 0 29 c0 16 -3 43 -6 60 l-6 31 132 0 133 0 -7 -31z m284 15 c0 -8 -5
-35 -11 -60 l-11 -44 -84 0 -84 0 0 29 c0 16 3 43 6 60 l7 31 88 0 c74 0 89
-3 89 -16z m-610 -233 c0 -16 3 -43 6 -60 l7 -31 -81 0 c-88 0 -86 -2 -97 74
l-7 46 86 0 86 0 0 -29z m296 -8 c-3 -21 -6 -48 -6 -60 0 -22 -3 -23 -89 -23
l-88 0 -7 46 c-10 79 -17 74 95 74 l102 0 -7 -37z m271 15 c-3 -13 -9 -40 -12
-60 l-7 -38 -80 0 -81 0 7 46 c3 26 6 53 6 60 0 11 20 14 86 14 84 0 86 0 81
-22z"/>
</g>
</svg>
