<?xml version="1.0" standalone="no"?>
<!DOCTYPE svg PUBLIC "-//W3C//DTD SVG 20010904//EN"
 "http://www.w3.org/TR/2001/REC-SVG-20010904/DTD/svg10.dtd">
<svg version="1.0" xmlns="http://www.w3.org/2000/svg"
 width="512.000000pt" height="512.000000pt" viewBox="0 0 512.000000 512.000000"
 preserveAspectRatio="xMidYMid meet">
<metadata>
Created by potrace 1.16, written by Peter Selinger 2001-2019
</metadata>
<g transform="translate(0.000000,512.000000) scale(0.100000,-0.100000)"
fill="#000000" stroke="none">
<path d="M749 4912 c-136 -36 -243 -127 -308 -262 l-36 -75 -5 -305 -5 -305
-83 -148 c-92 -167 -100 -201 -56 -236 33 -26 78 -27 103 -2 10 10 51 80 92
155 l73 136 299 0 298 0 -6 -32 c-23 -136 -85 -598 -85 -640 -1 -164 -45 -284
-134 -366 -95 -87 -189 -117 -340 -110 -76 3 -102 9 -158 35 -90 42 -160 109
-201 192 -27 54 -33 80 -36 148 -3 75 0 88 28 149 37 80 39 107 6 139 -43 43
-98 31 -134 -31 -60 -102 -80 -268 -45 -385 50 -167 170 -303 324 -366 l55
-22 5 -1018 5 -1018 36 -75 c65 -135 172 -226 308 -262 61 -16 194 -17 1811
-17 1617 0 1750 1 1811 17 136 36 243 127 308 262 l36 75 3 238 c4 274 3 277
-73 277 -71 0 -75 -11 -75 -201 0 -90 -5 -193 -11 -229 -13 -84 -53 -154 -118
-207 -96 -79 52 -74 -1901 -71 l-1745 3 -46 23 c-67 33 -121 83 -154 143 l-30
54 -3 991 -2 991 92 6 c105 6 197 35 277 87 50 32 171 154 171 172 0 6 17 -12
39 -39 79 -101 215 -193 283 -193 36 0 78 40 78 75 0 42 -17 63 -75 91 -81 38
-159 113 -197 192 -30 61 -33 75 -36 177 -3 90 5 166 42 418 26 169 46 312 46
317 0 6 132 10 365 10 l365 0 0 -362 c0 -200 -5 -394 -10 -433 -20 -139 -108
-260 -235 -319 -58 -28 -75 -49 -75 -91 0 -35 42 -75 78 -75 68 0 204 92 283
193 22 27 39 45 39 40 0 -20 118 -139 173 -174 97 -63 174 -84 307 -84 133 0
210 21 307 84 56 36 173 154 173 174 0 5 10 -3 22 -19 77 -103 176 -178 286
-216 54 -18 88 -23 177 -23 128 0 206 22 302 84 55 35 173 154 173 174 0 5 17
-13 38 -40 113 -142 243 -209 425 -220 l97 -6 0 -632 c0 -599 1 -633 18 -648
26 -23 94 -22 115 1 15 17 17 77 17 661 0 602 1 642 18 647 170 55 314 206
366 383 20 69 21 211 1 277 -8 28 -98 205 -200 393 l-185 344 0 279 c0 256 -2
284 -21 340 -38 113 -107 199 -212 262 -98 58 -156 66 -492 66 l-296 0 -24
-25 c-33 -32 -33 -78 0 -110 l24 -25 294 0 c336 0 365 -5 449 -73 64 -53 104
-123 117 -207 6 -36 11 -154 11 -262 l0 -198 -2006 0 -2005 0 3 258 3 257 30
54 c33 60 87 110 154 143 l46 23 1313 5 1314 5 19 24 c26 32 24 77 -6 106
l-24 25 -1298 -1 c-1194 0 -1303 -2 -1364 -17z m2231 -1404 c0 -200 -5 -394
-10 -433 -39 -274 -326 -432 -573 -315 -75 35 -152 112 -189 188 l-33 67 -3
427 -3 428 406 0 405 0 0 -362z m870 350 c0 -7 18 -150 41 -318 51 -387 52
-489 1 -592 -57 -117 -168 -199 -299 -221 -163 -28 -338 65 -415 221 l-33 67
-3 427 -3 428 356 0 c277 0 355 -3 355 -12z m925 -320 l180 -333 0 -95 c0 -88
-3 -101 -33 -162 -53 -107 -158 -191 -274 -218 -55 -12 -181 -12 -236 0 -114
27 -222 111 -272 213 -31 64 -49 160 -50 259 0 31 -18 192 -40 357 -22 165
-40 303 -40 306 0 3 132 5 293 5 l293 0 179 -332z"/>
<path d="M840 4614 c-106 -46 -159 -164 -126 -278 51 -173 273 -220 393 -82
64 72 71 186 17 272 -55 90 -186 130 -284 88z"/>
<path d="M1419 4602 c-34 -17 -65 -44 -84 -71 -28 -40 -30 -49 -30 -131 0 -82
2 -91 30 -131 41 -58 119 -99 190 -99 71 0 149 41 190 99 28 40 30 49 30 131
0 82 -2 91 -30 131 -41 58 -119 99 -190 99 -38 0 -67 -8 -106 -28z"/>
<path d="M2009 4602 c-34 -17 -65 -44 -84 -71 -28 -40 -30 -49 -30 -131 0 -82
2 -91 30 -131 41 -58 119 -99 190 -99 71 0 149 41 190 99 28 40 30 49 30 131
0 82 -2 91 -30 131 -41 58 -119 99 -190 99 -38 0 -67 -8 -106 -28z"/>
<path d="M2759 4602 c-34 -17 -65 -44 -84 -71 -28 -40 -30 -49 -30 -131 0 -82
2 -91 30 -131 19 -27 50 -54 84 -71 l53 -28 718 0 718 0 53 28 c34 17 65 44
84 71 28 40 30 49 30 131 0 82 -2 91 -30 131 -19 27 -50 54 -84 71 l-53 28
-718 0 -718 0 -53 -28z m1481 -152 c11 -11 20 -33 20 -50 0 -17 -9 -39 -20
-50 -20 -20 -33 -20 -710 -20 -677 0 -690 0 -710 20 -11 11 -20 33 -20 50 0
17 9 39 20 50 20 20 33 20 710 20 677 0 690 0 710 -20z"/>
<path d="M1323 2350 c-31 -28 -31 -89 -2 -116 17 -15 42 -20 124 -24 98 -5
106 -7 134 -34 17 -16 33 -37 36 -45 2 -9 56 -260 119 -558 66 -308 124 -559
135 -580 23 -46 100 -120 133 -128 22 -6 23 -10 23 -95 0 -82 2 -91 30 -131
91 -129 289 -129 380 0 26 37 30 53 34 122 l3 79 153 0 153 0 3 -79 c4 -69 8
-85 34 -122 91 -129 289 -129 380 0 26 37 30 53 34 122 2 55 7 79 16 79 7 0
24 9 39 21 35 27 36 86 3 117 -23 21 -24 22 -620 24 l-597 3 -31 31 c-21 21
-35 49 -44 88 l-13 56 673 0 674 0 25 22 c23 21 33 59 106 423 44 220 81 415
82 434 1 26 -5 40 -26 58 l-27 23 -853 0 -852 0 -23 54 c-26 63 -75 117 -134
148 -35 19 -62 23 -162 26 -111 3 -122 2 -142 -18z m874 -465 c6 -49 12 -102
12 -117 l1 -28 -175 0 c-133 0 -175 3 -175 13 0 6 -11 60 -24 120 l-24 107
187 -2 186 -3 12 -90z m642 68 c0 -16 -6 -68 -12 -118 l-12 -90 -220 0 -220 0
-12 90 c-6 50 -12 102 -12 118 l-1 27 245 0 245 0 -1 -27z m516 -35 c-7 -35
-18 -89 -25 -120 l-11 -58 -170 0 c-152 0 -169 2 -169 17 0 23 21 195 25 211
3 9 49 12 183 12 l180 0 -13 -62z m-1108 -433 c6 -49 12 -102 12 -117 l1 -28
-154 0 c-139 0 -155 2 -160 18 -5 16 -46 210 -46 218 0 3 75 3 168 2 l167 -3
12 -90z m542 68 c0 -16 -6 -68 -12 -118 l-12 -90 -170 0 -170 0 -12 90 c-6 50
-12 102 -12 118 l-1 27 195 0 195 0 -1 -27z m491 15 c0 -7 -10 -61 -21 -120
l-22 -108 -153 0 c-138 0 -154 2 -154 17 0 23 21 195 25 211 3 9 45 12 165 12
121 0 160 -3 160 -12z"/>
</g>
</svg>
