<?xml version="1.0" standalone="no"?>
<!DOCTYPE svg PUBLIC "-//W3C//DTD SVG 20010904//EN"
 "http://www.w3.org/TR/2001/REC-SVG-20010904/DTD/svg10.dtd">
<svg version="1.0" xmlns="http://www.w3.org/2000/svg"
 width="290.000000pt" height="290.000000pt" viewBox="0 0 290.000000 290.000000"
 preserveAspectRatio="xMidYMid meet">
<metadata>
Created by potrace 1.16, written by Peter Selinger 2001-2019
</metadata>
<g transform="translate(0.000000,290.000000) scale(0.100000,-0.100000)"
fill="#000000" stroke="none">
<path d="M418 2786 c-79 -21 -155 -93 -184 -173 -9 -26 -13 -91 -14 -197 l0
-159 -50 -94 c-27 -51 -50 -99 -50 -107 0 -19 34 -46 58 -46 23 0 48 33 96
128 l26 52 165 0 165 0 -4 -22 c-13 -59 -37 -235 -46 -341 -14 -159 -48 -222
-142 -261 -52 -22 -162 -20 -213 3 -97 44 -152 156 -119 244 27 71 28 91 5
111 -84 76 -152 -159 -86 -299 29 -60 85 -116 150 -147 l44 -22 3 -580 3 -581
27 -46 c32 -54 86 -105 137 -128 33 -14 136 -16 1061 -16 925 0 1028 2 1061
16 51 23 105 74 137 128 25 43 27 55 30 187 3 121 1 143 -13 157 -18 19 -42
21 -65 7 -12 -7 -16 -39 -20 -143 -5 -124 -7 -137 -32 -174 -52 -78 25 -73
-1098 -73 -1123 0 -1046 -5 -1098 73 l-27 41 -3 556 -2 557 59 7 c76 9 172 56
213 106 l32 38 42 -43 c77 -80 158 -104 184 -55 15 28 -2 55 -48 79 -80 41
-122 113 -122 208 0 32 11 134 25 227 14 93 25 173 25 178 0 4 90 8 200 8
l200 0 0 -232 c0 -224 -1 -235 -24 -284 -24 -52 -68 -94 -118 -113 -38 -14
-48 -56 -20 -84 19 -19 25 -19 61 -8 24 7 64 34 98 64 l56 53 38 -41 c123
-133 337 -134 467 -2 l42 43 54 -52 c126 -122 325 -118 449 9 l43 45 32 -38
c41 -50 137 -97 213 -106 l59 -7 0 -351 c0 -261 3 -355 12 -364 15 -15 61 -15
76 0 9 9 12 106 12 373 l0 361 45 22 c65 31 121 86 150 147 20 44 25 69 25
135 0 91 4 81 -134 335 l-81 150 -5 180 c-5 173 -6 182 -32 226 -15 25 -44 61
-64 79 -67 58 -91 64 -294 68 -171 4 -187 2 -209 -15 -31 -25 -23 -69 15 -83
14 -6 100 -10 191 -10 190 0 218 -8 261 -73 26 -38 27 -48 30 -184 l3 -143
-1131 0 -1131 0 3 143 c3 136 4 146 30 184 51 77 7 73 832 73 l737 0 24 25
c30 29 31 39 5 65 -20 20 -33 20 -752 19 -556 0 -744 -3 -780 -13z m1260 -838
l-3 -243 -28 -48 c-42 -71 -94 -101 -181 -105 -66 -3 -75 -1 -126 30 -40 25
-60 45 -80 83 -24 48 -25 55 -28 287 l-3 238 226 0 226 0 -3 -242z m497 220
c13 -58 45 -337 45 -392 0 -74 -24 -130 -73 -173 -47 -41 -96 -56 -167 -51
-74 5 -129 40 -167 105 l-28 48 -3 243 -4 242 196 0 c195 0 196 0 201 -22z
m526 -170 c89 -166 103 -198 102 -237 -2 -126 -96 -211 -233 -211 -79 0 -130
17 -173 58 -51 48 -66 92 -77 223 -6 68 -17 167 -25 222 -8 56 -15 109 -15
119 0 17 12 18 159 18 l160 0 102 -192z"/>
<path d="M463 2610 c-64 -39 -87 -106 -58 -171 26 -57 73 -83 138 -76 42 4 56
10 84 41 28 30 33 43 33 83 0 111 -107 178 -197 123z"/>
<path d="M830 2623 c-92 -30 -129 -127 -77 -204 28 -42 60 -59 112 -59 147 0
184 198 48 256 -33 14 -56 16 -83 7z"/>
<path d="M1140 2612 c-42 -21 -80 -75 -80 -114 0 -44 29 -98 64 -119 19 -12
50 -19 80 -19 43 0 53 4 87 39 35 34 39 44 39 87 0 61 -25 105 -73 127 -45 22
-73 21 -117 -1z"/>
<path d="M1561 2613 c-46 -23 -71 -67 -71 -127 0 -43 4 -53 38 -86 33 -34 45
-39 102 -45 36 -3 225 -5 420 -3 392 3 395 4 437 67 42 62 25 144 -38 189 -21
15 -68 17 -439 19 -372 3 -418 1 -449 -14z m844 -103 c3 -6 3 -19 0 -30 -6
-20 -16 -20 -406 -20 -346 0 -400 2 -405 15 -4 8 -4 22 0 30 5 13 59 15 405
15 258 0 402 -4 406 -10z"/>
<path d="M745 1334 c-23 -23 -15 -66 15 -81 14 -7 48 -13 77 -13 41 0 55 -4
62 -19 10 -18 53 -208 110 -482 37 -181 40 -188 90 -231 36 -31 41 -40 41 -77
0 -102 111 -164 197 -111 43 26 67 65 68 111 l0 39 83 0 82 0 0 -35 c0 -105
110 -168 198 -115 41 25 72 76 72 117 0 22 6 36 20 43 23 12 27 59 8 78 -9 9
-100 12 -349 12 -306 0 -339 2 -357 18 -11 9 -23 29 -26 45 l-6 27 379 0 c332
0 382 2 395 16 9 8 16 17 16 19 0 2 20 102 45 224 51 250 53 276 26 291 -13 6
-188 10 -499 10 l-480 0 -12 29 c-16 40 -60 80 -101 91 -54 16 -135 12 -154
-6z m490 -262 c14 -91 24 -82 -81 -82 -52 0 -94 3 -94 8 -1 4 -7 32 -14 62
l-13 55 98 -3 98 -3 6 -37z m653 -20 l-12 -62 -92 0 -93 0 5 38 c12 87 4 81
107 84 50 2 93 3 94 2 1 0 -3 -28 -9 -62z m-288 36 c0 -13 -3 -40 -6 -60 l-7
-38 -117 0 -117 0 -7 31 c-3 17 -6 44 -6 60 l0 29 130 0 c128 0 130 0 130 -22z
m-336 -229 c3 -17 6 -45 6 -61 l0 -29 -82 3 -82 3 -12 55 c-7 30 -13 56 -14
58 0 1 40 2 89 2 l89 0 6 -31z m310 9 c-2 -13 -6 -40 -9 -60 l-6 -38 -89 0
-89 0 -6 38 c-14 92 -26 82 95 82 105 0 107 0 104 -22z m276 6 c0 -8 -5 -35
-11 -60 l-11 -44 -79 0 -79 0 0 29 c0 16 3 43 6 60 l7 31 83 0 c69 0 84 -3 84
-16z"/>
</g>
</svg>
