<svg xmlns="http://www.w3.org/2000/svg" width="287.893" height="283.221" viewBox="0 0 287.893 283.221">
  <g id="Payment_Information-bro" data-name="Payment Information-bro" transform="translate(-21.462 -29.116)">
    <g id="freepik--background-simple--inject-54" transform="translate(30.318 29.116)">
      <path id="Path_97635" data-name="Path 97635" d="M64.462,117.329s-17.825,46.033,7.225,92.385,76.645,70.839,117.94,91.778,84.176,10.741,104.552-23.553-7.57-58.775-7.608-107.678,7.32-61.85-19.18-103.165S175.925,16.632,126.8,47.276,64.462,117.329,64.462,117.329Z" transform="translate(-43.427 -29.116)" fill="#fff" opacity="0.07"/>
      <path id="Path_97636" data-name="Path 97636" d="M97.027,291.728c15.089,15.932,52.132,10.1,68.18,0C217.313,258.962,308.6,204.413,312.735,125.39c1.758-33.585-27.863-51.224-40.234-56.4C242.8,56.565,210.191,52.837,178,51.4c-33.61-1.5-69.689-.332-99.936,16.067-11.47,6.208-22.288,14.193-29.691,25.062a79.025,79.025,0,0,0-13,37.485C33.527,151.43,39.288,172.906,48,192.559s20.331,37.849,31,56.518C85.96,261.244,84.343,278.308,97.027,291.728Z" transform="translate(-35.03 -36.979)" fill="#fff" opacity="0.7"/>
    </g>
    <g id="freepik--Graphics--inject-54" transform="translate(21.964 35.377)">
      <rect id="Rectangle_12840" data-name="Rectangle 12840" width="36.527" height="23.358" rx="3.52" transform="translate(43.428 55.112) rotate(16.809)" fill="none" stroke="#263238" stroke-miterlimit="10" stroke-width="1.003"/>
      <line id="Line_114" data-name="Line 114" x2="34.851" y2="10.562" transform="translate(41.695 60.054)" fill="none" stroke="#263238" stroke-miterlimit="10" stroke-width="1"/>
      <line id="Line_115" data-name="Line 115" x2="34.857" y2="10.562" transform="translate(40.634 63.551)" fill="none" stroke="#263238" stroke-miterlimit="10" stroke-width="1"/>
      <path id="Path_97638" data-name="Path 97638" d="M121.7,163.636a2.276,2.276,0,0,0,.2,1.777,2.3,2.3,0,0,1-1.681.141,2.27,2.27,0,1,1,2.634-3.286,2.3,2.3,0,0,0-1.151,1.368Z" transform="translate(-56.819 -82.983)" fill="none" stroke="#263238" stroke-miterlimit="10" stroke-width="1"/>
      <path id="Path_97639" data-name="Path 97639" d="M127.735,165.466a2.27,2.27,0,1,1-1.509-2.832,2.27,2.27,0,0,1,1.509,2.832Z" transform="translate(-58.509 -83.496)" fill="none" stroke="#263238" stroke-miterlimit="10" stroke-width="1"/>
      <rect id="Rectangle_12841" data-name="Rectangle 12841" width="30.976" height="19.807" rx="3.51" transform="translate(257.122 100.263) rotate(16.86)" fill="none" stroke="#263238" stroke-miterlimit="10" stroke-width="1"/>
      <line id="Line_116" data-name="Line 116" x2="29.646" y2="8.983" transform="translate(255.786 104.667)" fill="none" stroke="#263238" stroke-miterlimit="10" stroke-width="1"/>
      <line id="Line_117" data-name="Line 117" x2="29.64" y2="8.983" transform="translate(254.885 107.647)" fill="none" stroke="#263238" stroke-miterlimit="10" stroke-width="1"/>
      <path id="Path_97640" data-name="Path 97640" d="M451.428,228.8a1.918,1.918,0,0,0,.166,1.509,1.928,1.928,0,1,1,.812-2.672,1.918,1.918,0,0,0-.978,1.164Z" transform="translate(-175.919 -106.624)" fill="none" stroke="#263238" stroke-miterlimit="10" stroke-width="1"/>
      <path id="Path_97641" data-name="Path 97641" d="M456.545,230.374a1.918,1.918,0,1,1-.136-1.472A1.918,1.918,0,0,1,456.545,230.374Z" transform="translate(-177.346 -107.064)" fill="none" stroke="#263238" stroke-miterlimit="10" stroke-width="1"/>
      <rect id="Rectangle_12842" data-name="Rectangle 12842" width="40.701" height="21.175" transform="matrix(0.909, -0.416, 0.416, 0.909, 207.041, 55.499)" fill="none" stroke="#263238" stroke-miterlimit="10" stroke-width="1"/>
      <path id="Path_97642" data-name="Path 97642" d="M390.23,117.5l-5.6-12.231a2.174,2.174,0,0,1-2.877-1.068l-29.915,13.695a2.174,2.174,0,0,1-1.068,2.877l5.6,12.231a2.167,2.167,0,0,1,2.877,1.074l29.909-13.7a2.167,2.167,0,0,1,1.074-2.877Z" transform="translate(-140.55 -62.457)" fill="none" stroke="#263238" stroke-miterlimit="10" stroke-width="1"/>
      <circle id="Ellipse_297" data-name="Ellipse 297" cx="5.562" cy="5.562" r="5.562" transform="translate(222.151 55.635) rotate(-37.53)" fill="none" stroke="#263238" stroke-miterlimit="10" stroke-width="1"/>
      <path id="Path_97643" data-name="Path 97643" d="M381.643,128.065l.416.908-.4.179-.409-.9a3.267,3.267,0,0,1-2.219.141v-.556a2.935,2.935,0,0,0,1.969-.1l-.94-2.072c-.972.185-1.976.326-2.455-.722-.345-.754-.1-1.662,1.061-2.308l-.416-.914.4-.179.435.927a3.37,3.37,0,0,1,1.829-.243v.556a3.2,3.2,0,0,0-1.617.185l.959,2.1c.991-.2,2.046-.377,2.557.684C383.132,126.492,382.857,127.419,381.643,128.065Zm-1.829-2.947-.908-2c-.786.441-.959,1.029-.729,1.528.268.627.908.6,1.63.473Zm2.41.9c-.281-.639-.959-.575-1.713-.428l.9,1.976c.869-.46,1.036-1.042.806-1.547Z" transform="translate(-150.177 -68.714)" fill="#263238"/>
      <rect id="Rectangle_12843" data-name="Rectangle 12843" width="28.572" height="14.861" transform="translate(11.361 128.82) rotate(-5.143)" fill="none" stroke="#263238" stroke-miterlimit="10" stroke-width="1.004"/>
      <path id="Path_97644" data-name="Path 97644" d="M67.664,248.8l-.806-9.366a1.522,1.522,0,0,1-1.643-1.381L42.3,240.032a1.528,1.528,0,0,1-1.381,1.643l.806,9.366a1.515,1.515,0,0,1,1.643,1.381l22.914-1.982a1.528,1.528,0,0,1,1.381-1.643Z" transform="translate(-28.801 -110.731)" fill="none" stroke="#263238" stroke-miterlimit="10" stroke-width="1"/>
      <path id="Path_97645" data-name="Path 97645" d="M63.515,246.764a3.887,3.887,0,1,1-1.372-2.645A3.894,3.894,0,0,1,63.515,246.764Z" transform="translate(-34.147 -112.591)" fill="none" stroke="#263238" stroke-miterlimit="10" stroke-width="1"/>
      <path id="Path_97646" data-name="Path 97646" d="M61.315,249.81l.058.7h-.3l-.064-.69a2.282,2.282,0,0,1-1.49-.428l.141-.358a2.084,2.084,0,0,0,1.317.4l-.134-1.592c-.684-.1-1.381-.249-1.445-1.049-.051-.582.32-1.125,1.24-1.279l-.058-.7h.3l.058.684a2.4,2.4,0,0,1,1.279.275l-.121.364a2.276,2.276,0,0,0-1.106-.256l.134,1.6c.7.1,1.439.237,1.509,1.049C62.671,249.126,62.268,249.669,61.315,249.81Zm-.511-2.372-.134-1.515c-.639.109-.87.454-.838.838s.46.595.972.678Zm1.375,1.164c-.045-.48-.5-.639-1.029-.69l.128,1.515c.665-.109.933-.441.9-.825Z" transform="translate(-35.463 -113.169)" fill="#263238"/>
      <circle id="Ellipse_298" data-name="Ellipse 298" cx="5.562" cy="5.562" r="5.562" transform="translate(264.475 36.059)" fill="none" stroke="#263238" stroke-miterlimit="10" stroke-width="1"/>
      <path id="Path_97647" data-name="Path 97647" d="M443.288,104.793v1h-.46V104.8a3.312,3.312,0,0,1-2.078-.786l.249-.5a3,3,0,0,0,1.829.742v-2.282c-.959-.237-1.918-.531-1.918-1.681,0-.831.6-1.554,1.918-1.656V97.62h.435v.991a3.369,3.369,0,0,1,1.765.543l-.217.511a3.2,3.2,0,0,0-1.547-.505v2.3c.978.237,2.014.511,2.014,1.681C445.3,103.981,444.669,104.717,443.288,104.793Zm-.435-3.446V99.18c-.9.077-1.279.537-1.279,1.087-.026.659.563.9,1.253,1.08Zm1.816,1.829c0-.684-.639-.921-1.381-1.106v2.187C444.241,104.173,444.669,103.732,444.669,103.176Z" transform="translate(-173.002 -60.084)" fill="#263238"/>
      <circle id="Ellipse_299" data-name="Ellipse 299" cx="5.562" cy="5.562" r="5.562" transform="translate(225.436 106.484) rotate(-13.26)" fill="none" stroke="#263238" stroke-miterlimit="10" stroke-width="1"/>
      <path id="Path_97648" data-name="Path 97648" d="M381.866,212.662l-.518.85-.371-.23.518-.844a3.254,3.254,0,0,1-1.355-1.758l.473-.294a2.98,2.98,0,0,0,1.17,1.579l1.2-1.95c-.7-.7-1.368-1.458-.767-2.436.435-.71,1.323-1.01,2.513-.4l.524-.857.371.23-.518.844a3.465,3.465,0,0,1,1.221,1.381l-.454.326a3.261,3.261,0,0,0-1.055-1.24l-1.208,1.963c.716.716,1.451,1.49.838,2.487C384.008,213.027,383.087,213.314,381.866,212.662Zm1.439-3.2,1.132-1.848c-.8-.4-1.381-.224-1.669.243-.345.595.019,1.112.537,1.637Zm.588,2.506c.358-.582-.058-1.112-.6-1.662l-1.138,1.854c.85.473,1.445.345,1.733-.16Z" transform="translate(-151.142 -99.287)" fill="#263238"/>
      <path id="Path_97649" data-name="Path 97649" d="M254.187,42.164a5.556,5.556,0,1,1-3.115-2.9A5.562,5.562,0,0,1,254.187,42.164Z" transform="translate(-101.885 -38.91)" fill="none" stroke="#263238" stroke-miterlimit="10" stroke-width="1"/>
      <path id="Path_97650" data-name="Path 97650" d="M252.258,48.151l.416.908-.4.185-.422-.9a3.267,3.267,0,0,1-2.219.141v-.556a2.954,2.954,0,0,0,1.963-.09l-.946-2.084c-.972.185-1.976.32-2.455-.722-.345-.761-.1-1.662,1.068-2.308l-.416-.914.39-.179.416.9a3.369,3.369,0,0,1,1.829-.243v.556a3.229,3.229,0,0,0-1.618.185l.959,2.1c.991-.2,2.046-.371,2.557.684C253.774,46.579,253.48,47.506,252.258,48.151ZM250.43,45.2l-.9-1.976c-.786.441-.959,1.029-.729,1.522C249.074,45.351,249.707,45.332,250.43,45.2Zm2.41.9c-.288-.639-.959-.569-1.713-.428l.9,1.976C252.866,47.192,253.07,46.617,252.84,46.105Z" transform="translate(-103.505 -39.891)" fill="#263238"/>
      <path id="Path_97651" data-name="Path 97651" d="M221.877,393.573a8.356,8.356,0,1,1-11.073-4.13,8.356,8.356,0,0,1,11.073,4.13Z" transform="translate(-88.308 -165.058)" fill="none" stroke="#263238" stroke-miterlimit="10" stroke-width="1"/>
      <path id="Path_97652" data-name="Path 97652" d="M218.994,402.585l.639,1.368-.595.269-.639-1.355a4.9,4.9,0,0,1-3.331.217l.038-.831a4.431,4.431,0,0,0,2.947-.147l-1.426-3.12c-1.451.275-2.967.48-3.683-1.087-.524-1.138-.153-2.5,1.6-3.472l-.639-1.362.588-.275.639,1.355a5.114,5.114,0,0,1,2.749-.364v.831a4.82,4.82,0,0,0-2.423.281l1.432,3.146c1.49-.294,3.075-.556,3.8,1.029C221.245,400.226,220.836,401.619,218.994,402.585Zm-2.736-4.431-1.362-2.967c-1.17.639-1.432,1.541-1.087,2.3C214.219,398.384,215.165,398.352,216.258,398.154Zm3.619,1.362c-.428-.94-1.445-.863-2.557-.639l1.355,2.967C219.934,401.146,220.222,400.277,219.877,399.516Z" transform="translate(-90.764 -166.539)" fill="#263238"/>
      <path id="Path_97653" data-name="Path 97653" d="M35.835,184.975a8.356,8.356,0,1,1,.761-11.8A8.356,8.356,0,0,1,35.835,184.975Z" transform="translate(-21.964 -86.311)" fill="none" stroke="#263238" stroke-miterlimit="10" stroke-width="1"/>
      <path id="Path_97654" data-name="Path 97654" d="M29.091,184.276l-1.125.991-.435-.492,1.119-.978a4.955,4.955,0,0,1-1.17-3.133l.812-.2a4.475,4.475,0,0,0,.965,2.775l2.557-2.263c-.684-1.311-1.317-2.7,0-3.836.946-.825,2.353-.863,3.785.531l1.164-.985.428.486-1.119.985a5.115,5.115,0,0,1,1.112,2.525l-.793.262a4.9,4.9,0,0,0-.965-2.244l-2.6,2.282c.71,1.336,1.419,2.781.109,3.938C31.981,185.746,30.53,185.791,29.091,184.276Zm3.452-3.9,2.449-2.155c-.972-.933-1.918-.927-2.506-.384-.767.652-.46,1.56.038,2.538Zm-.262,3.836c.78-.678.416-1.63-.121-2.653l-2.449,2.155c1,1.029,1.937,1.068,2.577.518Z" transform="translate(-23.954 -88.553)" fill="#263238"/>
      <circle id="Ellipse_300" data-name="Ellipse 300" cx="4.034" cy="4.034" r="4.034" transform="matrix(0.04, -1, 1, 0.04, 43.895, 173.649)" fill="none" stroke="#263238" stroke-miterlimit="10" stroke-width="1"/>
      <path id="Path_97655" data-name="Path 97655" d="M96.929,303.426l.46.556-.237.2-.46-.55a2.379,2.379,0,0,1-1.528.524l-.09-.4a2.155,2.155,0,0,0,1.355-.435l-1.061-1.279c-.639.313-1.317.6-1.854-.038-.384-.46-.384-1.144.307-1.822l-.467-.556.243-.2.46.55a2.475,2.475,0,0,1,1.234-.518l.115.384a2.423,2.423,0,0,0-1.093.441l1.068,1.279c.639-.326,1.362-.639,1.918,0C97.69,302.039,97.677,302.742,96.929,303.426ZM95.1,301.712,94.09,300.5c-.46.46-.467.9-.217,1.208S94.621,301.936,95.1,301.712Zm1.861.173c-.32-.377-.78-.217-1.279.032l1.01,1.208c.492-.486.524-.933.269-1.247Z" transform="translate(-47.676 -132.868)" fill="#263238"/>
      <path id="Path_97656" data-name="Path 97656" d="M293.565,428.352a4.034,4.034,0,1,1-5.684-.518,4.034,4.034,0,0,1,5.684.518Z" transform="translate(-117.345 -178.841)" fill="none" stroke="#263238" stroke-miterlimit="10" stroke-width="1"/>
      <path id="Path_97657" data-name="Path 97657" d="M293.119,433.466l.467.556-.243.2-.46-.55a2.359,2.359,0,0,1-1.522.524l-.089-.4a2.116,2.116,0,0,0,1.355-.435l-1.061-1.279c-.639.313-1.323.6-1.854-.038-.39-.46-.39-1.144.3-1.822l-.46-.556.243-.2.46.55a2.423,2.423,0,0,1,1.234-.518l.115.384a2.448,2.448,0,0,0-1.1.441l1.074,1.279c.639-.326,1.362-.639,1.918,0C293.867,432.078,293.855,432.782,293.119,433.466Zm-1.835-1.739-1.01-1.208c-.467.46-.473.9-.217,1.208S290.8,431.976,291.284,431.727Zm1.854.179c-.32-.384-.78-.224-1.279,0l1.01,1.208c.5-.435.531-.882.269-1.189Z" transform="translate(-118.434 -179.768)" fill="#263238"/>
      <circle id="Ellipse_301" data-name="Ellipse 301" cx="4.034" cy="4.034" r="4.034" transform="translate(57.4 22.956) rotate(-84.76)" fill="none" stroke="#263238" stroke-miterlimit="10" stroke-width="1"/>
      <path id="Path_97658" data-name="Path 97658" d="M119,69.366l.46.556-.243.2-.46-.55a2.346,2.346,0,0,1-1.522.524l-.09-.4a2.155,2.155,0,0,0,1.355-.435l-1.061-1.279c-.639.313-1.323.6-1.854-.038-.384-.46-.39-1.144.307-1.822l-.467-.556.243-.2.46.55a2.449,2.449,0,0,1,1.234-.518l.115.384a2.423,2.423,0,0,0-1.093.441l1.068,1.279c.639-.326,1.362-.639,1.918,0C119.746,67.979,119.726,68.682,119,69.366Zm-1.841-1.72-1.01-1.234c-.46.46-.473.9-.217,1.208S116.67,67.876,117.156,67.646Zm1.86.173c-.32-.377-.786-.217-1.279,0l1.01,1.208C119.241,68.579,119.273,68.132,119.017,67.819Z" transform="translate(-55.635 -48.453)" fill="#263238"/>
    </g>
    <g id="freepik--Device--inject-54" transform="translate(38.252 56.994)">
      <path id="Path_97659" data-name="Path 97659" d="M197.6,308.973s-4.929,25.018-35.164,30.689c0,0-7.9,6.3-10.524,10.025s-16.623,10.063-30.88,29.832S85.55,336.509,85.55,336.509l46.915-60.929Z" transform="translate(-61.185 -145.883)" fill="rgba(0,0,0,0.7)" opacity="0.2"/>
      <path id="Path_97660" data-name="Path 97660" d="M288.634,140.268s16.3-7.973,19.89-6.6,7.033,9.622-6.681,17.518S292.22,173.8,292.22,173.8H302s5.869,2.391,8.152,5.466,3.913,13.56,5.217,17.115.639,7.116-2.935,8.273c0,0-2.282,9.948-1.63,14.36s.326,7.25-3.913,7.787a7.4,7.4,0,0,1-8.152-7.787l-3.261,11.815,2.282,4.539a29.513,29.513,0,0,1,8.8,5.332c4.565,3.913,9.13,4.981,7.826,9.341s-3.913,9.06-17.608,3.612S271.678,226.8,271.678,226.8L263.45,152.16Z" transform="translate(-125.345 -94.645)" fill="#fff"/>
      <path id="Path_97661" data-name="Path 97661" d="M305.794,183.528c-7.391,10.076.786,21.68.786,21.68s-5.115,2.851-5.262,10.127a51.1,51.1,0,0,0,1.611,11.163,7.327,7.327,0,0,1-4.181-7.1l-3.267,11.815,2.282,4.533a27.985,27.985,0,0,1,6.726,3.7c-2.027,4.654-2.647,10.409-2.468,16.342a43.622,43.622,0,0,1-5.236-1.752c-13.695-5.454-25.107-26.852-25.107-26.852l-8.228-74.643,25.184-11.885s8.906-4.354,15.005-6.074a49.174,49.174,0,0,0,1.445,14.89,34.4,34.4,0,0,1-3.242,2.1c-13.695,7.9-9.622,22.607-9.622,22.607h9.788s5.575,2.276,7.966,5.236A15.983,15.983,0,0,0,305.794,183.528Z" transform="translate(-125.345 -95.03)" fill="#fff" opacity="0.4"/>
      <path id="Path_97662" data-name="Path 97662" d="M185.257,255.45s-17.735,34.774-49.7,42.663c0,0-1.221,6.879-6.63,9.833-2.89,1.573-14.551,19.046-24.787,35l-56.7-34.78c3.491-3.452,7.468-7.429,11.508-11.579,11.828-12.058,24.449-25.574,28.31-32.261,3.452-5.946,7.819-16.265,11.623-25.964,4.872-12.4,8.836-23.8,8.836-23.8l18.9-21.009,29.71-33.035,1.279,4.226Z" transform="translate(-47.44 -104.386)" fill="#fff"/>
      <path id="Path_97663" data-name="Path 97663" d="M190.131,160.52l28.9,94.93s-17.735,34.774-49.7,42.663c0,0-1.221,6.879-6.63,9.833-2.6,1.413-12.256,15.638-21.6,30.049,3.465-11.892,13.5-30.848,13.5-30.848-6.438-7.627-4.559-15.664-1.982-13.375s9.053,8.721,9.462,9.123c-2.845-3.35-3.5-8.6-3.5-8.6s7.979,5.307,8.625-3.2-4.782-29.282-4.782-29.282l-14.251-54.638Z" transform="translate(-81.219 -104.386)" fill="#fff" opacity="0.4"/>
      <path id="Path_97664" data-name="Path 97664" d="M263.45,152.16l25.184-11.892s16.3-7.973,19.89-6.6,7.033,9.622-6.681,17.518S292.22,173.8,292.22,173.8H302s5.869,2.391,8.152,5.466,3.913,13.56,5.217,17.115.639,7.116-2.935,8.273c0,0-2.282,9.948-1.63,14.36s.326,7.25-3.913,7.787a7.4,7.4,0,0,1-8.152-7.787l-3.261,11.815,2.282,4.539a29.512,29.512,0,0,1,8.8,5.332c4.565,3.913,9.13,4.98,7.826,9.341s-3.913,9.059-17.608,3.612S271.678,226.8,271.678,226.8" transform="translate(-125.345 -94.645)" fill="none" stroke="#263238" stroke-linecap="round" stroke-linejoin="round" stroke-width="1"/>
      <path id="Path_97665" data-name="Path 97665" d="M332.573,229.513c-4.891,1.323-10.594.345-12.717-8.311s2.123-17.9,4.891-18.752" transform="translate(-145.481 -119.508)" fill="none" stroke="#263238" stroke-linecap="round" stroke-linejoin="round" stroke-width="1"/>
      <path id="Path_97666" data-name="Path 97666" d="M318.646,259.41s-.326-11.131,3.753-13.88" transform="translate(-145.25 -135.045)" fill="none" stroke="#263238" stroke-linecap="round" stroke-linejoin="round" stroke-width="1"/>
      <path id="Path_97667" data-name="Path 97667" d="M108.406,327.945s-11.949-1.49-14.615-6.835c-2.206-4.424-14.161,12.148-28.31,19.385,11.828-12.058,24.449-25.574,28.31-32.261,3.452-5.946,7.819-16.265,11.623-25.964h0c-.192,8.043-4.475,20.357-3.254,26.769a5.147,5.147,0,0,0-3.676,6.227C99.4,320.362,108.406,327.945,108.406,327.945Z" transform="translate(-53.946 -148.295)" fill="#fff" opacity="0.4"/>
      <path id="Path_97668" data-name="Path 97668" d="M217.236,309s-17.735,34.774-49.709,42.663c0,0-1.215,6.879-6.624,9.833-2.89,1.573-14.545,19.046-24.794,35" transform="translate(-79.419 -157.936)" fill="none" stroke="#263238" stroke-linecap="round" stroke-linejoin="round" stroke-width="1"/>
      <path id="Path_97669" data-name="Path 97669" d="M47.44,308.164c13.656-13.5,34.646-34.9,39.844-43.84,7.864-13.535,20.459-49.767,20.459-49.767l48.59-54.037" transform="translate(-47.44 -104.386)" fill="none" stroke="#263238" stroke-linecap="round" stroke-linejoin="round" stroke-width="1"/>
      <path id="Path_97670" data-name="Path 97670" d="M174.39,225.07s7.468,6.688,9.59,12.787" transform="translate(-93.225 -127.666)" fill="none" stroke="#263238" stroke-linecap="round" stroke-linejoin="round" stroke-width="1"/>
      <rect id="Rectangle_12844" data-name="Rectangle 12844" width="88.952" height="179.649" rx="6.73" transform="translate(84.662 0)" fill="#263238"/>
      <path id="Path_97671" data-name="Path 97671" d="M243.773,79.75l-1.7,3.114a2.123,2.123,0,0,1-1.861,1.125H212.08a2.142,2.142,0,0,1-1.867-1.112l-1.694-3.114a2.123,2.123,0,0,0-1.867-1.112h-19.66a2.129,2.129,0,0,0-2.123,2.142V248.939a2.129,2.129,0,0,0,2.123,2.129h78.294a2.129,2.129,0,0,0,2.142-2.129V80.792a2.129,2.129,0,0,0-2.129-2.129H245.646a2.123,2.123,0,0,0-1.873,1.087Z" transform="translate(-97.005 -74.859)" fill="#fff" stroke="#263238" stroke-linecap="round" stroke-linejoin="round" stroke-width="1"/>
      <circle id="Ellipse_302" data-name="Ellipse 302" cx="1.144" cy="1.144" r="1.144" transform="translate(121.891 4.111)" fill="none" stroke="#fff" stroke-miterlimit="10" stroke-width="1"/>
      <path id="Path_97672" data-name="Path 97672" d="M259.949,80.536a.71.71,0,1,1-.206-.506A.71.71,0,0,1,259.949,80.536Z" transform="translate(-123.571 -75.281)" fill="none" stroke="#fff" stroke-miterlimit="10" stroke-width="1"/>
      <path id="Path_97673" data-name="Path 97673" d="M251.6,80.24h-6.956a.441.441,0,0,0-.441.448h0a.441.441,0,0,0,.441.441H251.6a.441.441,0,0,0,.441-.441h0a.441.441,0,0,0-.441-.448Z" transform="translate(-118.403 -75.432)" fill="#fff"/>
      <rect id="Rectangle_12845" data-name="Rectangle 12845" width="7.5" height="3.184" transform="translate(94.923 8.056)" fill="none" stroke="#263238" stroke-linecap="round" stroke-linejoin="round" stroke-width="1"/>
      <rect id="Rectangle_12846" data-name="Rectangle 12846" width="1.164" height="2.116" transform="translate(102.417 8.593)" fill="none" stroke="#263238" stroke-linecap="round" stroke-linejoin="round" stroke-width="1"/>
      <rect id="Rectangle_12847" data-name="Rectangle 12847" width="1.33" height="1.157" transform="translate(154.235 10.089)" fill="none" stroke="#263238" stroke-linecap="round" stroke-linejoin="round" stroke-width="1"/>
      <rect id="Rectangle_12848" data-name="Rectangle 12848" width="1.33" height="2.321" transform="translate(156.831 8.925)" fill="none" stroke="#263238" stroke-linecap="round" stroke-linejoin="round" stroke-width="1"/>
      <rect id="Rectangle_12849" data-name="Rectangle 12849" width="1.33" height="3.478" transform="translate(159.427 7.762)" fill="none" stroke="#263238" stroke-linecap="round" stroke-linejoin="round" stroke-width="1"/>
      <rect id="Rectangle_12850" data-name="Rectangle 12850" width="1.33" height="4.642" transform="translate(162.016 6.598)" fill="none" stroke="#263238" stroke-linecap="round" stroke-linejoin="round" stroke-width="1"/>
      <rect id="Rectangle_12851" data-name="Rectangle 12851" width="81.478" height="77.712" transform="translate(88.396 40.944)" fill="#fff" opacity="0.5"/>
      <path id="Path_97674" data-name="Path 97674" d="M218.166,115.9v1.349c0,1.669-.8,2.557-2.436,2.557h-.774v3.906H213.32V113.32h2.41C217.367,113.32,218.166,114.228,218.166,115.9Zm-3.2-1.087v3.523h.774c.518,0,.8-.237.8-.978v-1.566c0-.742-.281-.978-.8-.978Z" transform="translate(-107.266 -87.363)" fill="#263238"/>
      <path id="Path_97675" data-name="Path 97675" d="M226.839,123.729h-1.65l-.288-1.886h-2l-.288,1.886h-1.5l1.669-10.409h2.391Zm-3.734-3.3h1.579l-.774-5.262h-.032Z" transform="translate(-110.075 -87.363)" fill="#263238"/>
      <path id="Path_97676" data-name="Path 97676" d="M231.345,120.282l-2.065-6.962h1.739l1.234,4.744h.032l1.234-4.744h1.56l-2.065,6.962v3.446h-1.637Z" transform="translate(-113.022 -87.363)" fill="#263238"/>
      <path id="Path_97677" data-name="Path 97677" d="M242.765,120.711h.032l1.1-7.391h2.276v10.409h-1.547v-7.461h0l-1.1,7.461h-1.547l-1.189-7.359h0v7.359H239.3V113.32h2.276Z" transform="translate(-116.635 -87.363)" fill="#263238"/>
      <path id="Path_97678" data-name="Path 97678" d="M253.547,117.706H255.8v1.49h-2.244v3.05h2.826v1.483H251.91V113.32h4.475v1.49h-2.826Z" transform="translate(-121.183 -87.363)" fill="#263238"/>
      <path id="Path_97679" data-name="Path 97679" d="M261.952,116.191h-.032v7.538h-1.47V113.32H262.5l1.65,6.234h0V113.32h1.458v10.409h-1.675Z" transform="translate(-124.263 -87.363)" fill="#263238"/>
      <path id="Path_97680" data-name="Path 97680" d="M269.66,113.32h5.057v1.49H273v8.919h-1.637V114.81H269.66Z" transform="translate(-127.585 -87.363)" fill="#263238"/>
      <path id="Path_97681" data-name="Path 97681" d="M280.745,113.14c1.586,0,2.4.953,2.4,2.615v.326H281.6v-.428c0-.748-.294-1.029-.818-1.029s-.812.281-.812,1.029.326,1.323,1.394,2.257c1.368,1.208,1.8,2.065,1.8,3.254,0,1.669-.838,2.621-2.442,2.621s-2.436-.953-2.436-2.621v-.639h1.547v.748c0,.742.326,1.01.844,1.01s.85-.269.85-1.01-.326-1.323-1.4-2.263c-1.368-1.2-1.8-2.065-1.8-3.254C278.335,114.093,279.153,113.14,280.745,113.14Z" transform="translate(-130.697 -87.298)" fill="#263238"/>
      <rect id="Rectangle_12852" data-name="Rectangle 12852" width="68.423" height="10.223" transform="translate(94.923 50.361)" fill="#fff" stroke="#263238" stroke-linecap="round" stroke-linejoin="round" stroke-width="1"/>
      <rect id="Rectangle_12853" data-name="Rectangle 12853" width="68.423" height="10.223" transform="translate(94.923 69.535)" fill="#fff" stroke="#263238" stroke-linecap="round" stroke-linejoin="round" stroke-width="1"/>
      <rect id="Rectangle_12854" data-name="Rectangle 12854" width="68.423" height="10.223" transform="translate(94.923 86.97)" fill="#fff" stroke="#263238" stroke-linecap="round" stroke-linejoin="round" stroke-width="1"/>
      <rect id="Rectangle_12855" data-name="Rectangle 12855" width="32.396" height="11.969" transform="translate(94.923 100.921)" fill="#fff" stroke="#263238" stroke-linecap="round" stroke-linejoin="round" stroke-width="1"/>
      <rect id="Rectangle_12856" data-name="Rectangle 12856" width="32.396" height="11.969" transform="translate(130.957 100.921)" fill="#fff" stroke="#263238" stroke-linecap="round" stroke-linejoin="round" stroke-width="1"/>
      <path id="Path_97682" data-name="Path 97682" d="M201.372,147.149v.275H199.23V144.4h2.078v.275h-1.752v1.081h1.56v.269h-1.56v1.125Z" transform="translate(-102.184 -98.572)" fill="#263238"/>
      <path id="Path_97683" data-name="Path 97683" d="M207.407,146.527v1.317h-.332v-1.279c0-.48-.243-.729-.639-.729a.735.735,0,0,0-.761.825v1.189h-.307v-1.279c0-.48-.243-.729-.639-.729a.735.735,0,0,0-.761.825v1.189h-.307v-2.27h.294V146a.921.921,0,0,1,.838-.435.806.806,0,0,1,.806.48,1,1,0,0,1,.9-.48.857.857,0,0,1,.908.959Z" transform="translate(-103.782 -98.992)" fill="#263238"/>
      <path id="Path_97684" data-name="Path 97684" d="M212.435,146.441v1.407h-.294V147.5a.869.869,0,0,1-.786.377c-.511,0-.825-.269-.825-.639s.224-.639.876-.639h.7v-.141a.558.558,0,0,0-.639-.6,1.144,1.144,0,0,0-.754.269l-.141-.23a1.47,1.47,0,0,1,.927-.307.806.806,0,0,1,.933.857Zm-.307.729v-.377h-.716c-.441,0-.582.173-.582.409s.211.428.575.428a.735.735,0,0,0,.7-.46Z" transform="translate(-106.259 -98.995)" fill="#263238"/>
      <path id="Path_97685" data-name="Path 97685" d="M214.7,144.337a.224.224,0,0,1,.224-.217.217.217,0,0,1,0,.435.224.224,0,0,1-.224-.217Zm.07.716h.307v2.27h-.307Z" transform="translate(-107.763 -98.471)" fill="#263238"/>
      <path id="Path_97686" data-name="Path 97686" d="M216.63,144.12h.307v3.2h-.307Z" transform="translate(-108.459 -98.471)" fill="#263238"/>
      <path id="Path_97687" data-name="Path 97687" d="M204.682,159.449v.275H202.54V156.7h2.078v.275h-1.784v1.074H204.4v.275h-1.566v1.125Z" transform="translate(-103.378 -103.008)" fill="#263238"/>
      <path id="Path_97688" data-name="Path 97688" d="M210.727,158.808v1.317h-.307v-1.279c0-.48-.243-.729-.639-.729a.729.729,0,0,0-.761.818v1.2h-.307v-1.279c0-.48-.243-.729-.639-.729a.729.729,0,0,0-.761.818v1.2H207v-2.276h.294v.416a.927.927,0,0,1,.838-.428.818.818,0,0,1,.806.48.991.991,0,0,1,.9-.48.857.857,0,0,1,.889.959Z" transform="translate(-104.986 -103.421)" fill="#263238"/>
      <path id="Path_97689" data-name="Path 97689" d="M215.735,158.723v1.407h-.294v-.352a.85.85,0,0,1-.78.371c-.511,0-.831-.269-.831-.639s.23-.639.882-.639h.722v-.134a.558.558,0,0,0-.639-.6,1.17,1.17,0,0,0-.761.269l-.134-.23a1.419,1.419,0,0,1,.927-.307.806.806,0,0,1,.908.857Zm-.3.722v-.371h-.716c-.441,0-.582.173-.582.409s.211.428.575.428a.729.729,0,0,0,.722-.467Z" transform="translate(-107.449 -103.426)" fill="#263238"/>
      <path id="Path_97690" data-name="Path 97690" d="M218,156.607a.224.224,0,0,1,.224-.217.217.217,0,0,1,.224.217.224.224,0,1,1-.448,0Zm.07.716h.307V159.6h-.307Z" transform="translate(-108.953 -102.896)" fill="#263238"/>
      <path id="Path_97691" data-name="Path 97691" d="M219.94,156.39h.3v3.2h-.3Z" transform="translate(-109.653 -102.896)" fill="#263238"/>
      <path id="Path_97692" data-name="Path 97692" d="M223.821,158.8v1.317h-.307v-1.279a.639.639,0,0,0-.678-.729.742.742,0,0,0-.8.818v1.2h-.307v-2.276h.294v.422a.959.959,0,0,1,.863-.435.87.87,0,0,1,.933.965Z" transform="translate(-110.299 -103.417)" fill="#263238"/>
      <path id="Path_97693" data-name="Path 97693" d="M227.925,158.722v1.407h-.294v-.352a.85.85,0,0,1-.78.371c-.518,0-.831-.269-.831-.639s.224-.639.876-.639h.722v-.134c0-.39-.217-.6-.639-.6a1.144,1.144,0,0,0-.754.269l-.141-.23a1.432,1.432,0,0,1,.927-.307.806.806,0,0,1,.914.857Zm-.307.722v-.371h-.71c-.441,0-.588.173-.588.409s.211.428.575.428a.729.729,0,0,0,.729-.467Z" transform="translate(-111.846 -103.425)" fill="#263238"/>
      <path id="Path_97694" data-name="Path 97694" d="M234.07,158.807v1.317h-.307v-1.279c0-.48-.243-.729-.639-.729a.729.729,0,0,0-.761.818v1.2h-.326v-1.279c0-.48-.243-.729-.639-.729a.729.729,0,0,0-.761.818v1.2h-.307v-2.276h.294v.416a.927.927,0,0,1,.838-.428.806.806,0,0,1,.806.48,1,1,0,0,1,.9-.479.857.857,0,0,1,.9.959Z" transform="translate(-113.4 -103.421)" fill="#263238"/>
      <path id="Path_97695" data-name="Path 97695" d="M239.338,159.069H237.42a.844.844,0,0,0,.9.78.9.9,0,0,0,.7-.3l.173.2a1.2,1.2,0,0,1-2.071-.786,1.093,1.093,0,0,1,1.112-1.151,1.08,1.08,0,0,1,1.1,1.151S239.338,159.037,239.338,159.069Zm-1.918-.23h1.611a.806.806,0,1,0-1.611,0Z" transform="translate(-115.848 -103.408)" fill="#263238"/>
      <path id="Path_97696" data-name="Path 97696" d="M245.318,158.55c0,.735-.275,1.164-.722,1.164a.46.46,0,0,1-.486-.467.965.965,0,0,1-.863.467,1.112,1.112,0,1,1,0-2.225.959.959,0,0,1,.857.454v-.428h.281v1.637c0,.243.121.332.269.332.262,0,.435-.332.435-.914a1.649,1.649,0,0,0-1.771-1.694,1.739,1.739,0,0,0,0,3.478,1.918,1.918,0,0,0,.831-.192l.07.211a2.085,2.085,0,0,1-.9.2,1.956,1.956,0,0,1,0-3.913,1.867,1.867,0,0,1,2,1.892Zm-1.215.045a.825.825,0,1,0-.388.774A.825.825,0,0,0,244.1,158.594Z" transform="translate(-117.378 -102.991)" fill="#263238"/>
      <path id="Path_97697" data-name="Path 97697" d="M250.394,159.077h-1.918a.844.844,0,0,0,.9.793.9.9,0,0,0,.7-.3l.173.2a1.2,1.2,0,0,1-2.071-.786,1.093,1.093,0,0,1,1.112-1.151,1.08,1.08,0,0,1,1.1,1.151A.7.7,0,0,1,250.394,159.077Zm-1.918-.23h1.611a.806.806,0,0,0-1.611,0Z" transform="translate(-119.834 -103.415)" fill="#263238"/>
      <path id="Path_97698" data-name="Path 97698" d="M256.4,158.808v1.317h-.326v-1.279c0-.479-.243-.729-.639-.729a.729.729,0,0,0-.761.818v1.2h-.307v-1.279c0-.479-.243-.729-.639-.729a.729.729,0,0,0-.761.818v1.2h-.307v-2.276h.294v.416a.92.92,0,0,1,.831-.428.825.825,0,0,1,.812.48.978.978,0,0,1,.9-.479.857.857,0,0,1,.908.959Z" transform="translate(-121.454 -103.421)" fill="#263238"/>
      <path id="Path_97699" data-name="Path 97699" d="M261.4,158.722v1.407h-.313v-.352a.857.857,0,0,1-.78.371c-.518,0-.831-.269-.831-.639s.224-.639.876-.639h.735v-.134c0-.39-.217-.6-.639-.6a1.144,1.144,0,0,0-.754.269l-.141-.23a1.432,1.432,0,0,1,.927-.307.806.806,0,0,1,.921.857Zm-.307.722v-.371h-.71c-.441,0-.588.173-.588.409s.211.428.575.428a.729.729,0,0,0,.716-.467Z" transform="translate(-123.913 -103.425)" fill="#263238"/>
      <path id="Path_97700" data-name="Path 97700" d="M263.69,156.6a.224.224,0,1,1,.224.224A.224.224,0,0,1,263.69,156.6Zm.064.716h.307V159.6h-.307Z" transform="translate(-125.432 -102.892)" fill="#263238"/>
      <path id="Path_97701" data-name="Path 97701" d="M265.61,156.39h.307v3.2h-.307Z" transform="translate(-126.124 -102.896)" fill="#263238"/>
      <path id="Path_97702" data-name="Path 97702" d="M267.12,160.94a.224.224,0,0,1,.23-.23.23.23,0,0,1,.23.23.237.237,0,0,1-.23.237.23.23,0,0,1-.23-.237Z" transform="translate(-126.669 -104.454)" fill="#263238"/>
      <path id="Path_97703" data-name="Path 97703" d="M268.4,158.98a1.119,1.119,0,0,1,1.17-1.151.991.991,0,0,1,.9.448l-.23.153a.78.78,0,0,0-.639-.332.889.889,0,0,0,0,1.771.767.767,0,0,0,.639-.332l.23.153a1,1,0,0,1-.9.448,1.119,1.119,0,0,1-1.17-1.157Z" transform="translate(-127.13 -103.414)" fill="#263238"/>
      <path id="Path_97704" data-name="Path 97704" d="M272.15,158.977a1.157,1.157,0,1,1,1.157,1.157,1.119,1.119,0,0,1-1.157-1.157Zm2,0a.85.85,0,1,0-.818.876.831.831,0,0,0,.818-.876Z" transform="translate(-128.483 -103.412)" fill="#263238"/>
      <path id="Path_97705" data-name="Path 97705" d="M280.511,158.808v1.317H280.2v-1.279c0-.479-.243-.729-.639-.729a.729.729,0,0,0-.761.818v1.2H278.5v-1.279c0-.479-.243-.729-.639-.729a.729.729,0,0,0-.761.818v1.2h-.307v-2.276h.294v.416a.921.921,0,0,1,.831-.428.825.825,0,0,1,.812.48.985.985,0,0,1,.9-.479.857.857,0,0,1,.889.959Z" transform="translate(-130.156 -103.421)" fill="#263238"/>
      <path id="Path_97706" data-name="Path 97706" d="M202.856,189.106l.537.307-.1.179-.543-.313v.639h-.2v-.639l-.543.313-.1-.179.543-.307-.543-.3.1-.185.543.32V188.3h.2v.639l.543-.32.1.185Z" transform="translate(-103.15 -114.405)" fill="#263238"/>
      <path id="Path_97707" data-name="Path 97707" d="M205.6,189.106l.537.307-.1.179-.537-.313v.639h-.2v-.639l-.537.313-.109-.179.543-.307-.543-.3.109-.185.537.32V188.3h.217v.639l.537-.32.1.185Z" transform="translate(-104.139 -114.405)" fill="#263238"/>
      <path id="Path_97708" data-name="Path 97708" d="M208.35,189.106l.537.307-.1.179-.537-.313v.639h-.2v-.639l-.537.313-.1-.179.537-.307-.537-.3.1-.185.537.32V188.3h.2v.639l.537-.32.1.185Z" transform="translate(-105.134 -114.405)" fill="#263238"/>
      <path id="Path_97709" data-name="Path 97709" d="M211.086,189.106l.537.307-.1.179-.543-.313v.639h-.2v-.639l-.543.313-.1-.179.543-.307-.543-.3.1-.185.543.32V188.3h.2v.639l.543-.32.1.185Z" transform="translate(-106.119 -114.405)" fill="#263238"/>
      <path id="Path_97710" data-name="Path 97710" d="M213.833,189.106l.537.307-.1.179-.537-.313v.639h-.2v-.639l-.537.313-.109-.179.543-.307-.543-.3.109-.185.537.32V188.3h.2v.639l.537-.32.1.185Z" transform="translate(-107.107 -114.405)" fill="#263238"/>
      <path id="Path_97711" data-name="Path 97711" d="M216.58,189.106l.537.307-.1.179-.537-.313v.639h-.2v-.639l-.537.313-.1-.179.537-.307-.537-.3.1-.185.537.32V188.3h.23v.639l.537-.32.1.185Z" transform="translate(-108.102 -114.405)" fill="#263238"/>
      <path id="Path_97712" data-name="Path 97712" d="M219.316,189.106l.537.307-.1.179-.543-.313v.639h-.2v-.639l-.543.313-.1-.179.543-.307-.543-.3.1-.185.543.32V188.3h.2v.639l.543-.32.1.185Z" transform="translate(-109.087 -114.405)" fill="#263238"/>
      <path id="Path_97713" data-name="Path 97713" d="M222.063,189.106l.537.307-.1.179-.543-.313v.639h-.2v-.639l-.537.313-.109-.179.543-.307-.543-.3.109-.185.537.32V188.3h.2v.639l.543-.32.1.185Z" transform="translate(-110.075 -114.405)" fill="#263238"/>
      <path id="Path_97714" data-name="Path 97714" d="M224.81,189.106l.537.307-.1.179-.537-.313v.639h-.2v-.639l-.537.313-.1-.179.537-.307-.537-.3.1-.185.537.32V188.3h.2v.639l.537-.32.1.185Z" transform="translate(-111.07 -114.405)" fill="#263238"/>
      <path id="Path_97715" data-name="Path 97715" d="M227.546,189.106l.537.307-.1.179-.543-.313v.639h-.2v-.639l-.543.313-.1-.179.537-.307-.537-.3.1-.185.543.32V188.3h.2v.639l.543-.32.1.185Z" transform="translate(-112.055 -114.405)" fill="#263238"/>
      <path id="Path_97716" data-name="Path 97716" d="M230.293,189.106l.531.307-.1.179-.543-.313v.639h-.2v-.639l-.537.313-.109-.179.543-.307-.543-.3.109-.185.537.32V188.3h.2v.639l.543-.32.1.185Z" transform="translate(-113.043 -114.405)" fill="#263238"/>
      <path id="Path_97717" data-name="Path 97717" d="M201.6,175.423c0,.639-.467,1.036-1.234,1.036h-.812v.953h-.326V174.4h1.132C201.135,174.4,201.6,174.784,201.6,175.423Zm-.32,0c0-.486-.32-.761-.927-.761h-.8v1.515h.806C200.963,176.19,201.282,175.915,201.282,175.423Z" transform="translate(-102.184 -109.391)" fill="#263238"/>
      <path id="Path_97718" data-name="Path 97718" d="M205.5,176.442v1.407H205.2V177.5a.863.863,0,0,1-.786.371c-.512,0-.825-.262-.825-.639s.224-.639.876-.639h.722v-.134a.558.558,0,0,0-.639-.6,1.144,1.144,0,0,0-.754.269l-.141-.23a1.432,1.432,0,0,1,.927-.307.806.806,0,0,1,.914.857Zm-.307.722v-.371h-.7c-.441,0-.582.173-.582.409s.211.428.575.428A.729.729,0,0,0,205.188,177.165Z" transform="translate(-103.756 -109.816)" fill="#263238"/>
      <path id="Path_97719" data-name="Path 97719" d="M207.38,177.587l.134-.243a1.407,1.407,0,0,0,.812.256c.428,0,.607-.147.607-.377,0-.588-1.47-.121-1.47-1.023,0-.371.32-.639.9-.639a1.566,1.566,0,0,1,.806.211l-.134.243a1.189,1.189,0,0,0-.671-.192c-.409,0-.588.16-.588.377,0,.639,1.471.153,1.471,1.023,0,.4-.345.639-.94.639A1.515,1.515,0,0,1,207.38,177.587Z" transform="translate(-105.123 -109.81)" fill="#263238"/>
      <path id="Path_97720" data-name="Path 97720" d="M210.68,177.587l.141-.243a1.374,1.374,0,0,0,.806.256c.435,0,.639-.147.639-.377,0-.588-1.47-.121-1.47-1.023,0-.371.32-.639.9-.639a1.529,1.529,0,0,1,.8.211l-.134.243a1.183,1.183,0,0,0-.639-.192c-.416,0-.595.16-.595.377,0,.639,1.47.153,1.47,1.023,0,.4-.345.639-.933.639A1.522,1.522,0,0,1,210.68,177.587Z" transform="translate(-106.313 -109.81)" fill="#263238"/>
      <path id="Path_97721" data-name="Path 97721" d="M217.527,175.58l-.863,2.27h-.288l-.716-1.86-.716,1.86h-.294l-.85-2.27h.294l.71,1.918.729-1.918h.269l.722,1.918.722-1.918Z" transform="translate(-107.439 -109.817)" fill="#263238"/>
      <path id="Path_97722" data-name="Path 97722" d="M219.89,176.7a1.157,1.157,0,1,1,1.157,1.157,1.119,1.119,0,0,1-1.157-1.157Zm2,0a.844.844,0,1,0-.844.844A.844.844,0,0,0,221.891,176.7Z" transform="translate(-109.635 -109.803)" fill="#263238"/>
      <path id="Path_97723" data-name="Path 97723" d="M225.634,175.549v.288h-.077a.735.735,0,0,0-.761.838v1.157h-.307v-2.27h.326V176A.85.85,0,0,1,225.634,175.549Z" transform="translate(-111.294 -109.805)" fill="#263238"/>
      <path id="Path_97724" data-name="Path 97724" d="M229.086,174.116v3.2h-.294v-.448a.978.978,0,0,1-.876.467,1.157,1.157,0,0,1,0-2.308.985.985,0,0,1,.863.448V174.11Zm-.3,2.065a.844.844,0,1,0-.844.889.831.831,0,0,0,.844-.889Z" transform="translate(-112.143 -109.287)" fill="#263238"/>
      <path id="Path_97725" data-name="Path 97725" d="M236.89,215v3.031H236.6v-2.749h-.716V215Z" transform="translate(-115.402 -124.034)" fill="#263238"/>
      <path id="Path_97726" data-name="Path 97726" d="M240.583,217.714v.281H238.46v-.224l1.279-1.234c.339-.332.409-.537.409-.742,0-.352-.249-.569-.71-.569a1.017,1.017,0,0,0-.825.339l-.224-.192a1.368,1.368,0,0,1,1.074-.435c.639,0,1,.313,1,.818a1.279,1.279,0,0,1-.5.946l-1.029,1.01Z" transform="translate(-116.307 -124.011)" fill="#263238"/>
      <path id="Path_97727" data-name="Path 97727" d="M244.327,217.148c0,.505-.371.9-1.1.9a1.573,1.573,0,0,1-1.087-.39l.147-.249a1.336,1.336,0,0,0,.94.352c.505,0,.78-.23.78-.607s-.256-.6-.818-.6h-.217v-.23l.838-1.049h-1.547V215h1.918v.224l-.85,1.055C244,216.323,244.327,216.662,244.327,217.148Z" transform="translate(-117.66 -124.034)" fill="#263238"/>
      <path id="Path_97728" data-name="Path 97728" d="M248.781,217.211h-.607v.8h-.307v-.8H246.16v-.224l1.6-2.008h.345l-1.547,1.931h1.311v-.7h.3v.7h.607Z" transform="translate(-119.11 -124.027)" fill="#263238"/>
      <path id="Path_97729" data-name="Path 97729" d="M254.457,217.1c0,.518-.358.921-1.1.921a1.579,1.579,0,0,1-1.087-.39l.153-.249a1.279,1.279,0,0,0,.927.352c.518,0,.786-.249.786-.639s-.243-.639-1.01-.639h-.639l.16-1.522H254.3v.281h-1.387l-.1.959h.39C254.111,216.2,254.457,216.567,254.457,217.1Z" transform="translate(-121.313 -124.009)" fill="#263238"/>
      <path id="Path_97730" data-name="Path 97730" d="M258.576,217.088a.946.946,0,0,1-1.036.933c-.806,0-1.24-.563-1.24-1.515a1.4,1.4,0,0,1,1.381-1.566,1.419,1.419,0,0,1,.723.166l-.128.249a1.074,1.074,0,0,0-.588-.141c-.639,0-1.074.416-1.074,1.24v.243a.978.978,0,0,1,.927-.518.921.921,0,0,1,1.036.908Zm-.307,0c0-.4-.294-.639-.761-.639a.7.7,0,0,0-.78.639c0,.332.275.639.8.639a.639.639,0,0,0,.742-.627Z" transform="translate(-122.767 -124.012)" fill="#263238"/>
      <path id="Path_97731" data-name="Path 97731" d="M262.441,215v.224l-1.279,2.807h-.339l1.247-2.749h-1.554v.563h-.307V215Z" transform="translate(-124.177 -124.034)" fill="#263238"/>
      <path id="Path_97732" data-name="Path 97732" d="M266.53,217.167c0,.537-.454.87-1.176.87s-1.164-.332-1.164-.87a.761.761,0,0,1,.582-.748.639.639,0,0,1-.473-.639c0-.492.416-.8,1.055-.8s1.068.307,1.068.8a.678.678,0,0,1-.486.639A.767.767,0,0,1,266.53,217.167Zm-.32,0c0-.371-.32-.607-.857-.607s-.85.237-.85.607.313.639.85.639.857-.256.857-.646Zm-.863-.857c.473,0,.754-.211.754-.543s-.3-.543-.754-.543-.748.2-.748.543S264.88,216.31,265.347,216.31Z" transform="translate(-125.612 -124.027)" fill="#263238"/>
      <path id="Path_97733" data-name="Path 97733" d="M272.433,216.453c0,1.029-.563,1.566-1.387,1.566a1.413,1.413,0,0,1-.716-.166l.128-.249a1.074,1.074,0,0,0,.588.141c.639,0,1.068-.422,1.068-1.24a1.673,1.673,0,0,0,0-.243.959.959,0,0,1-.921.518.921.921,0,0,1-1.023-.908.946.946,0,0,1,1.036-.933C271.979,214.938,272.433,215.5,272.433,216.453Zm-.428-.6c0-.332-.275-.639-.8-.639a.639.639,0,0,0-.742.639c0,.4.294.639.761.639a.7.7,0,0,0,.754-.639Z" transform="translate(-127.769 -124.01)" fill="#263238"/>
      <path id="Path_97734" data-name="Path 97734" d="M275.129,215v3.031h-.313v-2.749H274.1V215Z" transform="translate(-129.186 -124.034)" fill="#263238"/>
      <path id="Path_97735" data-name="Path 97735" d="M276.83,216.481c0-.965.511-1.541,1.208-1.541s1.208.575,1.208,1.541-.505,1.541-1.208,1.541S276.83,217.446,276.83,216.481Zm2.1,0c0-.806-.358-1.279-.889-1.279s-.889.448-.889,1.279.364,1.279.889,1.279S278.927,217.286,278.927,216.481Z" transform="translate(-130.171 -124.012)" fill="#263238"/>
      <path id="Path_97736" data-name="Path 97736" d="M282.029,215v3.031h-.313v-2.749H281V215Z" transform="translate(-131.675 -124.034)" fill="#263238"/>
      <path id="Path_97737" data-name="Path 97737" d="M286.239,215v3.031h-.313v-2.749h-.716V215Z" transform="translate(-133.193 -124.034)" fill="#263238"/>
      <path id="Path_97738" data-name="Path 97738" d="M288.673,215v3.031h-.307v-2.749h-.716V215Z" transform="translate(-134.073 -124.034)" fill="#263238"/>
      <path id="Path_97739" data-name="Path 97739" d="M292.373,217.714V218H290.25v-.224l1.279-1.234c.339-.332.409-.537.409-.742,0-.352-.249-.569-.71-.569a1.017,1.017,0,0,0-.825.339l-.224-.192a1.381,1.381,0,0,1,1.074-.435c.639,0,1,.313,1,.818a1.279,1.279,0,0,1-.5.946l-1.055,1.01Z" transform="translate(-134.986 -124.012)" fill="#263238"/>
      <path id="Path_97740" data-name="Path 97740" d="M294.939,215v3.031H294.6v-2.749h-.71V215Z" transform="translate(-136.324 -124.034)" fill="#263238"/>
      <path id="Path_97741" data-name="Path 97741" d="M210.276,213.186v-.46a.806.806,0,0,0-.806-.806h-8.164a.806.806,0,0,0-.806.806v.46Z" transform="translate(-102.642 -122.923)" fill="#263238"/>
      <path id="Path_97742" data-name="Path 97742" d="M200.5,214.89v3.389a.806.806,0,0,0,.806.806h8.164a.806.806,0,0,0,.806-.806V214.89Z" transform="translate(-102.642 -123.994)" fill="#263238"/>
      <path id="Path_97743" data-name="Path 97743" d="M200.69,241.934c0-.965.505-1.534,1.208-1.534s1.208.569,1.208,1.534-.511,1.541-1.208,1.541S200.69,242.9,200.69,241.934Zm2.1,0c0-.806-.364-1.279-.889-1.279s-.889.448-.889,1.279.358,1.279.889,1.279.908-.467.908-1.279Z" transform="translate(-102.71 -133.195)" fill="#263238"/>
      <path id="Path_97744" data-name="Path 97744" d="M207.48,242.62c0,.537-.454.869-1.176.869s-1.164-.332-1.164-.869a.748.748,0,0,1,.582-.742.684.684,0,0,1-.473-.639c0-.492.416-.8,1.055-.8s1.068.307,1.068.8a.69.69,0,0,1-.48.639.754.754,0,0,1,.588.742Zm-.32,0c0-.371-.32-.6-.857-.6s-.85.23-.85.6.32.639.85.639.857-.269.857-.646Zm-.831-.857c.473,0,.754-.211.754-.537s-.3-.55-.754-.55-.748.2-.748.543S205.837,241.763,206.329,241.763Z" transform="translate(-104.315 -133.209)" fill="#263238"/>
      <path id="Path_97745" data-name="Path 97745" d="M210.4,239.48h.281l-1.432,4.066H209Z" transform="translate(-105.708 -132.863)" fill="#263238"/>
      <path id="Path_97746" data-name="Path 97746" d="M213.763,243.167v.281H211.64v-.224L212.919,242c.339-.339.4-.543.4-.748,0-.352-.243-.569-.7-.569a1.029,1.029,0,0,0-.831.339l-.217-.192a1.355,1.355,0,0,1,1.074-.428c.639,0,1,.307,1,.812a1.24,1.24,0,0,1-.492.946l-1.029,1.01Z" transform="translate(-106.634 -133.193)" fill="#263238"/>
      <path id="Path_97747" data-name="Path 97747" d="M217.557,242.551c0,.518-.358.921-1.1.921a1.579,1.579,0,0,1-1.087-.39l.153-.249a1.279,1.279,0,0,0,.927.352c.518,0,.786-.249.786-.639s-.237-.639-1.01-.639h-.639l.153-1.515H217.4v.275h-1.387l-.1.965h.39C217.211,241.662,217.557,242.02,217.557,242.551Z" transform="translate(-108.005 -133.191)" fill="#263238"/>
      <path id="Path_97748" data-name="Path 97748" d="M202.15,236.427v.173h-1.33v-1.88H202.1v.179h-1.087v.639h.972v.173h-.972v.7Z" transform="translate(-102.757 -131.146)" fill="#263238"/>
      <path id="Path_97749" data-name="Path 97749" d="M204.6,236.6l-.6-.831-.639.831h-.23l.716-.965-.639-.914h.224l.569.767.563-.767h.211l-.639.908.716.972Z" transform="translate(-103.59 -131.146)" fill="#263238"/>
      <path id="Path_97750" data-name="Path 97750" d="M207.72,235.366c0,.4-.294.639-.767.639h-.505v.595h-.2v-1.88h.7C207.426,234.72,207.72,234.963,207.72,235.366Zm-.2,0c0-.3-.2-.473-.575-.473h-.5v.94h.5C207.324,235.832,207.522,235.66,207.522,235.366Z" transform="translate(-104.716 -131.146)" fill="#263238"/>
      <path id="Path_97751" data-name="Path 97751" d="M210.37,234.72h.761a.94.94,0,1,1,0,1.88h-.761Zm.748,1.707a.767.767,0,0,0,0-1.534h-.55v1.534Z" transform="translate(-106.202 -131.146)" fill="#263238"/>
      <path id="Path_97752" data-name="Path 97752" d="M214.773,235.977v.876h-.185v-.224a.524.524,0,0,1-.486.237c-.313,0-.511-.166-.511-.409s.141-.4.543-.4h.448v-.083a.345.345,0,0,0-.4-.377.723.723,0,0,0-.473.166l-.083-.141a.889.889,0,0,1,.575-.192.5.5,0,0,1,.569.55Zm-.192.448v-.23h-.441c-.275,0-.364.109-.364.256s.134.262.358.262a.448.448,0,0,0,.448-.281Z" transform="translate(-107.363 -131.399)" fill="#263238"/>
      <path id="Path_97753" data-name="Path 97753" d="M216.869,236.611a.422.422,0,0,1-.294.1.377.377,0,0,1-.416-.409v-.857h-.249v-.16h.249V235h.192v.307h.428v.16h-.428v.812a.224.224,0,0,0,.243.256.332.332,0,0,0,.211-.07Z" transform="translate(-108.2 -131.247)" fill="#263238"/>
      <path id="Path_97754" data-name="Path 97754" d="M219.046,236.209h-1.151a.524.524,0,0,0,.556.486.55.55,0,0,0,.435-.185l.109.128a.716.716,0,0,1-.55.23.7.7,0,0,1-.735-.722.678.678,0,0,1,.684-.716.639.639,0,0,1,.684.716Zm-1.183-.147h1a.505.505,0,0,0-1,0Z" transform="translate(-108.848 -131.401)" fill="#263238"/>
      <path id="Path_97755" data-name="Path 97755" d="M255.963,240.44v3.024h-.307v-2.749h-.716v-.275Z" transform="translate(-122.276 -133.209)" fill="#263238"/>
      <path id="Path_97756" data-name="Path 97756" d="M259.663,243.167v.281H257.54v-.224L258.819,242c.339-.339.409-.543.409-.748,0-.352-.249-.569-.71-.569a1.017,1.017,0,0,0-.825.339l-.224-.192a1.368,1.368,0,0,1,1.074-.428c.639,0,1,.307,1,.812a1.279,1.279,0,0,1-.5.946l-1.029,1.01Z" transform="translate(-123.188 -133.193)" fill="#263238"/>
      <path id="Path_97757" data-name="Path 97757" d="M263.407,242.595c0,.505-.371.9-1.1.9a1.573,1.573,0,0,1-1.087-.39l.153-.249a1.279,1.279,0,0,0,.933.352c.505,0,.78-.23.78-.607s-.256-.6-.818-.6h-.217v-.23l.838-1.049h-1.547v-.275h1.918v.217l-.857,1.074C263.081,241.77,263.407,242.109,263.407,242.595Z" transform="translate(-124.541 -133.209)" fill="#263238"/>
      <path id="Path_97758" data-name="Path 97758" d="M255.1,235.649a.946.946,0,0,1,.985-.959.914.914,0,0,1,.684.275l-.121.128a.761.761,0,0,0-.556-.224.78.78,0,1,0,0,1.554.735.735,0,0,0,.556-.224l.121.128a.9.9,0,0,1-.69.275.94.94,0,0,1-.978-.953Z" transform="translate(-122.334 -131.135)" fill="#263238"/>
      <path id="Path_97759" data-name="Path 97759" d="M260.8,234.72l-.639,1.88h-.211l-.55-1.6-.55,1.6h-.211L258,234.72h.2l.543,1.618.563-1.618h.185l.55,1.624.55-1.624Z" transform="translate(-123.38 -131.146)" fill="#263238"/>
      <path id="Path_97760" data-name="Path 97760" d="M228.965,269.332h-1.688l-.364.812h-.332l1.381-3.024h.32l1.381,3.024h-.339Zm-.121-.256-.716-1.624-.729,1.624Z" transform="translate(-112.048 -142.831)" fill="#263238"/>
      <path id="Path_97761" data-name="Path 97761" d="M231.69,269.416a1.119,1.119,0,0,1,1.17-1.157.985.985,0,0,1,.889.454l-.224.153a.787.787,0,0,0-.639-.339.889.889,0,0,0,0,1.777.793.793,0,0,0,.639-.332l.224.153a1,1,0,0,1-.889.448,1.119,1.119,0,0,1-1.17-1.157Z" transform="translate(-113.89 -143.242)" fill="#263238"/>
      <path id="Path_97762" data-name="Path 97762" d="M236.9,270.144a.709.709,0,0,1-.479.16.6.6,0,0,1-.639-.639v-1.394h-.4v-.262h.4v-.5h.307v.5h.7v.262h-.7v1.355a.364.364,0,0,0,.4.416.531.531,0,0,0,.339-.115Z" transform="translate(-115.222 -142.972)" fill="#263238"/>
      <path id="Path_97763" data-name="Path 97763" d="M238.53,267.044a.224.224,0,1,1,.224.224.224.224,0,0,1-.224-.224Zm.07.716h.307v2.276H238.6Z" transform="translate(-116.358 -142.723)" fill="#263238"/>
      <path id="Path_97764" data-name="Path 97764" d="M240.09,269.417a1.157,1.157,0,1,1,1.164,1.157,1.125,1.125,0,0,1-1.164-1.157Zm2,0a.844.844,0,1,0-.838.889.831.831,0,0,0,.838-.889Z" transform="translate(-116.92 -143.243)" fill="#263238"/>
      <path id="Path_97765" data-name="Path 97765" d="M246.821,269.255v1.317h-.307v-1.279a.639.639,0,0,0-.684-.722.742.742,0,0,0-.793.818v1.2h-.307v-2.276h.294v.441a.965.965,0,0,1,.863-.441.876.876,0,0,1,.933.946Z" transform="translate(-118.594 -143.259)" fill="#263238"/>
      <path id="Path_97766" data-name="Path 97766" d="M251.46,267.391v1.189h1.56v.275h-1.56v1.279h-.32V267.11h2.071v.275Z" transform="translate(-120.906 -142.828)" fill="#263238"/>
      <path id="Path_97767" data-name="Path 97767" d="M255.14,267.044a.224.224,0,1,1,.224.224A.224.224,0,0,1,255.14,267.044Zm.064.716h.307v2.276H255.2Z" transform="translate(-122.348 -142.723)" fill="#263238"/>
      <path id="Path_97768" data-name="Path 97768" d="M259.008,268.27v2a.991.991,0,0,1-1.132,1.132,1.592,1.592,0,0,1-1.061-.345l.153-.237a1.368,1.368,0,0,0,.9.313c.575,0,.837-.269.837-.825V270a1,1,0,0,1-.882.441,1.106,1.106,0,1,1,0-2.206,1.029,1.029,0,0,1,.9.454v-.435Zm-.294,1.081a.863.863,0,1,0-.863.838.812.812,0,0,0,.863-.825Z" transform="translate(-122.885 -143.234)" fill="#263238"/>
      <path id="Path_97769" data-name="Path 97769" d="M263.728,268.283v2.276h-.294v-.416a.908.908,0,0,1-.818.435.882.882,0,0,1-.959-.978v-1.317h.307v1.279a.639.639,0,0,0,.684.729.742.742,0,0,0,.774-.825v-1.2Z" transform="translate(-124.696 -143.246)" fill="#263238"/>
      <path id="Path_97770" data-name="Path 97770" d="M267.351,268.258v.3h-.077a.742.742,0,0,0-.767.844v1.157H266.2v-2.276h.294v.448A.876.876,0,0,1,267.351,268.258Z" transform="translate(-126.337 -143.241)" fill="#263238"/>
      <path id="Path_97771" data-name="Path 97771" d="M270.744,269.513h-1.918a.844.844,0,0,0,.9.793.9.9,0,0,0,.7-.3l.173.2a1.2,1.2,0,0,1-2.072-.786,1.1,1.1,0,0,1,1.112-1.157,1.081,1.081,0,0,1,1.1,1.157A.563.563,0,0,1,270.744,269.513Zm-1.918-.23h1.611a.806.806,0,0,0-1.611,0Z" transform="translate(-127.173 -143.242)" fill="#263238"/>
      <path id="Path_97772" data-name="Path 97772" d="M230.093,285.28v1.33H228.91v-1.279a5.62,5.62,0,0,1-2.96-.953l.639-1.445a4.8,4.8,0,0,0,2.308.844V281.8c-1.323-.326-2.794-.761-2.794-2.461,0-1.279.914-2.34,2.794-2.557V275.46h1.183v1.279a5.364,5.364,0,0,1,2.41.729l-.595,1.458a4.91,4.91,0,0,0-1.816-.639v2.02c1.317.307,2.768.748,2.768,2.423C232.861,283.989,231.96,285.057,230.093,285.28Zm-1.183-5.243v-1.675c-.639.141-.882.486-.882.876S228.386,279.871,228.91,280.038Zm2.039,2.858c0-.416-.345-.639-.857-.818v1.637c.595-.128.857-.435.857-.818Z" transform="translate(-111.821 -145.839)" fill="#263238"/>
      <path id="Path_97773" data-name="Path 97773" d="M243.952,284.332v1.573h-6.278v-1.247l3.2-3.03c.742-.7.87-1.125.87-1.534,0-.639-.454-1.029-1.33-1.029a2.033,2.033,0,0,0-1.72.831l-1.4-.9a3.836,3.836,0,0,1,3.3-1.547c1.854,0,3.088.953,3.088,2.461a3.322,3.322,0,0,1-1.394,2.621l-1.918,1.8Z" transform="translate(-115.91 -146.554)" fill="#263238"/>
      <path id="Path_97774" data-name="Path 97774" d="M248.92,281.753c0-2.743,1.522-4.3,3.561-4.3s3.561,1.56,3.561,4.3-1.509,4.3-3.561,4.3S248.92,284.5,248.92,281.753Zm5.191,0c0-1.918-.639-2.672-1.63-2.672s-1.611.78-1.611,2.672.639,2.666,1.611,2.666,1.6-.78,1.6-2.666Z" transform="translate(-120.105 -146.557)" fill="#263238"/>
      <path id="Path_97775" data-name="Path 97775" d="M261.53,281.753c0-2.743,1.522-4.3,3.561-4.3s3.561,1.56,3.561,4.3-1.509,4.3-3.561,4.3S261.53,284.5,261.53,281.753Zm5.185,0c0-1.918-.639-2.672-1.624-2.672s-1.618.78-1.618,2.672.639,2.666,1.618,2.666,1.624-.78,1.624-2.666Z" transform="translate(-124.653 -146.557)" fill="#263238"/>
      <path id="Path_97776" data-name="Path 97776" d="M251.7,316.78H225.192a6.208,6.208,0,0,1-6.2-6.2h0a6.208,6.208,0,0,1,6.2-6.208H251.7a6.2,6.2,0,0,1,6.2,6.208h0A6.2,6.2,0,0,1,251.7,316.78Z" transform="translate(-109.31 -156.266)" fill="#263238"/>
      <path id="Path_97777" data-name="Path 97777" d="M234.508,312.3c0,.78-.563,1.247-1.49,1.247h-.985v1.151h-.384V311.05h1.368C233.945,311.076,234.508,311.542,234.508,312.3Zm-.39,0c0-.582-.384-.914-1.112-.914h-.972V313.2h.972C233.734,313.23,234.118,312.9,234.118,312.3Z" transform="translate(-113.876 -158.675)" fill="#fff"/>
      <path id="Path_97778" data-name="Path 97778" d="M239.2,313.526v1.7h-.352V314.8a1.036,1.036,0,0,1-.946.454c-.639,0-1-.32-1-.8s.269-.774,1.055-.774h.87v-.166c0-.467-.262-.722-.774-.722a1.407,1.407,0,0,0-.914.32l-.166-.275a1.733,1.733,0,0,1,1.119-.371.972.972,0,0,1,1.106,1.061Zm-.371.876v-.448h-.857c-.531,0-.7.211-.7.492s.256.518.69.518A.87.87,0,0,0,238.824,314.4Z" transform="translate(-115.77 -159.182)" fill="#fff"/>
      <path id="Path_97779" data-name="Path 97779" d="M243.928,312.493l-1.368,3.069c-.23.537-.518.71-.908.71a.946.946,0,0,1-.652-.262l.173-.275a.684.684,0,0,0,.5.211c.249,0,.416-.115.569-.46l.121-.269-1.228-2.736h.39l1.029,2.334,1-2.321Z" transform="translate(-117.248 -159.191)" fill="#fff"/>
      <path id="Path_97780" data-name="Path 97780" d="M249.619,314.406v.6h-.262v-.595a1.918,1.918,0,0,1-1.247-.473l.153-.3a1.745,1.745,0,0,0,1.093.441v-1.368c-.575-.141-1.157-.32-1.157-1.01,0-.5.358-.933,1.157-.991v-.6h.262v.569a2.014,2.014,0,0,1,1.055.32l-.128.307a2.008,2.008,0,0,0-.927-.3v1.381c.588.141,1.208.307,1.208,1C250.827,313.92,250.444,314.362,249.619,314.406Zm-.262-2.059v-1.279c-.537.045-.78.32-.78.639S248.928,312.233,249.357,312.348Zm1.087,1.093c0-.416-.377-.556-.825-.639v1.279c.569-.045.825-.307.825-.639Z" transform="translate(-119.813 -158.336)" fill="#fff"/>
      <path id="Path_97781" data-name="Path 97781" d="M255.552,314.383v.332H253v-.262l1.515-1.49c.409-.4.486-.639.486-.9,0-.422-.294-.678-.85-.678a1.279,1.279,0,0,0-1,.4l-.268-.23a1.656,1.656,0,0,1,1.279-.518c.735,0,1.208.377,1.208.985a1.5,1.5,0,0,1-.6,1.138l-1.24,1.221Z" transform="translate(-121.533 -158.671)" fill="#fff"/>
      <path id="Path_97782" data-name="Path 97782" d="M257.76,312.894c0-1.164.607-1.854,1.451-1.854s1.458.69,1.458,1.854-.639,1.854-1.458,1.854S257.76,314.058,257.76,312.894Zm2.525,0c0-.972-.435-1.509-1.074-1.509s-1.074.537-1.074,1.509.441,1.509,1.074,1.509,1.074-.537,1.074-1.509Z" transform="translate(-123.293 -158.671)" fill="#fff"/>
      <path id="Path_97783" data-name="Path 97783" d="M263.15,312.894c0-1.164.639-1.854,1.458-1.854s1.458.69,1.458,1.854-.639,1.854-1.458,1.854S263.15,314.058,263.15,312.894Zm2.557,0c0-.972-.435-1.509-1.068-1.509s-1.074.537-1.074,1.509S264,314.4,264.64,314.4s1.036-.537,1.036-1.509Z" transform="translate(-125.237 -158.671)" fill="#fff"/>
      <path id="Path_97784" data-name="Path 97784" d="M158.945,231.861c.959,14.737-5.869,31.149-5.869,31.149l-36.884-10.383-6.432-1.816c6.393-8.88,9.437-26.373,7.768-40.528-.128-1.068-.2-2.071-.262-3.03-.639-11.674,4.213-15.089,8.311-20.248,4.475-5.588,14.436-26.686,14.436-31.68s12.5-17.218,9.718-31.091c0,0,3.779-2.346,7.576-.422,1.726.87,3.446,2.615,4.833,5.85,3.254,7.6-1.317,29.09-5.2,34.358l-7.487,31a66.215,66.215,0,0,1,5.006,12.256,105.421,105.421,0,0,1,4.488,24.589Z" transform="translate(-69.916 -90.873)" fill="#fff"/>
      <path id="Path_97785" data-name="Path 97785" d="M117.277,254.75c2.091,5.722,4.309,9.59,4.117,17.607s-4.475,20.357-3.254,26.769a5.645,5.645,0,0,0-1.918,1l-6.432-1.816c6.393-8.88,9.437-26.373,7.768-40.528C117.411,256.713,117.334,255.709,117.277,254.75Z" transform="translate(-69.927 -138.37)" fill="#fff" opacity="0.4"/>
      <path id="Path_97786" data-name="Path 97786" d="M176.86,164.448l-7.487,31a66.215,66.215,0,0,1,5.006,12.256h0c-5.07-8.171-9.379-10.613-9.379-10.613,3.376-4.047,5.978-33.649,5.978-33.649s10.581-12.435,9.59-25.446a41.557,41.557,0,0,0-3.337-13.752c1.726.87,3.446,2.615,4.833,5.85C185.318,137.692,180.747,159.18,176.86,164.448Z" transform="translate(-89.839 -91.301)" fill="#fff" opacity="0.4"/>
      <path id="Path_97787" data-name="Path 97787" d="M109.76,250.813c6.393-8.881,9.437-26.373,7.774-40.528s3.606-17.7,8.049-23.285,14.43-26.68,14.43-31.68,12.493-17.2,9.718-31.085c0,0,7.973-4.942,12.41,5.428,3.254,7.608-1.317,29.09-5.2,34.365l-7.48,30.989s7.985,13.778,9.488,36.845c.959,14.737-5.869,31.155-5.869,31.155" transform="translate(-69.916 -90.875)" fill="none" stroke="#263238" stroke-linecap="round" stroke-linejoin="round" stroke-width="1"/>
      <path id="Path_97788" data-name="Path 97788" d="M148.32,360.41s8.395,5.166,13.292,13.337" transform="translate(-83.823 -176.477)" fill="none" stroke="#263238" stroke-linecap="round" stroke-linejoin="round" stroke-width="1"/>
      <path id="Path_97789" data-name="Path 97789" d="M166.255,360.383s-7.231,1.029-13.765-6.79c-4.188-5.006-16.9-7.269-19.82-20.363" transform="translate(-78.179 -166.674)" fill="none" stroke="#263238" stroke-linecap="round" stroke-linejoin="round" stroke-width="1"/>
    </g>
    <g id="freepik--Hand--inject-54" transform="translate(174.669 127.576)">
      <path id="Path_97790" data-name="Path 97790" d="M317.564,347.3c-18.509-8.855-7.3-15.952-32.766-26.942s-25.721-20.382-22.652-41.979.639-44.569,8.043-46.519-5.792-31.737,2.839-42.267l42.478,82.629Z" transform="translate(-260.81 -185.452)" fill="rgba(0,0,0,0.7)" opacity="0.2"/>
      <path id="Path_97791" data-name="Path 97791" d="M391.83,344.121c-.869-2.487-1.752-5.2-2.436-7.672a37.377,37.377,0,0,0-3.2-8.727c-.256-.473-.531-.972-.838-1.509a53.228,53.228,0,0,1-5.492-12.506c-.933-3.5,0-12.109.87-20.459.639-6,1.221-11.655,1.049-14.865l-.051-1.138c-.435-8.395-1.343-25.861-3.2-30.689-1.822-4.654-3.523-5.351-6.624-6.592-.32-.141-.639-.269-1.01-.422-1.164-.486-3.146-1.509-5.428-2.692-5.147-2.666-11.553-5.984-14.807-6.393a29,29,0,0,0-9.123.422c-4.009-3.075-10.831-7.033-12.864-7.116-1.662-.083-5.294.959-7.033,1.5l-.876.281a26.328,26.328,0,0,0-3.491-2.289c-.083-.045-.166-.077-.237-.109-2.257-.927-5.665-.959-7.525-.908a10.83,10.83,0,0,0-1.2.077c-3.51-5.4-6.962-10.779-8.465-13.139-3.133-4.961-12.832-25.376-12.928-25.574a.172.172,0,0,0-.128-.1.327.327,0,0,0-.09,0c-.754-.217-6.31-1.63-8.542,3.753-2.442,5.863,1.042,18.733,4.443,23.406,1.637,2.25,6.106,11.431,10.639,20.932-1.164,1.08-10.472,9.68-14.993,11.284-3.7,1.311-2.832,20.286-2.135,35.522.262,5.626.48,10.466.416,13.375-.128,5.626,10.108,13.375,20.031,20.868,8.951,6.79,18.234,13.8,19.321,18.9a9.781,9.781,0,0,0,2.18,3.906c1.707,2.174,3.906,4.738,4.84,9.59.275,1.458,2.615,3.363,4.475,6.477h67.157C393.978,350,392.917,347.241,391.83,344.121ZM298.7,243.041c3.254,6.815,5.268,10.869,5.754,11.323s.454,2.615.441,4.718a37.942,37.942,0,0,0,.192,5.518c-.793.7-5.8,5.255-6.809,8.951l-4.252-5.006-1.074-15.709C293.588,252.158,297.961,247.536,298.7,243.041Z" transform="translate(-266.109 -183.139)" fill="#fff"/>
      <path id="Path_97792" data-name="Path 97792" d="M398.086,309.733c1.579,14.737,1.6,22.729,3.369,26.993,2.992,7.2,7.4,8.657,7.4,8.657a44.4,44.4,0,0,1-3.472-8.765c-.927-3.5,0-12.109.87-20.459.639-6,1.228-11.662,1.061-14.871l-.058-1.138c-.435-8.388-1.343-25.855-3.2-30.689-1.816-4.654-3.523-5.351-6.624-6.6-.32-.134-.639-.262-1.01-.416-1.164-.486-3.139-1.509-5.428-2.692-5.147-2.666-11.553-5.984-14.807-6.393a28.77,28.77,0,0,0-9.123.422c-4.009-3.075-10.831-7.033-12.864-7.116-1.662-.083-6.17,1.228-7.921,1.784,7.672,6.259,18.72,14.066,18.72,14.066,8.74,1.739,7.621,5.53,11.157,7.672,3.2,1.918,6.253-3.7,8.951-4.188,3.529-.639,7.538,3.082,7.359,7.6C391.916,286.032,396.731,297.08,398.086,309.733Z" transform="translate(-291.635 -206.036)" fill="#fff" opacity="0.4"/>
      <path id="Path_97793" data-name="Path 97793" d="M347.553,263.195s-6.924-5.754-10.23-7.672-3.836-8.529-1.228-10.134a.729.729,0,0,1,.326-.1l-.237-.109c-2.257-.927-5.665-.965-7.525-.908,3.836,7.141,6.9,12.621,7.723,13.823C339.164,262.108,347.553,263.195,347.553,263.195Z" transform="translate(-285.28 -205.167)" fill="#fff" opacity="0.4"/>
      <path id="Path_97794" data-name="Path 97794" d="M317.866,330.629c.294-1.528-2.225-6-3.331-7.819-2.513-4.143-31.686-29.921-27.46-36.8s8.088-1.79,10.76-1.343c1.918.32,7.186-2.82,7.161-3.082-.6-5.3,4.29-8.746,4.29-8.746s-.448-21.1-1.573-20.74-14.59-31.68-14.59-31.68-14.232-18.925-13.426-27.754,6.982-8.983,6.982-8.983v-.237c-.754-.217-6.31-1.63-8.542,3.753-2.442,5.863,1.042,18.733,4.443,23.406,1.637,2.25,6.106,11.431,10.639,20.932-1.164,1.081-10.472,9.68-14.993,11.284-3.7,1.311-2.832,20.286-2.135,35.522.262,5.626.479,10.466.416,13.375-.128,5.626,10.108,13.375,20.031,20.868,8.951,6.79,18.234,13.8,19.321,18.9a9.781,9.781,0,0,0,2.18,3.906A25.922,25.922,0,0,1,317.866,330.629Zm-19.18-87.59c3.254,6.815,5.268,10.869,5.754,11.323s.454,2.615.441,4.718a37.946,37.946,0,0,0,.192,5.518c-.793.7-5.8,5.255-6.809,8.951l-4.252-5.006-1.074-15.709c.639-.7,5.012-5.319,5.748-9.814Z" transform="translate(-266.098 -183.118)" fill="#fff" opacity="0.4"/>
      <path id="Path_97795" data-name="Path 97795" d="M325.561,241.183a14.539,14.539,0,0,1-7.186-5.038c-2.922-3.913-14.4-21.738-17.576-26.763s-12.96-25.58-12.96-25.58-6.01-2.014-8.35,3.6.863,18.3,4.424,23.183,20.485,42.5,21.827,43.712-.671,11.252,2.02,13.682" transform="translate(-267.259 -183.238)" fill="none" stroke="#263238" stroke-linecap="round" stroke-linejoin="round" stroke-width="1"/>
      <path id="Path_97796" data-name="Path 97796" d="M315.021,298.007s-6.2,5.4-6.93,9.347l-4.6-5.415L302.4,286.071s5.556-5.562,5.863-10.511" transform="translate(-275.809 -216.458)" fill="none" stroke="#263238" stroke-linecap="round" stroke-linejoin="round" stroke-width="1"/>
      <path id="Path_97797" data-name="Path 97797" d="M293.591,258.88s-10.3,9.718-15.2,11.451-1.323,38.143-1.566,48.686,37.05,28.911,39.339,39.7c.908,4.3,4.667,5.172,6.962,13.426" transform="translate(-266.214 -210.442)" fill="none" stroke="#263238" stroke-linecap="round" stroke-linejoin="round" stroke-width="1"/>
      <path id="Path_97798" data-name="Path 97798" d="M326.56,244.676s5.607-.505,8.765.812,15.984,12.333,19.078,14.436,7.749,2.9,8.631,5.172" transform="translate(-284.523 -205.285)" fill="none" stroke="#263238" stroke-linecap="round" stroke-linejoin="round" stroke-width="1"/>
      <path id="Path_97799" data-name="Path 97799" d="M346.17,248.787s5.754-1.918,7.953-1.809,10.472,4.987,14.181,8.248a31.609,31.609,0,0,0,9.66,5.869" transform="translate(-291.595 -206.147)" fill="none" stroke="#263238" stroke-linecap="round" stroke-linejoin="round" stroke-width="1"/>
      <path id="Path_97800" data-name="Path 97800" d="M378.68,257.8a28.06,28.06,0,0,1,9.143-.441c4.68.639,16.431,7.544,20.178,9.1s5.537,1.848,7.506,6.886,2.871,24.193,3.267,31.763-3.548,29.25-1.918,35.349,4.571,10.8,6.355,14.066" transform="translate(-303.32 -209.824)" fill="none" stroke="#263238" stroke-linecap="round" stroke-linejoin="round" stroke-width="1"/>
      <path id="Path_97801" data-name="Path 97801" d="M301.174,289.62s-.9-3.74-2.174-4.22" transform="translate(-274.583 -220.006)" fill="none" stroke="#263238" stroke-linecap="round" stroke-linejoin="round" stroke-width="1"/>
      <path id="Path_97802" data-name="Path 97802" d="M304.1,316.82a47.64,47.64,0,0,0,1.745,6.425c.921,2.27-.511,5.556-.511,5.556" transform="translate(-276.423 -231.338)" fill="none" stroke="#263238" stroke-linecap="round" stroke-linejoin="round" stroke-width="1"/>
      <path id="Path_97803" data-name="Path 97803" d="M311.3,325.29c-.147,3.631,3.465,7.877,4.341,7.276" transform="translate(-279.017 -234.393)" fill="none" stroke="#263238" stroke-linecap="round" stroke-linejoin="round" stroke-width="1"/>
      <path id="Path_97804" data-name="Path 97804" d="M340.07,286.092s3.881-6.278,7.6-6.585,8.017,4.974,10.313,4.475,5.185-3.874,9.047-4.475,5.671,1.24,8.733,1.394,3.376-3.938,7.033-4.475,4.9,1.279,7.359,1.752,3.069-1.464,5.057-2.557" transform="translate(-289.395 -216.479)" fill="none" stroke="#263238" stroke-linecap="round" stroke-linejoin="round" stroke-width="1"/>
    </g>
  </g>
</svg>
